<?xml version="1.0" encoding="UTF-8"?>
<svg xmlns="http://www.w3.org/2000/svg" viewBox="0 0 841.89 595.28" width="2000" height="1414"
  shape-rendering="geometricPrecision"
  text-rendering="geometricPrecision"
  preserveAspectRatio="xMidYMid meet"
  image-rendering="optimizeQuality">
  <defs>
    <style>
      * {
        vector-effect: non-scaling-stroke;
        shape-rendering: geometricPrecision;
      }
      .cls-1 {
        fill: #a1d5d8;
      }

      .cls-1, .cls-2, .cls-3, .cls-4, .cls-5, .cls-6, .cls-7, .cls-8, .cls-9, .cls-10, .cls-11, .cls-12, .cls-13, .cls-14, .cls-15, .cls-16, .cls-17, .cls-18, .cls-19, .cls-20, .cls-21, .cls-22, .cls-23 {
        stroke-miterlimit: 1;
        stroke-width: 0.5px;
        stroke-linejoin: round;
        stroke-linecap: round;
      }

      .cls-1, .cls-2, .cls-3, .cls-4, .cls-5, .cls-6, .cls-7, .cls-8, .cls-9, .cls-10, .cls-11, .cls-12, .cls-13, .cls-14, .cls-15, .cls-16, .cls-17, .cls-18, .cls-19, .cls-21, .cls-23 {
        stroke: #1d1d1b;
      }

      .cls-2 {
        fill: #246854;
      }

      .cls-3 {
        fill: #9cc97e;
      }

      .cls-4, .cls-24 {
        fill: #142a26;
      }

      .cls-5 {
        fill: #f18534;
      }

      .cls-6 {
        fill: #29755f;
      }

      .cls-25 {
        fill: #d1e6cb;
      }

      .cls-7 {
        fill: #112420;
      }

      .cls-8 {
        fill: #3c3c3b;
      }

      .cls-9 {
        fill: #1d5646;
      }

      .cls-10 {
        fill: #406664;
      }

      .cls-11, .cls-16, .cls-22 {
        fill: #1d1d1b;
      }

      .cls-12 {
        fill: #80c9c6;
      }

      .cls-13 {
        fill: #f08334;
      }

      .cls-26 {
        fill: #22af8d;
      }

      .cls-14 {
        fill: #f7fbf7;
      }

      .cls-15 {
        fill: #2d9470;
      }

      .cls-27 {
        fill: #8fc89b;
      }

      .cls-17 {
        fill: #2f8d6a;
      }

      .cls-18 {
        fill: #2b7661;
      }

      .cls-28 {
        fill: #5eb780;
      }

      .cls-19 {
        fill: #d6ecec;
      }

      .cls-20, .cls-21 {
        fill: #fff;
      }

      .cls-20, .cls-22 {
        stroke: #3c3c3b;
      }

      .cls-29 {
        fill: #0d4c3b;
      }

      .cls-23 {
        fill: #2d7452;
      }
    </style>
  </defs>
  <g id="Livello_3" data-name="Livello 3">
    <rect class="cls-16" width="841.89" height="595.28"/>
  </g>
  <g id="Livello_2" data-name="Livello 2">
    <polygon class="cls-29" points="186.86 150.15 186.86 445.13 442.32 592.62 697.78 445.13 697.78 150.15 442.32 2.66 186.86 150.15"/>
    <line class="cls-21" x1="186.86" y1="150.15" x2="197.93" y2="156.54"/>
    <line class="cls-21" x1="686.7" y1="156.54" x2="697.78" y2="150.15"/>
    <line class="cls-21" x1="442.32" y1="579.83" x2="442.32" y2="592.62"/>
  </g>
  <g id="Livello_5" data-name="Livello 5">
    <polygon class="cls-2" points="197.93 438.73 441.3 297.05 686.7 438.73 442.32 579.83 197.93 438.73"/>
    <polygon class="cls-18" points="441.3 297.05 442.32 15.45 686.7 156.54 686.7 438.73 441.3 297.05"/>
    <polygon class="cls-9" points="197.93 438.73 197.93 156.54 442.32 15.45 441.3 297.05 197.93 438.73"/>
    <polygon class="cls-26" points="600.07 489.25 504.01 434.43 590.18 384.21 686.7 438.73 600.07 489.25"/>
  </g>
  <g id="Livello_22" data-name="Livello 22">
    <polygon class="cls-6" points="386.94 365.85 307.08 411.96 369.12 447.58 447.89 401.57 386.94 365.85"/>
    <polygon class="cls-23" points="424.97 479.76 373.68 509.37 403.08 526.25 453.41 496.45 424.97 479.76"/>
    <polygon class="cls-6" points="342.16 490.48 256.61 441.09 229.65 456.66 314.76 506.3 342.16 490.48"/>
    <polygon class="cls-23" points="538.89 484.73 512.92 499.73 546.79 519.28 572.47 504.12 538.89 484.73"/>
    <polygon class="cls-6" points="461.84 528.86 435.87 543.85 469.74 563.41 495.43 548.25 461.84 528.86"/>
    <polygon class="cls-6" points="505 371.16 448.42 401.02 472.83 415.04 528.64 383.25 505 371.16"/>
    <polygon class="cls-23" points="385.3 330.56 355.2 347.6 386.94 365.85 415.39 348.94 385.3 330.56"/>
    <polygon class="cls-28" points="293.41 299.2 280.27 306.79 280.27 191.24 293.41 184.43 293.41 299.2"/>
    <polygon class="cls-28" points="315.91 288.27 302.78 295.85 302.78 180.3 315.91 173.49 315.91 288.27"/>
    <polygon class="cls-28" points="335.58 277.25 322.44 284.83 322.44 169.28 335.58 162.47 335.58 277.25"/>
    <polygon class="cls-28" points="355.28 266.75 342.14 274.34 342.14 158.79 355.28 151.97 355.28 266.75"/>
    <polygon class="cls-27" points="296.25 286.32 285.29 292.65 285.29 196.28 296.25 190.6 296.25 286.32"/>
    <polygon class="cls-27" points="317.18 273.87 306.23 280.2 306.23 183.83 317.18 178.14 317.18 273.87"/>
    <polygon class="cls-27" points="336.9 263.51 325.94 269.83 325.94 173.46 336.9 167.78 336.9 263.51"/>
    <polygon class="cls-27" points="357.84 250.67 346.88 257 346.88 160.62 357.84 154.94 357.84 250.67"/>
  </g>
  <g id="Livello_19" data-name="Livello 19">
    <ellipse class="cls-28" cx="552.42" cy="199.19" rx="69.55" ry="93.09" transform="translate(-13.17 41.23) rotate(-4.22)"/>
    <ellipse class="cls-27" cx="552.08" cy="194.54" rx="55.77" ry="74.65" transform="translate(-12.83 41.19) rotate(-4.22)"/>
    <ellipse class="cls-25" cx="552.12" cy="192.52" rx="36.99" ry="49.51" transform="translate(-12.68 41.19) rotate(-4.22)"/>
  </g>
  <g id="Livello_17" data-name="Livello 17">
    <polygon class="cls-24" points="384.31 329.98 483.38 387.81 542.87 355.44 442.82 290.55 384.31 329.98"/>
    <path class="cls-24" d="M584.44,379.93l-11.57,7.75c-4.91,3.29-10.58,5.31-16.48,5.63s-12.23-.83-13.87-6.79c-1.06-3.85.57-7.94,3.77-10.33l12.86-9.6,25.29,13.34Z"/>
    <polygon class="cls-24" points="198.86 438.73 385.24 329.98 388.75 332.03 202.09 440.6 198.86 438.73"/>
    <polygon class="cls-24" points="686.7 438.73 506.5 334.69 537.49 358.04 682.2 441.54 686.7 438.73"/>
  </g>
  <g id="Livello_10" data-name="Livello 10">
    <g>
      <line class="cls-20" x1="211.48" y1="148.96" x2="211.48" y2="431.15"/>
      <line class="cls-20" x1="222.44" y1="142.47" x2="222.44" y2="424.66"/>
      <line class="cls-20" x1="232.41" y1="136.51" x2="232.41" y2="418.7"/>
      <line class="cls-20" x1="243.37" y1="130.02" x2="243.37" y2="412.21"/>
      <line class="cls-20" x1="252.13" y1="125.24" x2="252.13" y2="407.43"/>
      <line class="cls-20" x1="263.09" y1="118.74" x2="263.09" y2="400.93"/>
      <line class="cls-20" x1="273.06" y1="112.79" x2="273.06" y2="394.98"/>
      <line class="cls-20" x1="284.02" y1="106.29" x2="284.02" y2="388.48"/>
      <line class="cls-20" x1="295" y1="100.74" x2="295" y2="382.93"/>
      <line class="cls-20" x1="305.96" y1="94.24" x2="305.96" y2="376.43"/>
      <line class="cls-20" x1="315.93" y1="88.29" x2="315.93" y2="370.48"/>
      <line class="cls-20" x1="326.89" y1="81.79" x2="326.89" y2="363.98"/>
      <line class="cls-20" x1="335.65" y1="77.01" x2="335.65" y2="359.2"/>
      <line class="cls-20" x1="346.61" y1="70.51" x2="346.61" y2="352.7"/>
      <line class="cls-20" x1="356.58" y1="64.56" x2="356.58" y2="346.75"/>
      <line class="cls-20" x1="367.54" y1="58.06" x2="367.54" y2="340.25"/>
      <line class="cls-20" x1="378.18" y1="52.33" x2="378.18" y2="334.52"/>
      <line class="cls-20" x1="386.94" y1="47.55" x2="386.94" y2="329.74"/>
      <line class="cls-20" x1="397.9" y1="41.06" x2="397.9" y2="323.25"/>
      <line class="cls-20" x1="407.88" y1="35.1" x2="407.88" y2="317.29"/>
      <line class="cls-20" x1="418.83" y1="28.6" x2="418.83" y2="310.79"/>
      <line class="cls-20" x1="430.34" y1="22.29" x2="430.34" y2="304.48"/>
      <line class="cls-20" x1="453.41" y1="21.54" x2="453.41" y2="303.73"/>
      <line class="cls-20" x1="464.78" y1="28.22" x2="464.78" y2="310.41"/>
      <line class="cls-20" x1="476.92" y1="35.1" x2="476.92" y2="317.29"/>
      <line class="cls-20" x1="488.29" y1="41.78" x2="488.29" y2="323.97"/>
      <line class="cls-20" x1="502.61" y1="50.31" x2="502.61" y2="332.5"/>
      <line class="cls-20" x1="513.98" y1="56.99" x2="513.98" y2="339.18"/>
      <line class="cls-20" x1="526.12" y1="63.87" x2="526.12" y2="346.06"/>
      <line class="cls-20" x1="537.49" y1="70.55" x2="537.49" y2="352.75"/>
      <line class="cls-20" x1="549.56" y1="77.01" x2="549.56" y2="359.2"/>
      <line class="cls-20" x1="560.93" y1="83.69" x2="560.93" y2="365.88"/>
      <line class="cls-20" x1="573.07" y1="90.57" x2="573.07" y2="372.77"/>
      <line class="cls-20" x1="584.44" y1="97.26" x2="584.44" y2="379.45"/>
      <line class="cls-20" x1="598.77" y1="105.78" x2="598.77" y2="387.97"/>
      <line class="cls-20" x1="610.13" y1="112.46" x2="610.13" y2="394.66"/>
      <line class="cls-20" x1="622.27" y1="119.35" x2="622.27" y2="401.54"/>
      <line class="cls-20" x1="633.64" y1="126.03" x2="633.64" y2="408.22"/>
      <line class="cls-20" x1="644.05" y1="132.01" x2="644.05" y2="414.2"/>
      <line class="cls-20" x1="656.18" y1="138.89" x2="656.18" y2="421.08"/>
      <line class="cls-20" x1="667.55" y1="145.57" x2="667.55" y2="427.76"/>
      <line class="cls-20" x1="676.31" y1="150.46" x2="676.31" y2="432.65"/>
      <line class="cls-20" x1="197.93" y1="183.01" x2="442.32" y2="41.92"/>
      <line class="cls-20" x1="197.93" y1="216.12" x2="442.32" y2="75.02"/>
      <line class="cls-20" x1="197.93" y1="247.42" x2="442.32" y2="106.32"/>
      <line class="cls-20" x1="197.93" y1="280.53" x2="442.32" y2="139.43"/>
      <line class="cls-20" x1="197.93" y1="311.85" x2="442.32" y2="170.75"/>
      <line class="cls-20" x1="197.93" y1="344.96" x2="442.32" y2="203.86"/>
      <line class="cls-20" x1="197.93" y1="376.26" x2="442.32" y2="235.16"/>
      <line class="cls-20" x1="197.93" y1="410.17" x2="442.32" y2="269.08"/>
      <line class="cls-20" x1="442.32" y1="41.92" x2="686.7" y2="183.01"/>
      <line class="cls-20" x1="442.32" y1="75.02" x2="686.7" y2="216.12"/>
      <line class="cls-20" x1="441.81" y1="106.32" x2="686.19" y2="247.42"/>
      <line class="cls-20" x1="441.81" y1="139.43" x2="686.19" y2="280.53"/>
      <line class="cls-20" x1="442.57" y1="172.25" x2="686.96" y2="313.35"/>
      <line class="cls-20" x1="442.57" y1="205.36" x2="686.96" y2="346.46"/>
      <line class="cls-20" x1="442.06" y1="236.66" x2="686.45" y2="377.76"/>
      <line class="cls-20" x1="441.57" y1="269.52" x2="685.95" y2="410.62"/>
      <line class="cls-20" x1="225.02" y1="422.85" x2="469.4" y2="563.95"/>
      <line class="cls-20" x1="252.13" y1="407.43" x2="496.51" y2="548.52"/>
      <line class="cls-20" x1="275.67" y1="393.83" x2="520.05" y2="534.92"/>
      <line class="cls-20" x1="302.78" y1="378.4" x2="547.16" y2="519.5"/>
      <line class="cls-20" x1="328.09" y1="363.03" x2="572.47" y2="504.12"/>
      <line class="cls-20" x1="355.2" y1="347.6" x2="599.58" y2="488.7"/>
      <line class="cls-20" x1="384.31" y1="330.99" x2="628.69" y2="472.09"/>
      <line class="cls-22" x1="411.41" y1="315.57" x2="655.8" y2="456.66"/>
      <line class="cls-20" x1="408.65" y1="559.92" x2="653.03" y2="418.83"/>
      <line class="cls-20" x1="376.2" y1="541.77" x2="620.58" y2="400.68"/>
      <line class="cls-20" x1="347.21" y1="524.45" x2="591.6" y2="383.36"/>
      <line class="cls-20" x1="314.76" y1="506.3" x2="559.14" y2="365.21"/>
      <line class="cls-20" x1="291.09" y1="492.13" x2="535.47" y2="351.04"/>
      <line class="cls-20" x1="258.64" y1="473.98" x2="503.02" y2="332.89"/>
      <line class="cls-20" x1="229.65" y1="456.66" x2="474.04" y2="315.57"/>
    </g>
  </g>
  <g id="Livello_12" data-name="Livello 12">
    <path class="cls-17" d="M600.68,311.21v5.01s21.58,11.46,49.69.63l.48-5.64"/>
    <ellipse class="cls-19" cx="625.77" cy="311.21" rx="25.09" ry="7.85"/>
    <path class="cls-17" d="M617.76,298.9v8.64s7.22,5.14,15.72,0v-8.64"/>
    <ellipse class="cls-19" cx="625.77" cy="298.9" rx="7.71" ry="2.93"/>
    <path class="cls-4" d="M643.74,257.05s-22.03-4.86-20.34,40.97h4.94s-2.72-36.87,15.4-35.43v-5.54Z"/>
    <path class="cls-4" d="M642.45,357.66c-.12,2.33-1.68,4.15-3.49,4.06s-3.18-2.06-3.06-4.39,6.67-2,6.55.33Z"/>
    <path class="cls-17" d="M635.14,359.16c.57,1.22.28,2.56-.67,3.01s-2.17-.18-2.75-1.4,2.84-2.83,3.42-1.62Z"/>
    <path class="cls-17" d="M645.08,362.7c-.93.97-2.3,1.17-3.05.44s-.61-2.1.33-3.07,3.66,1.65,2.72,2.62Z"/>
    <rect class="cls-16" x="579" y="430.62" width="13.25" height="1.61" transform="translate(-140.81 394.29) rotate(-33.45)"/>
    <rect class="cls-16" x="584.97" y="433.6" width="13.25" height="1.61" transform="translate(-141.46 398.07) rotate(-33.45)"/>
    <rect class="cls-16" x="590.94" y="436.34" width="13.25" height="1.61" transform="translate(-141.98 401.82) rotate(-33.45)"/>
  </g>
  <g id="Livello_9" data-name="Livello 9">
    <path class="cls-17" d="M544.74,357.56l.31,7.67c.15,3.67,2.24,6.99,5.49,8.71l6.87,3.64c4.11,2.17,9.12,1.69,12.73-1.22l17.26-11.4.86-10.71"/>
    <path class="cls-19" d="M566.63,341.73l21.63,12.52s-3.13,4.63-8.55,8.58c-9.33,6.8-22.25,6.63-31.31-.54-3.5-2.77-5.57-6.32-.78-9.78,1.82-1.31,19.01-10.78,19.01-10.78Z"/>
    <rect class="cls-21" x="577.35" y="339.48" width=".59" height="5.01" transform="translate(29.14 -45.02) rotate(4.58)"/>
    <rect class="cls-21" x="579.46" y="340.22" width=".59" height="5.01" transform="translate(29.21 -45.19) rotate(4.58)"/>
    <rect class="cls-21" x="581.61" y="341.07" width=".59" height="5.01" transform="translate(29.28 -45.36) rotate(4.58)"/>
  </g>
  <g id="Livello_7" data-name="Livello 7">
    <g>
      <path class="cls-7" d="M480.43,368.64l-.48,16.84,2.85,1.54,2.81-1.04.48-11.58h0c-.88-.54-2.31-1.09-3-1.84-1.18-1.3-2.2-2.23-2.66-3.92h0Z"/>
      <line class="cls-7" x1="482.8" y1="387.02" x2="483.38" y2="372.84"/>
    </g>
    <g>
      <path class="cls-7" d="M386.37,311.58l-.48,16.84,2.85,1.54,2.81-1.04.48-11.58h0c-.88-.54-2.31-1.09-3-1.84-1.18-1.3-2.2-2.23-2.66-3.92h0Z"/>
      <line class="cls-7" x1="388.75" y1="329.96" x2="389.33" y2="315.78"/>
    </g>
    <g>
      <path class="cls-7" d="M533.84,340.13l-.48,16.84,2.85,1.54,2.81-1.04.48-11.58h0c-.88-.54-2.31-1.09-3-1.84-1.18-1.3-2.2-2.23-2.66-3.92h0Z"/>
      <line class="cls-7" x1="536.21" y1="358.51" x2="536.79" y2="344.33"/>
    </g>
    <path class="cls-12" d="M386.33,303.69l-.23,5.62c-.11,2.71,1.27,5.25,3.6,6.64l90.23,53.7c3.69,2.2,8.25,2.34,12.06.37l44.68-22.99c3.1-1.59,5.16-4.67,5.46-8.14l.45-5.16c.31-3.54-1.54-6.91-4.68-8.57l-89.81-51.36c-3.56-1.88-9.57-1.71-13.27-.13l-44.88,24.77c-2.11.91-3.52,2.94-3.61,5.24Z"/>
    <path class="cls-15" d="M407.69,335.67c-.37-.2-.6-.6-.56-1.02.12-1.52.48-5.4,1.25-10.23l1.2-8.9c.04-.33.25-.63.54-.79l55.24-30.43c.33-.18.72-.18,1.05.01l73.73,42.54s6.32,2.61,2.03,21.66c0,.04-.02.08-.03.11l-.61,1.81c-.34,1.02-1.82.94-2.05-.11l-.15-.7c-.26-1.2-2.01-1.07-2.1.15h0c-.03.39-.27.73-.62.89l-1.29.59c-.2.09-.41.12-.63.08l-1.69-.29c-.43-.07-.87.12-1.09.5l-1.72,2.84s-.05.08-.09.12l-.22.27c-.48.59-1.41.5-1.77-.18l-.24-.46c-.51-.98-1.99-.63-2.01.48v.69c-.02.34-.19.67-.47.86l-2.15,1.48c-.12.09-.23.2-.31.33l-1.29,2.13c-.12.21-.32.36-.54.45l-.12.04c-.62.23-1.3-.16-1.42-.8l-1.11-5.95-.57,4.77c-.02.15-.07.29-.14.41l-.75,1.27c-.32.54-1.04.69-1.54.32l-.25-.18c-.58-.42-1.41-.16-1.64.52l-.28.83c-.23.69-1.06.94-1.64.51-.51-.37-1.16-.79-1.92-1.17-.39-.2-.79,2.56-.93,3.62-.03.27-.17.5-.37.67l-3.38,2.82c-.14.12-.32.2-.5.23l-4.23.71c-.15.02-.28.08-.41.16l-3.65,2.39c-.1.07-.21.12-.33.14l-4.45,1.08c-.14.03-.26.09-.38.17l-1.58,1.15c-.65.47-1.56.09-1.68-.7l-1.76-11.62.59,11.62c0,.13,0,.25-.05.38l-1.41,4.43c-.21.65-.96.94-1.55.6l-7.49-4.36c-.38-.22-.58-.64-.52-1.07l1.97-13.43-2.97,11.35c-.17.65-.88.98-1.49.69l-6.06-2.87c-.19-.09-.35-.23-.45-.41l-1.21-1.98c-.1-.16-.23-.29-.4-.38-.63-.34-2.24-1.21-2.49-1.33-.2-.09-1.53-1.33-2.48-2.22-.49-.46-1.27-.36-1.63.21-.54.87-1.25,1.92-1.48,1.91-.33-.01-2.99-1.63-3.99-2.25-.24-.15-.41-.39-.48-.67l-.92-4.04c-.08-.36-.35-.66-.7-.77l-2.64-.89-6.5-2.17c-.28-.09-.51-.3-.63-.56-.34-.74-1.06-2.21-1.47-2.23-.54-.02-2.05.32-2.16-.09s-2.57-3.36-3.11-3.51-4.96-1.15-5.37-1.17-3.1-.4-3.77-.56c-.6-.15-1.82-1.41-2.06-1.67-.03-.03-.06-.06-.1-.09l-4.06-3.32c-.19-.16-.32-.38-.37-.62l-.29-1.52c-.19-.97-1.48-1.19-1.97-.33l-.23.4c-.29.5-.92.68-1.42.41l-7.05-3.76Z"/>
    <path class="cls-12" d="M402.68,293.02l17.36,10.7c1.51.93,3.14,1.42,4.66.5l21.26-11.49c1.91-1.16,3.14-3.26,1.68-4.95-3.28-3.8-10.23-10.33-17.95-12.89-2.15-.71-4.49-.52-6.55.42-5.68,2.6-17.81,8.6-21.12,13.8,0,0-1.22,1.97.67,3.92Z"/>
    <path class="cls-10" d="M386.48,302.64l23.1,12.88-1.56,11.34-18.99-11.36s-4.24-2.09-2.54-12.86Z"/>
    <path class="cls-10" d="M424.08,301.27s22.52-11.61,24.11-12.5c0,0,.63,1.59-1.63,3.53l-21.87,11.91-1.13-.05s2.3-1.37.52-2.89"/>
    <path class="cls-1" d="M409.89,315.43l71.16,38.07c1.46.78,3.21.81,4.7.08l53.46-26.28c.4-.2.41-.75.03-.97l-72.44-41.35c-.5-.28-1.1-.29-1.61-.02"/>
  </g>
  <g id="Livello_14" data-name="Livello 14">
    <path class="cls-10" d="M401.63,290.57s.58-3.26,4.1-1l17.05,10.47s4.24,2.71-.45,4.6l-19.64-11.63s-1-.19-1.06-2.44Z"/>
  </g>
  <g id="Livello_20" data-name="Livello 20">
    <g>
      <path class="cls-5" d="M452.49,306.7c-2.33-.3-16.23-2.17-19.01-4.05-.05-.03-.09-.05-.14-.07-.6-.19-4.52-1.39-7.79-1.66,0,0-5.23-.19-4.34-2.18.04-.09.06-.18.05-.27l-.32-2.16c0-.06-.03-.12-.06-.17-.25-.39-1.26-2.23.85-3.08.21-.09.35-.27.36-.47h0c.02-.4.53-.66.92-.46,1.87.93,6.1,3.1,6.45,3.8,0,0,1.26,1.29,1.22,2.28-.01.27.26.49.57.49,2.96,0,14.06.13,17.9,1.57.41.15.88-.12.87-.51-.04-2.6-.1-9.7.5-11.85.09-.32.49-.5.83-.38l7.99,2.79c.19.07.32.22.35.4l1.14,7.83c.02.15-.03.31-.15.43l-7.63,7.55c-.14.14-.35.21-.56.19Z"/>
      <path class="cls-13" d="M490.31,298.44c-.55,2.91-2.6,7.24-9.57,9.71-.25.09-.49.21-.69.37-1.42,1.11-7.57,5.86-12.6,8.6-1.59.87-1.41,2.9.3,3.4,3.14.91,8.21,2.04,15.91,2.93.24.03.48.02.72-.02,1.96-.33,11.53-1.57,7.52,6.53-.14.29-.21.59-.19.9.05.9.24,2.84.84,3.55.2.24.3.52.36.81.27,1.46.87,5.17.28,7.16-.15.52-.58.96-1.13,1.22h0c-1.23.59-2.72.08-3.09-1.05-.97-2.97-2.85-8.17-4.79-10.43-.12-.14-.23-.28-.3-.44-.37-.8-2.58-3.91-14.56-2.62-.07,0-.14.01-.22.01-1.71.03-23.23.28-24.53-3.21-.04-.12-.06-.24-.06-.36.11-4.02-5.41-3.71,20.54-21.25.18-.12.37-.22.58-.29l21.81-7.49c1.57-.54,3.15.55,2.88,1.98Z"/>
      <path class="cls-5" d="M433.82,292.05c-2.08.63-10.48,2.5-12.57-7.34-.03-.12-.03-.25,0-.37.26-1.26,2.2-8.21,12.94-7.05,0,0,4.07.22,6.59-.47.2-.05.37-.15.51-.29,1.16-1.08,7.57-6.21,21.41-2.41,0,0,8.93,2.79,16.56,5.56,0,0,12.53,4.18,12.21,14.13,0,0,.86,6.45-9.27,8.21-.23.04-.44.13-.61.27-2,1.6-15.06,11.98-23.01,15.57-.81.37-.93,1.32-.22,1.76,2.19,1.34,5.84,4.01,7.53,7.75.05.12.13.23.24.32,1.21,1.06,9.12,8.03,11.42,11.8.24.4.77.59,1.3.47,1.78-.41,5.53-1.12,5.65.17,0,0,1.49,1.9-.55,6.19-.1.21-.13.43-.07.64.43,1.58,2.25,8.6,1.4,12.75-.21,1.02-1.84,1.23-2.27.29-.51-1.1-1.25-2.48-2.26-3.85,0,0-5.74-8.15-6.49-10.9-.05-.2-.18-.38-.36-.51l-26.7-19.68s-.05-.04-.08-.05c-.53-.32-6.11-3.86-2.39-8.67.02-.02.04-.04.06-.07.81-.92,19.24-22,27.89-24.49,0,0-4.48,1.26-9.07.49-.82-.14-1.59.49-1.47,1.21l.63,3.86c.03.16.01.32-.05.47-.32.83-1.66,3.36-6.25,3.27-.03,0-.07,0-.1,0-.8.06-11.18.81-16.28,1.59-.03,0-.06,0-.09.02-.56.12-6.81,1.41-7.38-1.49-.03-.17-.1-.33-.23-.46-.37-.38-1.17-1.25-1.62-2.06-.33-.6.12-1.33.89-1.48s1.61-.23,1.79.14h0c-1.11-.58-.38-2.1.91-1.91.62.09,1.35.25,2.24.5.07.02.14.03.21.04.47.05,2.47.3,3.22,1.19.29.34.78.48,1.26.36,2.67-.7,10.02-2.58,11.92-2.55.18,0,.34.05.5.12.62.29,2.86,1.31,3.58.86,0,0-3.92.75-7.56-5.67-.08-.15-.21-.27-.36-.36-.93-.56-4.39-2.75-5.79-4.74-.28-.39-.83-.56-1.35-.41l-.09.03c-.6.18-.97.72-.84,1.24l.65,2.58c.1.4-.08.85-.49,1.09-.3.18-.76.34-1.46.44-.37.05-.7.23-.89.51-.41.6-1.23,1.63-2.25,2-.31.11-.66.09-.95-.03l-1.19-.52c-.28-.12-.61-.14-.92-.04Z"/>
    </g>
  </g>
  <g id="Livello_18" data-name="Livello 18">
    <path class="cls-14" d="M542.43,184.87v19.94s8.22,8.33,16.5,0v-18.94"/>
    <path class="cls-3" d="M543.68,177.26s7.05,5.67,14.22.39c0,0,2.83,3.55.94,8.11,0,0-9.44,6-16.16-.89,0,0-1.61-4.11,1-7.61Z"/>
    <polyline class="cls-11" points="552.27 174.49 552.42 80.67 549.09 80.67 548.93 174.49"/>
    <path class="cls-11" d="M549.09,80.67s.1-5.89,11.51-10.32l3.19,1.84s-8.54,1.66-11.36,8.48"/>
    <path class="cls-8" d="M543.68,177.26s6.31-7.78,14.22.39c0,0-5.69,5.2-14.22-.39Z"/>
  </g>
</svg>