<?xml version="1.0" encoding="UTF-8"?>
<svg xmlns="http://www.w3.org/2000/svg" version="1.1" viewBox="0 0 2000 1414" width="2000" height="1414" shape-rendering="geometricPrecision" text-rendering="geometricPrecision" image-rendering="optimizeQuality" preserveAspectRatio="xMidYMid meet" xmlns:xlink="http://www.w3.org/1999/xlink">
  <!-- Generator: Adobe Illustrator 29.1.0, SVG Export Plug-In . SVG Version: 2.1.0 Build 142)  -->
  <defs>
    <style>
      .st0 {
        fill: #22af8d;
      }

      .st1 {
        fill: #2d7452;
      }

      .st1, .st2, .st3, .st4, .st5, .st6, .st7, .st8, .st9, .st10, .st11, .st12, .st13, .st14, .st15, .st16, .st17, .st18, .st19, .st20, .st21, .st22, .st23 {
        stroke-linecap: round;
        stroke-linejoin: round;
      }

      .st1, .st2, .st3, .st4, .st5, .st6, .st8, .st9, .st10, .st11, .st12, .st13, .st14, .st15, .st16, .st17, .st18, .st19, .st20, .st21, .st22, .st23 {
        stroke: #1d1d1b;
      }

      .st1, .st3, .st4, .st5, .st6, .st7, .st8, .st9, .st10, .st12, .st13, .st14, .st15, .st16, .st17, .st18, .st19, .st20, .st21, .st22, .st23 {
        stroke-width: 1.2px;
      }

      .st2 {
        stroke-width: 1.2px;
      }

      .st2, .st18 {
        fill: #1d1d1b;
      }

      .st3 {
        fill: #246854;
      }

      .st24, .st19 {
        fill: #142a26;
      }

      .st4, .st7 {
        fill: none;
      }

      .st5 {
        fill: #1d5646;
      }

      .st6 {
        fill: #f08334;
      }

      .st7 {
        stroke: #3c3c3b;
      }

      .st8 {
        fill: #f18534;
      }

      .st25 {
        fill: #0d4c3b;
      }

      .st26 {
        fill: #5eb780;
      }

      .st9 {
        fill: #a1d5d8;
      }

      .st10 {
        fill: #d6ecec;
      }

      .st11 {
        fill: #fff;
        stroke-width: 1.2px;
      }

      .st12 {
        fill: #2f8d6a;
      }

      .st13 {
        fill: #3c3c3b;
      }

      .st14 {
        fill: #2d9470;
      }

      .st15 {
        fill: #2b7661;
      }

      .st16 {
        fill: #112420;
      }

      .st17 {
        fill: #29755f;
      }

      .st27 {
        fill: #8fc89b;
      }

      .st28 {
        fill: #d1e6cb;
      }

      .st20 {
        fill: #9cc97e;
      }

      .st21 {
        fill: #f7fbf7;
      }

      .st22 {
        fill: #80c9c6;
      }

      .st23 {
        fill: #406664;
      }
    </style>
  </defs>
  <g id="Layer_1" image-rendering="optimizeQuality" shape-rendering="geometricPrecision" text-rendering="geometricPrecision">
    <g>
      <g id="Livello_2">
        <polygon class="st25" points="393.2 356.7 393.2 1057.3 1000 1407.7 1606.8 1057.3 1606.8 356.7 1000 6.3 393.2 356.7"/>
        <line class="st4" x1="393.2" y1="356.7" x2="419.5" y2="371.8"/>
        <line class="st4" x1="1580.5" y1="371.8" x2="1606.8" y2="356.7"/>
        <line class="st4" x1="1000" y1="1377.3" x2="1000" y2="1407.7"/>
      </g>
      <g id="Livello_5">
        <polygon class="st3" points="419.5 1042.1 997.6 705.6 1580.5 1042.1 1000 1377.3 419.5 1042.1"/>
        <polygon class="st15" points="997.6 705.6 1000 36.7 1580.5 371.8 1580.5 1042.1 997.6 705.6"/>
        <polygon class="st5" points="419.5 1042.1 419.5 371.8 1000 36.7 997.6 705.6 419.5 1042.1"/>
        <polygon class="st0" points="1374.7 1162.1 1146.5 1031.9 1351.2 912.6 1580.5 1042.1 1374.7 1162.1"/>
      </g>
      <g id="Livello_22">
        <polygon class="st17" points="868.5 869 678.8 978.6 826.1 1063.2 1013.2 953.9 868.5 869"/>
        <polygon class="st1" points="958.8 1139.6 837 1209.9 906.8 1250 1026.3 1179.2 958.8 1139.6"/>
        <polygon class="st17" points="762.1 1165.1 558.9 1047.7 494.8 1084.7 697 1202.6 762.1 1165.1"/>
        <polygon class="st1" points="1229.4 1151.4 1167.7 1187 1248.2 1233.5 1309.2 1197.5 1229.4 1151.4"/>
        <polygon class="st17" points="1046.4 1256.2 984.7 1291.8 1065.1 1338.3 1126.2 1302.3 1046.4 1256.2"/>
        <polygon class="st17" points="1148.9 881.6 1014.5 952.6 1072.5 985.9 1205 910.4 1148.9 881.6"/>
        <polygon class="st1" points="864.6 785.2 793.1 825.7 868.5 869 936 828.9 864.6 785.2"/>
        <polygon class="st26" points="646.3 710.7 615.1 728.7 615.1 454.3 646.3 438.1 646.3 710.7"/>
        <polygon class="st26" points="699.7 684.7 668.5 702.7 668.5 428.3 699.7 412.1 699.7 684.7"/>
        <polygon class="st26" points="746.5 658.6 715.2 676.6 715.2 402.1 746.5 385.9 746.5 658.6"/>
        <polygon class="st26" points="793.2 633.6 762 651.7 762 377.2 793.2 361 793.2 633.6"/>
        <polygon class="st27" points="653 680.1 627 695.1 627 466.2 653 452.7 653 680.1"/>
        <polygon class="st27" points="702.7 650.5 676.7 665.6 676.7 436.7 702.7 423.1 702.7 650.5"/>
        <polygon class="st27" points="749.6 625.9 723.6 640.9 723.6 412 749.6 398.5 749.6 625.9"/>
        <polygon class="st27" points="799.3 595.4 773.3 610.5 773.3 381.5 799.3 368 799.3 595.4"/>
      </g>
      <g id="Livello_19">
        <ellipse class="st26" cx="1261.5" cy="473.2" rx="165.2" ry="221.1" transform="translate(-31.4 94.1) rotate(-4.2)"/>
        <ellipse class="st27" cx="1260.7" cy="462.2" rx="132.5" ry="177.3" transform="translate(-30.6 94) rotate(-4.2)"/>
        <ellipse class="st28" cx="1260.8" cy="457.4" rx="87.9" ry="117.6" transform="translate(-30.2 94) rotate(-4.2)"/>
      </g>
      <g id="Livello_17">
        <polygon class="st24" points="862.2 783.8 1097.5 921.2 1238.8 844.3 1001.2 690.2 862.2 783.8"/>
        <path class="st24" d="M1337.6,902.5l-27.5,18.4c-11.7,7.8-25.1,12.6-39.1,13.4s-29.1-2-32.9-16.1c-2.5-9.1,1.4-18.9,9-24.5l30.5-22.8,60.1,31.7Z"/>
        <polygon class="st24" points="421.7 1042.1 864.4 783.8 872.8 788.7 429.4 1046.6 421.7 1042.1"/>
        <polygon class="st24" points="1580.5 1042.1 1152.5 795 1226.1 850.5 1569.8 1048.8 1580.5 1042.1"/>
      </g>
      <g id="Livello_10">
        <g>
          <line class="st7" x1="451.7" y1="353.8" x2="451.7" y2="1024.1"/>
          <line class="st7" x1="477.7" y1="338.4" x2="477.7" y2="1008.7"/>
          <line class="st7" x1="501.4" y1="324.3" x2="501.4" y2="994.6"/>
          <line class="st7" x1="527.4" y1="308.8" x2="527.4" y2="979.1"/>
          <line class="st7" x1="548.2" y1="297.5" x2="548.2" y2="967.8"/>
          <line class="st7" x1="574.3" y1="282" x2="574.3" y2="952.4"/>
          <line class="st7" x1="597.9" y1="267.9" x2="597.9" y2="938.2"/>
          <line class="st7" x1="624" y1="252.5" x2="624" y2="922.8"/>
          <line class="st7" x1="650.1" y1="239.3" x2="650.1" y2="909.6"/>
          <line class="st7" x1="676.1" y1="223.9" x2="676.1" y2="894.2"/>
          <line class="st7" x1="699.8" y1="209.7" x2="699.8" y2="880"/>
          <line class="st7" x1="725.8" y1="194.3" x2="725.8" y2="864.6"/>
          <line class="st7" x1="746.6" y1="182.9" x2="746.6" y2="853.2"/>
          <line class="st7" x1="772.7" y1="167.5" x2="772.7" y2="837.8"/>
          <line class="st7" x1="796.3" y1="153.4" x2="796.3" y2="823.7"/>
          <line class="st7" x1="822.4" y1="137.9" x2="822.4" y2="808.2"/>
          <line class="st7" x1="847.6" y1="124.3" x2="847.6" y2="794.6"/>
          <line class="st7" x1="868.5" y1="112.9" x2="868.5" y2="783.2"/>
          <line class="st7" x1="894.5" y1="97.5" x2="894.5" y2="767.8"/>
          <line class="st7" x1="918.2" y1="83.4" x2="918.2" y2="753.7"/>
          <line class="st7" x1="944.2" y1="67.9" x2="944.2" y2="738.2"/>
          <line class="st7" x1="971.5" y1="52.9" x2="971.5" y2="723.2"/>
          <line class="st7" x1="1026.3" y1="51.2" x2="1026.3" y2="721.5"/>
          <line class="st7" x1="1053.4" y1="67" x2="1053.4" y2="737.3"/>
          <line class="st7" x1="1082.2" y1="83.4" x2="1082.2" y2="753.7"/>
          <line class="st7" x1="1109.2" y1="99.2" x2="1109.2" y2="769.5"/>
          <line class="st7" x1="1143.2" y1="119.5" x2="1143.2" y2="789.8"/>
          <line class="st7" x1="1170.2" y1="135.4" x2="1170.2" y2="805.7"/>
          <line class="st7" x1="1199.1" y1="151.7" x2="1199.1" y2="822"/>
          <line class="st7" x1="1226.1" y1="167.6" x2="1226.1" y2="837.9"/>
          <line class="st7" x1="1254.7" y1="182.9" x2="1254.7" y2="853.2"/>
          <line class="st7" x1="1281.7" y1="198.8" x2="1281.7" y2="869.1"/>
          <line class="st7" x1="1310.6" y1="215.1" x2="1310.6" y2="885.5"/>
          <line class="st7" x1="1337.6" y1="231" x2="1337.6" y2="901.3"/>
          <line class="st7" x1="1371.6" y1="251.3" x2="1371.6" y2="921.6"/>
          <line class="st7" x1="1398.6" y1="267.1" x2="1398.6" y2="937.5"/>
          <line class="st7" x1="1427.4" y1="283.5" x2="1427.4" y2="953.8"/>
          <line class="st7" x1="1454.5" y1="299.4" x2="1454.5" y2="969.7"/>
          <line class="st7" x1="1479.2" y1="313.6" x2="1479.2" y2="983.9"/>
          <line class="st7" x1="1508" y1="329.9" x2="1508" y2="1000.2"/>
          <line class="st7" x1="1535" y1="345.8" x2="1535" y2="1016.1"/>
          <line class="st7" x1="1555.8" y1="357.4" x2="1555.8" y2="1027.7"/>
          <line class="st7" x1="419.5" y1="434.7" x2="1000" y2="99.6"/>
          <line class="st7" x1="419.5" y1="513.4" x2="1000" y2="178.2"/>
          <line class="st7" x1="419.5" y1="587.7" x2="1000" y2="252.5"/>
          <line class="st7" x1="419.5" y1="666.4" x2="1000" y2="331.2"/>
          <line class="st7" x1="419.5" y1="740.8" x2="1000" y2="405.6"/>
          <line class="st7" x1="419.5" y1="819.4" x2="1000" y2="484.2"/>
          <line class="st7" x1="419.5" y1="893.8" x2="1000" y2="558.6"/>
          <line class="st7" x1="419.5" y1="974.3" x2="1000" y2="639.2"/>
          <line class="st7" x1="1000" y1="99.6" x2="1580.5" y2="434.7"/>
          <line class="st7" x1="1000" y1="178.2" x2="1580.5" y2="513.4"/>
          <line class="st7" x1="998.8" y1="252.5" x2="1579.3" y2="587.7"/>
          <line class="st7" x1="998.8" y1="331.2" x2="1579.3" y2="666.4"/>
          <line class="st7" x1="1000.6" y1="409.2" x2="1581.1" y2="744.3"/>
          <line class="st7" x1="1000.6" y1="487.8" x2="1581.1" y2="823"/>
          <line class="st7" x1="999.4" y1="562.2" x2="1579.9" y2="897.3"/>
          <line class="st7" x1="998.2" y1="640.2" x2="1578.7" y2="975.4"/>
          <line class="st7" x1="483.8" y1="1004.4" x2="1064.3" y2="1339.6"/>
          <line class="st7" x1="548.2" y1="967.8" x2="1128.7" y2="1302.9"/>
          <line class="st7" x1="604.1" y1="935.5" x2="1184.6" y2="1270.6"/>
          <line class="st7" x1="668.5" y1="898.8" x2="1249" y2="1234"/>
          <line class="st7" x1="728.7" y1="862.3" x2="1309.2" y2="1197.5"/>
          <line class="st7" x1="793.1" y1="825.7" x2="1373.5" y2="1160.8"/>
          <line class="st7" x1="862.2" y1="786.2" x2="1442.7" y2="1121.4"/>
          <line class="st7" x1="926.6" y1="749.6" x2="1507.1" y2="1084.7"/>
          <line class="st7" x1="920" y1="1330" x2="1500.5" y2="994.9"/>
          <line class="st7" x1="842.9" y1="1286.9" x2="1423.4" y2="951.8"/>
          <line class="st7" x1="774.1" y1="1245.8" x2="1354.6" y2="910.6"/>
          <line class="st7" x1="697" y1="1202.6" x2="1277.5" y2="867.5"/>
          <line class="st7" x1="640.8" y1="1169" x2="1221.3" y2="833.8"/>
          <line class="st7" x1="563.7" y1="1125.9" x2="1144.2" y2="790.7"/>
          <line class="st7" x1="494.8" y1="1084.7" x2="1075.3" y2="749.6"/>
        </g>
      </g>
      <g id="Livello_12">
        <path class="st12" d="M1376.2,739.2v11.9s51.3,27.2,118,1.5l1.1-13.4"/>
        <ellipse class="st10" cx="1435.8" cy="739.2" rx="59.6" ry="18.6"/>
        <path class="st12" d="M1416.7,710v20.5s17.1,12.2,37.3,0v-20.5"/>
        <ellipse class="st10" cx="1435.8" cy="710" rx="18.3" ry="7"/>
        <path class="st19" d="M1478.4,610.6s-52.3-11.5-48.3,97.3h11.7s-6.5-87.6,36.6-84.2v-13.2Z"/>
        <path class="st19" d="M1475.4,849.6c-.3,5.5-4,9.9-8.3,9.6s-7.6-4.9-7.3-10.4,15.8-4.8,15.6.8h0Z"/>
        <path class="st12" d="M1458,853.1c1.4,2.9.7,6.1-1.6,7.1s-5.2-.4-6.5-3.3,6.7-6.7,8.1-3.8h0Z"/>
        <path class="st12" d="M1481.6,861.5c-2.2,2.3-5.5,2.8-7.2,1s-1.4-5,.8-7.3,8.7,3.9,6.5,6.2h0Z"/>
        <rect class="st2" x="1324.7" y="1022.9" width="31.5" height="3.8" transform="translate(-342.9 908.6) rotate(-33.5)"/>
        <rect class="st2" x="1338.8" y="1030" width="31.5" height="3.8" transform="translate(-344.4 917.6) rotate(-33.5)"/>
        <rect class="st2" x="1353" y="1036.5" width="31.5" height="3.8" transform="translate(-345.7 926.5) rotate(-33.5)"/>
      </g>
      <g id="Livello_9">
        <path class="st12" d="M1243.3,849.3l.7,18.2c.4,8.7,5.3,16.6,13,20.7l16.3,8.6c9.8,5.2,21.7,4,30.2-2.9l41-27.1,2-25.4"/>
        <path class="st10" d="M1295.3,811.7l51.4,29.7s-7.4,11-20.3,20.4c-22.2,16.2-52.9,15.7-74.4-1.3-8.3-6.6-13.2-15-1.9-23.2,4.3-3.1,45.2-25.6,45.2-25.6h0Z"/>
        <rect class="st11" x="1315.5" y="811.7" width="11.9" height="1.4" transform="translate(406.1 2064.7) rotate(-85.4)"/>
        <rect class="st11" x="1320.5" y="813.4" width="11.9" height="1.4" transform="translate(409 2071.3) rotate(-85.4)"/>
        <rect class="st11" x="1325.6" y="815.4" width="11.9" height="1.4" transform="translate(411.7 2078.2) rotate(-85.4)"/>
      </g>
      <g id="Livello_7">
        <g>
          <path class="st16" d="M1090.5,875.7l-1.1,40,6.8,3.7,6.7-2.5,1.1-27.5h0c-2.1-1.3-5.5-2.6-7.1-4.4-2.8-3.1-5.2-5.3-6.3-9.3h0Z"/>
          <line class="st4" x1="1096.2" y1="919.3" x2="1097.5" y2="885.6"/>
        </g>
        <g>
          <path class="st16" d="M867.1,740.1l-1.1,40,6.8,3.7,6.7-2.5,1.1-27.5h0c-2.1-1.3-5.5-2.6-7.1-4.4-2.8-3.1-5.2-5.3-6.3-9.3h0Z"/>
          <line class="st4" x1="872.8" y1="783.8" x2="874.1" y2="750.1"/>
        </g>
        <g>
          <path class="st16" d="M1217.4,807.9l-1.1,40,6.8,3.7,6.7-2.5,1.1-27.5h0c-2.1-1.3-5.5-2.6-7.1-4.4-2.8-3.1-5.2-5.3-6.3-9.3h0Z"/>
          <line class="st4" x1="1223" y1="851.6" x2="1224.4" y2="817.9"/>
        </g>
        <path class="st22" d="M867,721.4l-.5,13.3c-.3,6.4,3,12.5,8.6,15.8l214.3,127.6c8.8,5.2,19.6,5.6,28.6.9l106.1-54.6c7.4-3.8,12.3-11.1,13-19.3l1.1-12.3c.7-8.4-3.7-16.4-11.1-20.4l-213.3-122c-8.5-4.5-22.7-4.1-31.5-.3l-106.6,58.8c-5,2.2-8.4,7-8.6,12.4h0Z"/>
        <path class="st14" d="M917.7,797.3c-.9-.5-1.4-1.4-1.3-2.4.3-3.6,1.1-12.8,3-24.3l2.9-21.1c0-.8.6-1.5,1.3-1.9l131.2-72.3c.8-.4,1.7-.4,2.5,0l175.1,101s15,6.2,4.8,51.5c0,0,0,.2,0,.3l-1.4,4.3c-.8,2.4-4.3,2.2-4.9-.3l-.4-1.7c-.6-2.9-4.8-2.5-5,.4h0c0,.9-.6,1.7-1.5,2.1l-3.1,1.4c-.5.2-1,.3-1.5.2l-4-.7c-1-.2-2.1.3-2.6,1.2l-4.1,6.7s-.1.2-.2.3l-.5.6c-1.1,1.4-3.3,1.2-4.2-.4l-.6-1.1c-1.2-2.3-4.7-1.5-4.8,1.1v1.6c0,.8-.5,1.6-1.1,2l-5.1,3.5c-.3.2-.5.5-.7.8l-3.1,5.1c-.3.5-.8.9-1.3,1.1h-.3c-1.5.6-3.1-.3-3.4-1.8l-2.6-14.1-1.4,11.3c0,.4-.2.7-.3,1l-1.8,3c-.8,1.3-2.5,1.6-3.7.8l-.6-.4c-1.4-1-3.3-.4-3.9,1.2l-.7,2c-.5,1.6-2.5,2.2-3.9,1.2-1.2-.9-2.8-1.9-4.6-2.8-.9-.5-1.9,6.1-2.2,8.6,0,.6-.4,1.2-.9,1.6l-8,6.7c-.3.3-.8.5-1.2.5l-10,1.7c-.4,0-.7.2-1,.4l-8.7,5.7c-.2.2-.5.3-.8.3l-10.6,2.6c-.3,0-.6.2-.9.4l-3.8,2.7c-1.5,1.1-3.7.2-4-1.7l-4.2-27.6,1.4,27.6c0,.3,0,.6-.1.9l-3.3,10.5c-.5,1.5-2.3,2.2-3.7,1.4l-17.8-10.4c-.9-.5-1.4-1.5-1.2-2.5l4.7-31.9-7.1,27c-.4,1.5-2.1,2.3-3.5,1.6l-14.4-6.8c-.5-.2-.8-.5-1.1-1l-2.9-4.7c-.2-.4-.5-.7-1-.9-1.5-.8-5.3-2.9-5.9-3.2-.5-.2-3.6-3.2-5.9-5.3-1.2-1.1-3-.9-3.9.5-1.3,2.1-3,4.6-3.5,4.5-.8,0-7.1-3.9-9.5-5.3-.6-.4-1-.9-1.1-1.6l-2.2-9.6c-.2-.9-.8-1.6-1.7-1.8l-6.3-2.1-15.4-5.2c-.7-.2-1.2-.7-1.5-1.3-.8-1.8-2.5-5.2-3.5-5.3-1.3,0-4.9.8-5.1-.2s-6.1-8-7.4-8.3-11.8-2.7-12.8-2.8-7.4-1-9-1.3c-1.4-.4-4.3-3.3-4.9-4,0,0-.1-.1-.2-.2l-9.6-7.9c-.5-.4-.8-.9-.9-1.5l-.7-3.6c-.5-2.3-3.5-2.8-4.7-.8l-.5,1c-.7,1.2-2.2,1.6-3.4,1l-16.7-8.9h0Z"/>
        <path class="st22" d="M905.8,696l41.2,25.4c3.6,2.2,7.5,3.4,11.1,1.2l50.5-27.3c4.5-2.8,7.5-7.7,4-11.8-7.8-9-24.3-24.5-42.6-30.6-5.1-1.7-10.7-1.2-15.6,1-13.5,6.2-42.3,20.4-50.2,32.8,0,0-2.9,4.7,1.6,9.3h0Z"/>
        <path class="st23" d="M867.4,718.9l54.9,30.6-3.7,26.9-45.1-27s-10.1-5-6-30.5h0Z"/>
        <path class="st23" d="M956.7,715.6s53.5-27.6,57.3-29.7c0,0,1.5,3.8-3.9,8.4l-51.9,28.3h-2.7c0-.1,5.5-3.4,1.2-7"/>
        <path class="st9" d="M923,749.3l169,90.4c3.5,1.9,7.6,1.9,11.2.2l127-62.4c1-.5,1-1.8,0-2.3l-172.1-98.2c-1.2-.7-2.6-.7-3.8,0"/>
      </g>
      <g id="Livello_14">
        <path class="st23" d="M903.3,690.2s1.4-7.7,9.7-2.4l40.5,24.9s10.1,6.4-1.1,10.9l-46.7-27.6s-2.4-.5-2.5-5.8Z"/>
      </g>
      <g id="Livello_20">
        <g>
          <path class="st8" d="M1024.2,728.5c-5.5-.7-38.6-5.2-45.2-9.6-.1,0-.2-.1-.3-.2-1.4-.5-10.7-3.3-18.5-3.9,0,0-12.4-.5-10.3-5.2,0-.2.1-.4.1-.6l-.8-5.1c0-.1,0-.3-.1-.4-.6-.9-3-5.3,2-7.3.5-.2.8-.6.9-1.1h0c0-1,1.3-1.6,2.2-1.1,4.4,2.2,14.5,7.4,15.3,9,0,0,3,3.1,2.9,5.4,0,.6.6,1.2,1.4,1.2,7,0,33.4.3,42.5,3.7,1,.4,2.1-.3,2.1-1.2,0-6.2-.2-23,1.2-28.1.2-.8,1.2-1.2,2-.9l19,6.6c.5.2.8.5.8,1l2.7,18.6c0,.4,0,.7-.4,1l-18.1,17.9c-.3.3-.8.5-1.3.5h0Z"/>
          <path class="st6" d="M1114,708.9c-1.3,6.9-6.2,17.2-22.7,23.1-.6.2-1.2.5-1.6.9-3.4,2.6-18,13.9-29.9,20.4-3.8,2.1-3.3,6.9.7,8.1,7.5,2.2,19.5,4.8,37.8,7,.6,0,1.1,0,1.7,0,4.7-.8,27.4-3.7,17.9,15.5-.3.7-.5,1.4-.5,2.1.1,2.1.6,6.7,2,8.4.5.6.7,1.2.9,1.9.6,3.5,2.1,12.3.7,17-.4,1.2-1.4,2.3-2.7,2.9h0c-2.9,1.4-6.5.2-7.3-2.5-2.3-7.1-6.8-19.4-11.4-24.8-.3-.3-.5-.7-.7-1-.9-1.9-6.1-9.3-34.6-6.2-.2,0-.3,0-.5,0-4.1,0-55.2.7-58.3-7.6,0-.3-.1-.6-.1-.9.3-9.5-12.9-8.8,48.8-50.5.4-.3.9-.5,1.4-.7l51.8-17.8c3.7-1.3,7.5,1.3,6.8,4.7h0Z"/>
          <path class="st8" d="M979.8,693.7c-4.9,1.5-24.9,5.9-29.9-17.4,0-.3,0-.6,0-.9.6-3,5.2-19.5,30.7-16.7,0,0,9.7.5,15.7-1.1.5-.1.9-.4,1.2-.7,2.8-2.6,18-14.8,50.9-5.7,0,0,21.2,6.6,39.3,13.2,0,0,29.8,9.9,29,33.6,0,0,2,15.3-22,19.5-.5,0-1,.3-1.4.6-4.8,3.8-35.8,28.5-54.7,37-1.9.9-2.2,3.1-.5,4.2,5.2,3.2,13.9,9.5,17.9,18.4.1.3.3.5.6.8,2.9,2.5,21.7,19.1,27.1,28,.6,1,1.8,1.4,3.1,1.1,4.2-1,13.1-2.7,13.4.4,0,0,3.5,4.5-1.3,14.7-.2.5-.3,1-.2,1.5,1,3.8,5.3,20.4,3.3,30.3-.5,2.4-4.4,2.9-5.4.7-1.2-2.6-3-5.9-5.4-9.1,0,0-13.6-19.4-15.4-25.9-.1-.5-.4-.9-.9-1.2l-63.4-46.7s-.1,0-.2-.1c-1.3-.8-14.5-9.2-5.7-20.6,0,0,0,0,.1-.2,1.9-2.2,45.7-52.3,66.2-58.2,0,0-10.6,3-21.5,1.2-1.9-.3-3.8,1.2-3.5,2.9l1.5,9.2c0,.4,0,.8-.1,1.1-.8,2-3.9,8-14.8,7.8h-.2c-1.9.1-26.6,1.9-38.7,3.8,0,0-.1,0-.2,0-1.3.3-16.2,3.3-17.5-3.5,0-.4-.2-.8-.5-1.1-.9-.9-2.8-3-3.8-4.9-.8-1.4.3-3.2,2.1-3.5s3.8-.5,4.3.3h0c-2.6-1.4-.9-5,2.2-4.5,1.5.2,3.2.6,5.3,1.2.2,0,.3,0,.5,0,1.1.1,5.9.7,7.6,2.8.7.8,1.9,1.1,3,.9,6.3-1.7,23.8-6.1,28.3-6.1.4,0,.8.1,1.2.3,1.5.7,6.8,3.1,8.5,2,0,0-9.3,1.8-18-13.5-.2-.4-.5-.6-.9-.9-2.2-1.3-10.4-6.5-13.8-11.3-.7-.9-2-1.3-3.2-1h-.2c-1.4.5-2.3,1.8-2,3l1.5,6.1c.2,1-.2,2-1.2,2.6-.7.4-1.8.8-3.5,1-.9.1-1.7.5-2.1,1.2-1,1.4-2.9,3.9-5.3,4.8-.7.3-1.6.2-2.3,0l-2.8-1.2c-.7-.3-1.4-.3-2.2,0h0Z"/>
        </g>
      </g>
      <g id="Livello_18">
        <path class="st21" d="M1237.8,439.1v47.4s19.5,19.8,39.2,0v-45"/>
        <path class="st20" d="M1240.8,421.1s16.7,13.5,33.8.9c0,0,6.7,8.4,2.2,19.3,0,0-22.4,14.3-38.4-2.1,0,0-3.8-9.8,2.4-18.1Z"/>
        <polyline class="st18" points="1261.2 414.5 1261.5 191.6 1253.6 191.6 1253.2 414.5"/>
        <path class="st18" d="M1253.6,191.6s.2-14,27.3-24.5l7.6,4.4s-20.3,3.9-27,20.1"/>
        <path class="st13" d="M1240.8,421.1s15-18.5,33.8.9c0,0-13.5,12.4-33.8-.9Z"/>
      </g>
    </g>
  </g>
</svg>