<?xml version="1.0" encoding="UTF-8"?>
<svg xmlns="http://www.w3.org/2000/svg" viewBox="0 0 1354.63 1564.19">
  <defs>
    <style>
      .cls-1 {
        fill: #303030;
      }

      .cls-2 {
        fill: #515151;
      }

      .cls-3 {
        fill: #fefffd;
      }

      .cls-4 {
        fill: #7f7f80;
      }

      .cls-5 {
        fill: #b2b2b2;
      }
    </style>
  </defs>
  <g id="Umbria">
    <g>
      <polygon class="cls-1" points="634.58 598.76 634.58 566.06 662.9 549.71 691.23 566.06 691.23 598.76 662.9 615.12 634.58 598.76"/>
      <path d="M662.9,550.29l27.82,16.06v32.13l-27.82,16.06-27.82-16.06v-32.13l27.82-16.06M662.9,549.13l-28.82,16.64v33.28l28.82,16.64,28.82-16.64v-33.28l-28.82-16.64h0Z"/>
    </g>
    <g>
      <polygon class="cls-1" points="605.76 548.84 605.76 516.14 634.08 499.79 662.4 516.14 662.4 548.84 634.08 565.19 605.76 548.84"/>
      <path d="M634.08,500.36l27.82,16.06v32.13l-27.82,16.06-27.82-16.06v-32.13l27.82-16.06M634.08,499.21l-28.82,16.64v33.28l28.82,16.64,28.82-16.64v-33.28l-28.82-16.64h0Z"/>
    </g>
    <g>
      <polygon class="cls-1" points="634.58 498.92 634.58 466.22 662.9 449.87 691.23 466.22 691.23 498.92 662.9 515.27 634.58 498.92"/>
      <path d="M662.9,450.44l27.82,16.06v32.13l-27.82,16.06-27.82-16.06v-32.13l27.82-16.06M662.9,449.29l-28.82,16.64v33.28l28.82,16.64,28.82-16.64v-33.28l-28.82-16.64h0Z"/>
    </g>
    <g>
      <polygon class="cls-1" points="663.4 548.84 663.4 516.14 691.73 499.79 720.05 516.14 720.05 548.84 691.73 565.19 663.4 548.84"/>
      <path d="M691.73,500.36l27.82,16.06v32.13l-27.82,16.06-27.82-16.06v-32.13l27.82-16.06M691.73,499.21l-28.82,16.64v33.28l28.82,16.64,28.82-16.64v-33.28l-28.82-16.64h0Z"/>
    </g>
  </g>
  <g id="Campania">
    <g>
      <polygon class="cls-1" points="1066.91 848.37 1066.91 815.67 1095.23 799.31 1123.55 815.67 1123.55 848.37 1095.23 864.72 1066.91 848.37"/>
      <path d="M1095.23,799.89l27.82,16.06v32.13l-27.82,16.06-27.82-16.06v-32.13l27.82-16.06M1095.23,798.74l-28.82,16.64v33.28l28.82,16.64,28.82-16.64v-33.28l-28.82-16.64h0Z"/>
    </g>
    <g>
      <polygon class="cls-1" points="1038.09 898.29 1038.09 865.59 1066.41 849.23 1094.73 865.59 1094.73 898.29 1066.41 914.64 1038.09 898.29"/>
      <path d="M1066.41,849.81l27.82,16.06v32.13l-27.82,16.06-27.82-16.06v-32.13l27.82-16.06M1066.41,848.66l-28.82,16.64v33.28l28.82,16.64,28.82-16.64v-33.28l-28.82-16.64h0Z"/>
    </g>
    <g>
      <polygon class="cls-1" points="1066.91 948.21 1066.91 915.51 1095.23 899.16 1123.55 915.51 1123.55 948.21 1095.23 964.56 1066.91 948.21"/>
      <path d="M1095.23,899.73l27.82,16.06v32.13l-27.82,16.06-27.82-16.06v-32.13l27.82-16.06M1095.23,898.58l-28.82,16.64v33.28l28.82,16.64,28.82-16.64v-33.28l-28.82-16.64h0Z"/>
    </g>
    <g>
      <polygon class="cls-1" points="1038.09 998.13 1038.09 965.43 1066.41 949.08 1094.73 965.43 1094.73 998.13 1066.41 1014.48 1038.09 998.13"/>
      <path d="M1066.41,949.65l27.82,16.06v32.13l-27.82,16.06-27.82-16.06v-32.13l27.82-16.06M1066.41,948.5l-28.82,16.64v33.28l28.82,16.64,28.82-16.64v-33.28l-28.82-16.64h0Z"/>
    </g>
    <g>
      <polygon class="cls-1" points="980.44 798.45 980.44 765.74 1008.77 749.39 1037.09 765.74 1037.09 798.45 1008.77 814.8 980.44 798.45"/>
      <path d="M1008.77,749.97l27.82,16.06v32.13l-27.82,16.06-27.82-16.06v-32.13l27.82-16.06M1008.77,748.82l-28.82,16.64v33.28l28.82,16.64,28.82-16.64v-33.28l-28.82-16.64h0Z"/>
    </g>
    <g>
      <polygon class="cls-1" points="1009.27 848.37 1009.27 815.67 1037.59 799.31 1065.91 815.67 1065.91 848.37 1037.59 864.72 1009.27 848.37"/>
      <path d="M1037.59,799.89l27.82,16.06v32.13l-27.82,16.06-27.82-16.06v-32.13l27.82-16.06M1037.59,798.74l-28.82,16.64v33.28l28.82,16.64,28.82-16.64v-33.28l-28.82-16.64h0Z"/>
    </g>
    <g>
      <polygon class="cls-1" points="980.44 898.29 980.44 865.59 1008.77 849.23 1037.09 865.59 1037.09 898.29 1008.77 914.64 980.44 898.29"/>
      <path d="M1008.77,849.81l27.82,16.06v32.13l-27.82,16.06-27.82-16.06v-32.13l27.82-16.06M1008.77,848.66l-28.82,16.64v33.28l28.82,16.64,28.82-16.64v-33.28l-28.82-16.64h0Z"/>
    </g>
    <g>
      <polygon class="cls-1" points="1009.27 948.21 1009.27 915.51 1037.59 899.16 1065.91 915.51 1065.91 948.21 1037.59 964.56 1009.27 948.21"/>
      <path d="M1037.59,899.73l27.82,16.06v32.13l-27.82,16.06-27.82-16.06v-32.13l27.82-16.06M1037.59,898.58l-28.82,16.64v33.28l28.82,16.64,28.82-16.64v-33.28l-28.82-16.64h0Z"/>
    </g>
    <g>
      <polygon class="cls-1" points="922.8 798.45 922.8 765.74 951.12 749.39 979.44 765.74 979.44 798.45 951.12 814.8 922.8 798.45"/>
      <path d="M951.12,749.97l27.82,16.06v32.13l-27.82,16.06-27.82-16.06v-32.13l27.82-16.06M951.12,748.82l-28.82,16.64v33.28l28.82,16.64,28.82-16.64v-33.28l-28.82-16.64h0Z"/>
    </g>
    <g>
      <polygon class="cls-1" points="951.62 848.37 951.62 815.67 979.94 799.31 1008.27 815.67 1008.27 848.37 979.94 864.72 951.62 848.37"/>
      <path d="M979.94,799.89l27.82,16.06v32.13l-27.82,16.06-27.82-16.06v-32.13l27.82-16.06M979.94,798.74l-28.82,16.64v33.28l28.82,16.64,28.82-16.64v-33.28l-28.82-16.64h0Z"/>
    </g>
    <g>
      <polygon class="cls-1" points="922.8 898.29 922.8 865.59 951.12 849.23 979.44 865.59 979.44 898.29 951.12 914.64 922.8 898.29"/>
      <path d="M951.12,849.81l27.82,16.06v32.13l-27.82,16.06-27.82-16.06v-32.13l27.82-16.06M951.12,848.66l-28.82,16.64v33.28l28.82,16.64,28.82-16.64v-33.28l-28.82-16.64h0Z"/>
    </g>
    <g>
      <polygon class="cls-1" points="865.16 798.45 865.16 765.74 893.48 749.39 921.8 765.74 921.8 798.45 893.48 814.8 865.16 798.45"/>
      <path d="M893.48,749.97l27.82,16.06v32.13l-27.82,16.06-27.82-16.06v-32.13l27.82-16.06M893.48,748.82l-28.82,16.64v33.28l28.82,16.64,28.82-16.64v-33.28l-28.82-16.64h0Z"/>
    </g>
    <g>
      <polygon class="cls-1" points="893.98 848.37 893.98 815.67 922.3 799.31 950.62 815.67 950.62 848.37 922.3 864.72 893.98 848.37"/>
      <path d="M922.3,799.89l27.82,16.06v32.13l-27.82,16.06-27.82-16.06v-32.13l27.82-16.06M922.3,798.74l-28.82,16.64v33.28l28.82,16.64,28.82-16.64v-33.28l-28.82-16.64h0Z"/>
    </g>
    <g>
      <polygon class="cls-1" points="807.51 798.45 807.51 765.74 835.84 749.39 864.16 765.74 864.16 798.45 835.84 814.8 807.51 798.45"/>
      <path d="M835.84,749.97l27.82,16.06v32.13l-27.82,16.06-27.82-16.06v-32.13l27.82-16.06M835.84,748.82l-28.82,16.64v33.28l28.82,16.64,28.82-16.64v-33.28l-28.82-16.64h0Z"/>
    </g>
    <g>
      <polygon class="cls-1" points="836.34 848.37 836.34 815.67 864.66 799.31 892.98 815.67 892.98 848.37 864.66 864.72 836.34 848.37"/>
      <path d="M864.66,799.89l27.82,16.06v32.13l-27.82,16.06-27.82-16.06v-32.13l27.82-16.06M864.66,798.74l-28.82,16.64v33.28l28.82,16.64,28.82-16.64v-33.28l-28.82-16.64h0Z"/>
    </g>
  </g>
  <g id="Lazio">
    <g>
      <polygon class="cls-4" points="778.69 748.53 778.69 715.82 807.01 699.47 835.34 715.82 835.34 748.53 807.01 764.88 778.69 748.53"/>
      <path d="M807.01,700.05l27.82,16.06v32.13l-27.82,16.06-27.82-16.06v-32.13l27.82-16.06M807.01,698.89l-28.82,16.64v33.28l28.82,16.64,28.82-16.64v-33.28l-28.82-16.64h0Z"/>
    </g>
    <g>
      <polygon class="cls-4" points="749.87 798.45 749.87 765.74 778.19 749.39 806.51 765.74 806.51 798.45 778.19 814.8 749.87 798.45"/>
      <path d="M778.19,749.97l27.82,16.06v32.13l-27.82,16.06-27.82-16.06v-32.13l27.82-16.06M778.19,748.82l-28.82,16.64v33.28l28.82,16.64,28.82-16.64v-33.28l-28.82-16.64h0Z"/>
    </g>
    <g>
      <polygon class="cls-4" points="692.23 798.45 692.23 765.74 720.55 749.39 748.87 765.74 748.87 798.45 720.55 814.8 692.23 798.45"/>
      <path d="M720.55,749.97l27.82,16.06v32.13l-27.82,16.06-27.82-16.06v-32.13l27.82-16.06M720.55,748.82l-28.82,16.64v33.28l28.82,16.64,28.82-16.64v-33.28l-28.82-16.64h0Z"/>
    </g>
    <g>
      <polygon class="cls-4" points="519.29 598.76 519.29 566.06 547.62 549.71 575.94 566.06 575.94 598.76 547.62 615.12 519.29 598.76"/>
      <path d="M547.62,550.29l27.82,16.06v32.13l-27.82,16.06-27.82-16.06v-32.13l27.82-16.06M547.62,549.13l-28.82,16.64v33.28l28.82,16.64,28.82-16.64v-33.28l-28.82-16.64h0Z"/>
    </g>
    <g>
      <polygon class="cls-4" points="576.94 698.61 576.94 665.9 605.26 649.55 633.58 665.9 633.58 698.61 605.26 714.96 576.94 698.61"/>
      <path d="M605.26,650.13l27.82,16.06v32.13l-27.82,16.06-27.82-16.06v-32.13l27.82-16.06M605.26,648.97l-28.82,16.64v33.28l28.82,16.64,28.82-16.64v-33.28l-28.82-16.64h0Z"/>
    </g>
    <g>
      <polygon class="cls-4" points="548.12 648.68 548.12 615.98 576.44 599.63 604.76 615.98 604.76 648.68 576.44 665.04 548.12 648.68"/>
      <path d="M576.44,600.21l27.82,16.06v32.13l-27.82,16.06-27.82-16.06v-32.13l27.82-16.06M576.44,599.05l-28.82,16.64v33.28l28.82,16.64,28.82-16.64v-33.28l-28.82-16.64h0Z"/>
    </g>
    <g>
      <polygon class="cls-4" points="576.94 598.76 576.94 566.06 605.26 549.71 633.58 566.06 633.58 598.76 605.26 615.12 576.94 598.76"/>
      <path d="M605.26,550.29l27.82,16.06v32.13l-27.82,16.06-27.82-16.06v-32.13l27.82-16.06M605.26,549.13l-28.82,16.64v33.28l28.82,16.64,28.82-16.64v-33.28l-28.82-16.64h0Z"/>
    </g>
    <g>
      <polygon class="cls-4" points="634.58 698.61 634.58 665.9 662.9 649.55 691.23 665.9 691.23 698.61 662.9 714.96 634.58 698.61"/>
      <path d="M662.9,650.13l27.82,16.06v32.13l-27.82,16.06-27.82-16.06v-32.13l27.82-16.06M662.9,648.97l-28.82,16.64v33.28l28.82,16.64,28.82-16.64v-33.28l-28.82-16.64h0Z"/>
    </g>
    <g>
      <polygon class="cls-4" points="605.76 648.68 605.76 615.98 634.08 599.63 662.4 615.98 662.4 648.68 634.08 665.04 605.76 648.68"/>
      <path d="M634.08,600.21l27.82,16.06v32.13l-27.82,16.06-27.82-16.06v-32.13l27.82-16.06M634.08,599.05l-28.82,16.64v33.28l28.82,16.64,28.82-16.64v-33.28l-28.82-16.64h0Z"/>
    </g>
    <g>
      <polygon class="cls-4" points="663.4 748.53 663.4 715.82 691.73 699.47 720.05 715.82 720.05 748.53 691.73 764.88 663.4 748.53"/>
      <path d="M691.73,700.05l27.82,16.06v32.13l-27.82,16.06-27.82-16.06v-32.13l27.82-16.06M691.73,698.89l-28.82,16.64v33.28l28.82,16.64,28.82-16.64v-33.28l-28.82-16.64h0Z"/>
    </g>
    <g>
      <polygon class="cls-4" points="692.23 698.61 692.23 665.9 720.55 649.55 748.87 665.9 748.87 698.61 720.55 714.96 692.23 698.61"/>
      <path d="M720.55,650.13l27.82,16.06v32.13l-27.82,16.06-27.82-16.06v-32.13l27.82-16.06M720.55,648.97l-28.82,16.64v33.28l28.82,16.64,28.82-16.64v-33.28l-28.82-16.64h0Z"/>
    </g>
    <g>
      <polygon class="cls-4" points="663.4 648.68 663.4 615.98 691.73 599.63 720.05 615.98 720.05 648.68 691.73 665.04 663.4 648.68"/>
      <path d="M691.73,600.21l27.82,16.06v32.13l-27.82,16.06-27.82-16.06v-32.13l27.82-16.06M691.73,599.05l-28.82,16.64v33.28l28.82,16.64,28.82-16.64v-33.28l-28.82-16.64h0Z"/>
    </g>
    <g>
      <polygon class="cls-4" points="692.23 598.76 692.23 566.06 720.55 549.71 748.87 566.06 748.87 598.76 720.55 615.12 692.23 598.76"/>
      <path d="M720.55,550.29l27.82,16.06v32.13l-27.82,16.06-27.82-16.06v-32.13l27.82-16.06M720.55,549.13l-28.82,16.64v33.28l28.82,16.64,28.82-16.64v-33.28l-28.82-16.64h0Z"/>
    </g>
    <g>
      <polygon class="cls-4" points="721.05 748.53 721.05 715.82 749.37 699.47 777.69 715.82 777.69 748.53 749.37 764.88 721.05 748.53"/>
      <path d="M749.37,700.05l27.82,16.06v32.13l-27.82,16.06-27.82-16.06v-32.13l27.82-16.06M749.37,698.89l-28.82,16.64v33.28l28.82,16.64,28.82-16.64v-33.28l-28.82-16.64h0Z"/>
    </g>
    <g>
      <polygon class="cls-4" points="721.05 648.68 721.05 615.98 749.37 599.63 777.69 615.98 777.69 648.68 749.37 665.04 721.05 648.68"/>
      <path d="M749.37,600.21l27.82,16.06v32.13l-27.82,16.06-27.82-16.06v-32.13l27.82-16.06M749.37,599.05l-28.82,16.64v33.28l28.82,16.64,28.82-16.64v-33.28l-28.82-16.64h0Z"/>
    </g>
    <g>
      <polygon class="cls-4" points="721.05 548.84 721.05 516.14 749.37 499.79 777.69 516.14 777.69 548.84 749.37 565.19 721.05 548.84"/>
      <path d="M749.37,500.36l27.82,16.06v32.13l-27.82,16.06-27.82-16.06v-32.13l27.82-16.06M749.37,499.21l-28.82,16.64v33.28l28.82,16.64,28.82-16.64v-33.28l-28.82-16.64h0Z"/>
    </g>
  </g>
  <g id="Abruzzo">
    <g>
      <polygon class="cls-2" points="865.16 698.61 865.16 665.9 893.48 649.55 921.8 665.9 921.8 698.61 893.48 714.96 865.16 698.61"/>
      <path d="M893.48,650.13l27.82,16.06v32.13l-27.82,16.06-27.82-16.06v-32.13l27.82-16.06M893.48,648.97l-28.82,16.64v33.28l28.82,16.64,28.82-16.64v-33.28l-28.82-16.64h0Z"/>
    </g>
    <g>
      <polygon class="cls-2" points="836.34 648.68 836.34 615.98 864.66 599.63 892.98 615.98 892.98 648.68 864.66 665.04 836.34 648.68"/>
      <path d="M864.66,600.21l27.82,16.06v32.13l-27.82,16.06-27.82-16.06v-32.13l27.82-16.06M864.66,599.05l-28.82,16.64v33.28l28.82,16.64,28.82-16.64v-33.28l-28.82-16.64h0Z"/>
    </g>
    <g>
      <polygon class="cls-2" points="778.69 548.84 778.69 516.14 807.01 499.79 835.34 516.14 835.34 548.84 807.01 565.19 778.69 548.84"/>
      <path d="M807.01,500.36l27.82,16.06v32.13l-27.82,16.06-27.82-16.06v-32.13l27.82-16.06M807.01,499.21l-28.82,16.64v33.28l28.82,16.64,28.82-16.64v-33.28l-28.82-16.64h0Z"/>
    </g>
    <g>
      <polygon class="cls-2" points="807.51 598.76 807.51 566.06 835.84 549.71 864.16 566.06 864.16 598.76 835.84 615.12 807.51 598.76"/>
      <path d="M835.84,550.29l27.82,16.06v32.13l-27.82,16.06-27.82-16.06v-32.13l27.82-16.06M835.84,549.13l-28.82,16.64v33.28l28.82,16.64,28.82-16.64v-33.28l-28.82-16.64h0Z"/>
    </g>
    <g>
      <polygon class="cls-2" points="807.51 698.61 807.51 665.9 835.84 649.55 864.16 665.9 864.16 698.61 835.84 714.96 807.51 698.61"/>
      <path d="M835.84,650.13l27.82,16.06v32.13l-27.82,16.06-27.82-16.06v-32.13l27.82-16.06M835.84,648.97l-28.82,16.64v33.28l28.82,16.64,28.82-16.64v-33.28l-28.82-16.64h0Z"/>
    </g>
    <g>
      <polygon class="cls-2" points="778.69 648.68 778.69 615.98 807.01 599.63 835.34 615.98 835.34 648.68 807.01 665.04 778.69 648.68"/>
      <path d="M807.01,600.21l27.82,16.06v32.13l-27.82,16.06-27.82-16.06v-32.13l27.82-16.06M807.01,599.05l-28.82,16.64v33.28l28.82,16.64,28.82-16.64v-33.28l-28.82-16.64h0Z"/>
    </g>
    <g>
      <polygon class="cls-2" points="749.87 698.61 749.87 665.9 778.19 649.55 806.51 665.9 806.51 698.61 778.19 714.96 749.87 698.61"/>
      <path d="M778.19,650.13l27.82,16.06v32.13l-27.82,16.06-27.82-16.06v-32.13l27.82-16.06M778.19,648.97l-28.82,16.64v33.28l28.82,16.64,28.82-16.64v-33.28l-28.82-16.64h0Z"/>
    </g>
    <g>
      <polygon class="cls-2" points="749.87 598.76 749.87 566.06 778.19 549.71 806.51 566.06 806.51 598.76 778.19 615.12 749.87 598.76"/>
      <path d="M778.19,550.29l27.82,16.06v32.13l-27.82,16.06-27.82-16.06v-32.13l27.82-16.06M778.19,549.13l-28.82,16.64v33.28l28.82,16.64,28.82-16.64v-33.28l-28.82-16.64h0Z"/>
    </g>
  </g>
  <g id="Puglia">
    <g>
      <polygon class="cls-2" points="1038.09 698.61 1038.09 665.9 1066.41 649.55 1094.73 665.9 1094.73 698.61 1066.41 714.96 1038.09 698.61"/>
      <path d="M1066.41,650.13l27.82,16.06v32.13l-27.82,16.06-27.82-16.06v-32.13l27.82-16.06M1066.41,648.97l-28.82,16.64v33.28l28.82,16.64,28.82-16.64v-33.28l-28.82-16.64h0Z"/>
    </g>
    <g>
      <polygon class="cls-2" points="980.44 698.61 980.44 665.9 1008.77 649.55 1037.09 665.9 1037.09 698.61 1008.77 714.96 980.44 698.61"/>
      <path d="M1008.77,650.13l27.82,16.06v32.13l-27.82,16.06-27.82-16.06v-32.13l27.82-16.06M1008.77,648.97l-28.82,16.64v33.28l28.82,16.64,28.82-16.64v-33.28l-28.82-16.64h0Z"/>
    </g>
    <g>
      <polygon class="cls-2" points="1268.66 898.29 1268.66 865.59 1296.99 849.23 1325.31 865.59 1325.31 898.29 1296.99 914.64 1268.66 898.29"/>
      <path d="M1296.99,849.81l27.82,16.06v32.13l-27.82,16.06-27.82-16.06v-32.13l27.82-16.06M1296.99,848.66l-28.82,16.64v33.28l28.82,16.64,28.82-16.64v-33.28l-28.82-16.64h0Z"/>
    </g>
    <g>
      <polygon class="cls-2" points="1297.49 948.21 1297.49 915.51 1325.81 899.16 1354.13 915.51 1354.13 948.21 1325.81 964.56 1297.49 948.21"/>
      <path d="M1325.81,899.73l27.82,16.06v32.13l-27.82,16.06-27.82-16.06v-32.13l27.82-16.06M1325.81,898.58l-28.82,16.64v33.28l28.82,16.64,28.82-16.64v-33.28l-28.82-16.64h0Z"/>
    </g>
    <g>
      <polygon class="cls-2" points="1211.02 898.29 1211.02 865.59 1239.34 849.23 1267.66 865.59 1267.66 898.29 1239.34 914.64 1211.02 898.29"/>
      <path d="M1239.34,849.81l27.82,16.06v32.13l-27.82,16.06-27.82-16.06v-32.13l27.82-16.06M1239.34,848.66l-28.82,16.64v33.28l28.82,16.64,28.82-16.64v-33.28l-28.82-16.64h0Z"/>
    </g>
    <g>
      <polygon class="cls-2" points="1182.2 848.37 1182.2 815.67 1210.52 799.31 1238.84 815.67 1238.84 848.37 1210.52 864.72 1182.2 848.37"/>
      <path d="M1210.52,799.89l27.82,16.06v32.13l-27.82,16.06-27.82-16.06v-32.13l27.82-16.06M1210.52,798.74l-28.82,16.64v33.28l28.82,16.64,28.82-16.64v-33.28l-28.82-16.64h0Z"/>
    </g>
    <g>
      <polygon class="cls-2" points="1095.73 798.45 1095.73 765.74 1124.05 749.39 1152.38 765.74 1152.38 798.45 1124.05 814.8 1095.73 798.45"/>
      <path d="M1124.05,749.97l27.82,16.06v32.13l-27.82,16.06-27.82-16.06v-32.13l27.82-16.06M1124.05,748.82l-28.82,16.64v33.28l28.82,16.64,28.82-16.64v-33.28l-28.82-16.64h0Z"/>
    </g>
    <g>
      <polygon class="cls-2" points="1124.55 848.37 1124.55 815.67 1152.88 799.31 1181.2 815.67 1181.2 848.37 1152.88 864.72 1124.55 848.37"/>
      <path d="M1152.88,799.89l27.82,16.06v32.13l-27.82,16.06-27.82-16.06v-32.13l27.82-16.06M1152.88,798.74l-28.82,16.64v33.28l28.82,16.64,28.82-16.64v-33.28l-28.82-16.64h0Z"/>
    </g>
    <g>
      <polygon class="cls-2" points="1038.09 798.45 1038.09 765.74 1066.41 749.39 1094.73 765.74 1094.73 798.45 1066.41 814.8 1038.09 798.45"/>
      <path d="M1066.41,749.97l27.82,16.06v32.13l-27.82,16.06-27.82-16.06v-32.13l27.82-16.06M1066.41,748.82l-28.82,16.64v33.28l28.82,16.64,28.82-16.64v-33.28l-28.82-16.64h0Z"/>
    </g>
    <g>
      <polygon class="cls-2" points="1009.27 748.53 1009.27 715.82 1037.59 699.47 1065.91 715.82 1065.91 748.53 1037.59 764.88 1009.27 748.53"/>
      <path d="M1037.59,700.05l27.82,16.06v32.13l-27.82,16.06-27.82-16.06v-32.13l27.82-16.06M1037.59,698.89l-28.82,16.64v33.28l28.82,16.64,28.82-16.64v-33.28l-28.82-16.64h0Z"/>
    </g>
    <g>
      <polygon class="cls-2" points="951.62 748.53 951.62 715.82 979.94 699.47 1008.27 715.82 1008.27 748.53 979.94 764.88 951.62 748.53"/>
      <path d="M979.94,700.05l27.82,16.06v32.13l-27.82,16.06-27.82-16.06v-32.13l27.82-16.06M979.94,698.89l-28.82,16.64v33.28l28.82,16.64,28.82-16.64v-33.28l-28.82-16.64h0Z"/>
    </g>
  </g>
  <g id="Molise">
    <g>
      <polygon class="cls-5" points="922.8 698.61 922.8 665.9 951.12 649.55 979.44 665.9 979.44 698.61 951.12 714.96 922.8 698.61"/>
      <path d="M951.12,650.13l27.82,16.06v32.13l-27.82,16.06-27.82-16.06v-32.13l27.82-16.06M951.12,648.97l-28.82,16.64v33.28l28.82,16.64,28.82-16.64v-33.28l-28.82-16.64h0Z"/>
    </g>
    <g>
      <polygon class="cls-5" points="893.98 748.53 893.98 715.82 922.3 699.47 950.62 715.82 950.62 748.53 922.3 764.88 893.98 748.53"/>
      <path d="M922.3,700.05l27.82,16.06v32.13l-27.82,16.06-27.82-16.06v-32.13l27.82-16.06M922.3,698.89l-28.82,16.64v33.28l28.82,16.64,28.82-16.64v-33.28l-28.82-16.64h0Z"/>
    </g>
    <g>
      <polygon class="cls-5" points="836.34 748.53 836.34 715.82 864.66 699.47 892.98 715.82 892.98 748.53 864.66 764.88 836.34 748.53"/>
      <path d="M864.66,700.05l27.82,16.06v32.13l-27.82,16.06-27.82-16.06v-32.13l27.82-16.06M864.66,698.89l-28.82,16.64v33.28l28.82,16.64,28.82-16.64v-33.28l-28.82-16.64h0Z"/>
    </g>
  </g>
  <g id="Calabria">
    <g>
      <polygon class="cls-5" points="1268.66 1097.97 1268.66 1065.27 1296.99 1048.92 1325.31 1065.27 1325.31 1097.97 1296.99 1114.33 1268.66 1097.97"/>
      <path d="M1296.99,1049.5l27.82,16.06v32.13l-27.82,16.06-27.82-16.06v-32.13l27.82-16.06M1296.99,1048.34l-28.82,16.64v33.28l28.82,16.64,28.82-16.64v-33.28l-28.82-16.64h0Z"/>
    </g>
    <g>
      <polygon class="cls-5" points="1211.02 1097.97 1211.02 1065.27 1239.34 1048.92 1267.66 1065.27 1267.66 1097.97 1239.34 1114.33 1211.02 1097.97"/>
      <path d="M1239.34,1049.5l27.82,16.06v32.13l-27.82,16.06-27.82-16.06v-32.13l27.82-16.06M1239.34,1048.34l-28.82,16.64v33.28l28.82,16.64,28.82-16.64v-33.28l-28.82-16.64h0Z"/>
    </g>
    <g>
      <polygon class="cls-5" points="1211.02 1197.82 1211.02 1165.11 1239.34 1148.76 1267.66 1165.11 1267.66 1197.82 1239.34 1214.17 1211.02 1197.82"/>
      <path d="M1239.34,1149.34l27.82,16.06v32.13l-27.82,16.06-27.82-16.06v-32.13l27.82-16.06M1239.34,1148.18l-28.82,16.64v33.28l28.82,16.64,28.82-16.64v-33.28l-28.82-16.64h0Z"/>
    </g>
    <g>
      <polygon class="cls-5" points="1153.38 998.13 1153.38 965.43 1181.7 949.08 1210.02 965.43 1210.02 998.13 1181.7 1014.48 1153.38 998.13"/>
      <path d="M1181.7,949.65l27.82,16.06v32.13l-27.82,16.06-27.82-16.06v-32.13l27.82-16.06M1181.7,948.5l-28.82,16.64v33.28l28.82,16.64,28.82-16.64v-33.28l-28.82-16.64h0Z"/>
    </g>
    <g>
      <polygon class="cls-5" points="1182.2 1048.05 1182.2 1015.35 1210.52 999 1238.84 1015.35 1238.84 1048.05 1210.52 1064.4 1182.2 1048.05"/>
      <path d="M1210.52,999.57l27.82,16.06v32.13l-27.82,16.06-27.82-16.06v-32.13l27.82-16.06M1210.52,998.42l-28.82,16.64v33.28l28.82,16.64,28.82-16.64v-33.28l-28.82-16.64h0Z"/>
    </g>
    <g>
      <polygon class="cls-5" points="1153.38 1097.97 1153.38 1065.27 1181.7 1048.92 1210.02 1065.27 1210.02 1097.97 1181.7 1114.33 1153.38 1097.97"/>
      <path d="M1181.7,1049.5l27.82,16.06v32.13l-27.82,16.06-27.82-16.06v-32.13l27.82-16.06M1181.7,1048.34l-28.82,16.64v33.28l28.82,16.64,28.82-16.64v-33.28l-28.82-16.64h0Z"/>
    </g>
    <g>
      <polygon class="cls-5" points="1182.2 1147.89 1182.2 1115.19 1210.52 1098.84 1238.84 1115.19 1238.84 1147.89 1210.52 1164.25 1182.2 1147.89"/>
      <path d="M1210.52,1099.42l27.82,16.06v32.13l-27.82,16.06-27.82-16.06v-32.13l27.82-16.06M1210.52,1098.26l-28.82,16.64v33.28l28.82,16.64,28.82-16.64v-33.28l-28.82-16.64h0Z"/>
    </g>
    <g>
      <polygon class="cls-5" points="1153.38 1197.82 1153.38 1165.11 1181.7 1148.76 1210.02 1165.11 1210.02 1197.82 1181.7 1214.17 1153.38 1197.82"/>
      <path d="M1181.7,1149.34l27.82,16.06v32.13l-27.82,16.06-27.82-16.06v-32.13l27.82-16.06M1181.7,1148.18l-28.82,16.64v33.28l28.82,16.64,28.82-16.64v-33.28l-28.82-16.64h0Z"/>
    </g>
    <g>
      <polygon class="cls-5" points="1182.2 1247.74 1182.2 1215.03 1210.52 1198.68 1238.84 1215.03 1238.84 1247.74 1210.52 1264.09 1182.2 1247.74"/>
      <path d="M1210.52,1199.26l27.82,16.06v32.13l-27.82,16.06-27.82-16.06v-32.13l27.82-16.06M1210.52,1198.1l-28.82,16.64v33.28l28.82,16.64,28.82-16.64v-33.28l-28.82-16.64h0Z"/>
    </g>
    <g>
      <polygon class="cls-5" points="1153.38 1297.66 1153.38 1264.95 1181.7 1248.6 1210.02 1264.95 1210.02 1297.66 1181.7 1314.01 1153.38 1297.66"/>
      <path d="M1181.7,1249.18l27.82,16.06v32.13l-27.82,16.06-27.82-16.06v-32.13l27.82-16.06M1181.7,1248.03l-28.82,16.64v33.28l28.82,16.64,28.82-16.64v-33.28l-28.82-16.64h0Z"/>
    </g>
    <g>
      <polygon class="cls-5" points="1095.73 998.13 1095.73 965.43 1124.05 949.08 1152.38 965.43 1152.38 998.13 1124.05 1014.48 1095.73 998.13"/>
      <path d="M1124.05,949.65l27.82,16.06v32.13l-27.82,16.06-27.82-16.06v-32.13l27.82-16.06M1124.05,948.5l-28.82,16.64v33.28l28.82,16.64,28.82-16.64v-33.28l-28.82-16.64h0Z"/>
    </g>
    <g>
      <polygon class="cls-5" points="1124.55 1048.05 1124.55 1015.35 1152.88 999 1181.2 1015.35 1181.2 1048.05 1152.88 1064.4 1124.55 1048.05"/>
      <path d="M1152.88,999.57l27.82,16.06v32.13l-27.82,16.06-27.82-16.06v-32.13l27.82-16.06M1152.88,998.42l-28.82,16.64v33.28l28.82,16.64,28.82-16.64v-33.28l-28.82-16.64h0Z"/>
    </g>
  </g>
  <g id="Basilicata">
    <g>
      <polygon class="cls-4" points="1153.38 898.29 1153.38 865.59 1181.7 849.23 1210.02 865.59 1210.02 898.29 1181.7 914.64 1153.38 898.29"/>
      <path d="M1181.7,849.81l27.82,16.06v32.13l-27.82,16.06-27.82-16.06v-32.13l27.82-16.06M1181.7,848.66l-28.82,16.64v33.28l28.82,16.64,28.82-16.64v-33.28l-28.82-16.64h0Z"/>
    </g>
    <g>
      <polygon class="cls-4" points="1095.73 898.29 1095.73 865.59 1124.05 849.23 1152.38 865.59 1152.38 898.29 1124.05 914.64 1095.73 898.29"/>
      <path d="M1124.05,849.81l27.82,16.06v32.13l-27.82,16.06-27.82-16.06v-32.13l27.82-16.06M1124.05,848.66l-28.82,16.64v33.28l28.82,16.64,28.82-16.64v-33.28l-28.82-16.64h0Z"/>
    </g>
    <g>
      <polygon class="cls-4" points="1124.55 948.21 1124.55 915.51 1152.88 899.16 1181.2 915.51 1181.2 948.21 1152.88 964.56 1124.55 948.21"/>
      <path d="M1152.88,899.73l27.82,16.06v32.13l-27.82,16.06-27.82-16.06v-32.13l27.82-16.06M1152.88,898.58l-28.82,16.64v33.28l28.82,16.64,28.82-16.64v-33.28l-28.82-16.64h0Z"/>
    </g>
  </g>
  <g id="Sicilia">
    <g>
      <polygon class="cls-1" points="1066.91 1347.58 1066.91 1314.88 1095.23 1298.52 1123.55 1314.88 1123.55 1347.58 1095.23 1363.93 1066.91 1347.58"/>
      <path d="M1095.23,1299.1l27.82,16.06v32.13l-27.82,16.06-27.82-16.06v-32.13l27.82-16.06M1095.23,1297.95l-28.82,16.64v33.28l28.82,16.64,28.82-16.64v-33.28l-28.82-16.64h0Z"/>
    </g>
    <g>
      <polygon class="cls-1" points="1038.09 1397.5 1038.09 1364.8 1066.41 1348.44 1094.73 1364.8 1094.73 1397.5 1066.41 1413.85 1038.09 1397.5"/>
      <path d="M1066.41,1349.02l27.82,16.06v32.13l-27.82,16.06-27.82-16.06v-32.13l27.82-16.06M1066.41,1347.87l-28.82,16.64v33.28l28.82,16.64,28.82-16.64v-33.28l-28.82-16.64h0Z"/>
    </g>
    <g>
      <polygon class="cls-1" points="1009.27 1347.58 1009.27 1314.88 1037.59 1298.52 1065.91 1314.88 1065.91 1347.58 1037.59 1363.93 1009.27 1347.58"/>
      <path d="M1037.59,1299.1l27.82,16.06v32.13l-27.82,16.06-27.82-16.06v-32.13l27.82-16.06M1037.59,1297.95l-28.82,16.64v33.28l28.82,16.64,28.82-16.64v-33.28l-28.82-16.64h0Z"/>
    </g>
    <g>
      <polygon class="cls-1" points="980.44 1397.5 980.44 1364.8 1008.77 1348.44 1037.09 1364.8 1037.09 1397.5 1008.77 1413.85 980.44 1397.5"/>
      <path d="M1008.77,1349.02l27.82,16.06v32.13l-27.82,16.06-27.82-16.06v-32.13l27.82-16.06M1008.77,1347.87l-28.82,16.64v33.28l28.82,16.64,28.82-16.64v-33.28l-28.82-16.64h0Z"/>
    </g>
    <g>
      <polygon class="cls-1" points="1009.27 1447.42 1009.27 1414.72 1037.59 1398.37 1065.91 1414.72 1065.91 1447.42 1037.59 1463.77 1009.27 1447.42"/>
      <path d="M1037.59,1398.94l27.82,16.06v32.13l-27.82,16.06-27.82-16.06v-32.13l27.82-16.06M1037.59,1397.79l-28.82,16.64v33.28l28.82,16.64,28.82-16.64v-33.28l-28.82-16.64h0Z"/>
    </g>
    <g>
      <polygon class="cls-1" points="980.44 1497.34 980.44 1464.64 1008.77 1448.29 1037.09 1464.64 1037.09 1497.34 1008.77 1513.69 980.44 1497.34"/>
      <path d="M1008.77,1448.86l27.82,16.06v32.13l-27.82,16.06-27.82-16.06v-32.13l27.82-16.06M1008.77,1447.71l-28.82,16.64v33.28l28.82,16.64,28.82-16.64v-33.28l-28.82-16.64h0Z"/>
    </g>
    <g>
      <polygon class="cls-1" points="1009.27 1547.26 1009.27 1514.56 1037.59 1498.21 1065.91 1514.56 1065.91 1547.26 1037.59 1563.61 1009.27 1547.26"/>
      <path d="M1037.59,1498.79l27.82,16.06v32.13l-27.82,16.06-27.82-16.06v-32.13l27.82-16.06M1037.59,1497.63l-28.82,16.64v33.28l28.82,16.64,28.82-16.64v-33.28l-28.82-16.64h0Z"/>
    </g>
    <g>
      <polygon class="cls-1" points="951.62 1347.58 951.62 1314.88 979.94 1298.52 1008.27 1314.88 1008.27 1347.58 979.94 1363.93 951.62 1347.58"/>
      <path d="M979.94,1299.1l27.82,16.06v32.13l-27.82,16.06-27.82-16.06v-32.13l27.82-16.06M979.94,1297.95l-28.82,16.64v33.28l28.82,16.64,28.82-16.64v-33.28l-28.82-16.64h0Z"/>
    </g>
    <g>
      <polygon class="cls-1" points="922.8 1397.5 922.8 1364.8 951.12 1348.44 979.44 1364.8 979.44 1397.5 951.12 1413.85 922.8 1397.5"/>
      <path d="M951.12,1349.02l27.82,16.06v32.13l-27.82,16.06-27.82-16.06v-32.13l27.82-16.06M951.12,1347.87l-28.82,16.64v33.28l28.82,16.64,28.82-16.64v-33.28l-28.82-16.64h0Z"/>
    </g>
    <g>
      <polygon class="cls-1" points="951.62 1447.42 951.62 1414.72 979.94 1398.37 1008.27 1414.72 1008.27 1447.42 979.94 1463.77 951.62 1447.42"/>
      <path d="M979.94,1398.94l27.82,16.06v32.13l-27.82,16.06-27.82-16.06v-32.13l27.82-16.06M979.94,1397.79l-28.82,16.64v33.28l28.82,16.64,28.82-16.64v-33.28l-28.82-16.64h0Z"/>
    </g>
    <g>
      <polygon class="cls-1" points="922.8 1497.34 922.8 1464.64 951.12 1448.29 979.44 1464.64 979.44 1497.34 951.12 1513.69 922.8 1497.34"/>
      <path d="M951.12,1448.86l27.82,16.06v32.13l-27.82,16.06-27.82-16.06v-32.13l27.82-16.06M951.12,1447.71l-28.82,16.64v33.28l28.82,16.64,28.82-16.64v-33.28l-28.82-16.64h0Z"/>
    </g>
    <g>
      <polygon class="cls-1" points="951.62 1547.26 951.62 1514.56 979.94 1498.21 1008.27 1514.56 1008.27 1547.26 979.94 1563.61 951.62 1547.26"/>
      <path d="M979.94,1498.79l27.82,16.06v32.13l-27.82,16.06-27.82-16.06v-32.13l27.82-16.06M979.94,1497.63l-28.82,16.64v33.28l28.82,16.64,28.82-16.64v-33.28l-28.82-16.64h0Z"/>
    </g>
    <g>
      <polygon class="cls-1" points="865.16 1397.5 865.16 1364.8 893.48 1348.44 921.8 1364.8 921.8 1397.5 893.48 1413.85 865.16 1397.5"/>
      <path d="M893.48,1349.02l27.82,16.06v32.13l-27.82,16.06-27.82-16.06v-32.13l27.82-16.06M893.48,1347.87l-28.82,16.64v33.28l28.82,16.64,28.82-16.64v-33.28l-28.82-16.64h0Z"/>
    </g>
    <g>
      <polygon class="cls-1" points="893.98 1447.42 893.98 1414.72 922.3 1398.37 950.62 1414.72 950.62 1447.42 922.3 1463.77 893.98 1447.42"/>
      <path d="M922.3,1398.94l27.82,16.06v32.13l-27.82,16.06-27.82-16.06v-32.13l27.82-16.06M922.3,1397.79l-28.82,16.64v33.28l28.82,16.64,28.82-16.64v-33.28l-28.82-16.64h0Z"/>
    </g>
    <g>
      <polygon class="cls-1" points="865.16 1497.34 865.16 1464.64 893.48 1448.29 921.8 1464.64 921.8 1497.34 893.48 1513.69 865.16 1497.34"/>
      <path d="M893.48,1448.86l27.82,16.06v32.13l-27.82,16.06-27.82-16.06v-32.13l27.82-16.06M893.48,1447.71l-28.82,16.64v33.28l28.82,16.64,28.82-16.64v-33.28l-28.82-16.64h0Z"/>
    </g>
    <g>
      <polygon class="cls-1" points="807.51 1397.5 807.51 1364.8 835.84 1348.44 864.16 1364.8 864.16 1397.5 835.84 1413.85 807.51 1397.5"/>
      <path d="M835.84,1349.02l27.82,16.06v32.13l-27.82,16.06-27.82-16.06v-32.13l27.82-16.06M835.84,1347.87l-28.82,16.64v33.28l28.82,16.64,28.82-16.64v-33.28l-28.82-16.64h0Z"/>
    </g>
    <g>
      <polygon class="cls-1" points="836.34 1447.42 836.34 1414.72 864.66 1398.37 892.98 1414.72 892.98 1447.42 864.66 1463.77 836.34 1447.42"/>
      <path d="M864.66,1398.94l27.82,16.06v32.13l-27.82,16.06-27.82-16.06v-32.13l27.82-16.06M864.66,1397.79l-28.82,16.64v33.28l28.82,16.64,28.82-16.64v-33.28l-28.82-16.64h0Z"/>
    </g>
    <g>
      <polygon class="cls-1" points="778.69 1347.58 778.69 1314.88 807.01 1298.52 835.34 1314.88 835.34 1347.58 807.01 1363.93 778.69 1347.58"/>
      <path d="M807.01,1299.1l27.82,16.06v32.13l-27.82,16.06-27.82-16.06v-32.13l27.82-16.06M807.01,1297.95l-28.82,16.64v33.28l28.82,16.64,28.82-16.64v-33.28l-28.82-16.64h0Z"/>
    </g>
    <g>
      <polygon class="cls-1" points="749.87 1397.5 749.87 1364.8 778.19 1348.44 806.51 1364.8 806.51 1397.5 778.19 1413.85 749.87 1397.5"/>
      <path d="M778.19,1349.02l27.82,16.06v32.13l-27.82,16.06-27.82-16.06v-32.13l27.82-16.06M778.19,1347.87l-28.82,16.64v33.28l28.82,16.64,28.82-16.64v-33.28l-28.82-16.64h0Z"/>
    </g>
    <g>
      <polygon class="cls-1" points="778.69 1447.42 778.69 1414.72 807.01 1398.37 835.34 1414.72 835.34 1447.42 807.01 1463.77 778.69 1447.42"/>
      <path d="M807.01,1398.94l27.82,16.06v32.13l-27.82,16.06-27.82-16.06v-32.13l27.82-16.06M807.01,1397.79l-28.82,16.64v33.28l28.82,16.64,28.82-16.64v-33.28l-28.82-16.64h0Z"/>
    </g>
    <g>
      <polygon class="cls-1" points="721.05 1347.58 721.05 1314.88 749.37 1298.52 777.69 1314.88 777.69 1347.58 749.37 1363.93 721.05 1347.58"/>
      <path d="M749.37,1299.1l27.82,16.06v32.13l-27.82,16.06-27.82-16.06v-32.13l27.82-16.06M749.37,1297.95l-28.82,16.64v33.28l28.82,16.64,28.82-16.64v-33.28l-28.82-16.64h0Z"/>
    </g>
    <g>
      <polygon class="cls-1" points="692.23 1397.5 692.23 1364.8 720.55 1348.44 748.87 1364.8 748.87 1397.5 720.55 1413.85 692.23 1397.5"/>
      <path d="M720.55,1349.02l27.82,16.06v32.13l-27.82,16.06-27.82-16.06v-32.13l27.82-16.06M720.55,1347.87l-28.82,16.64v33.28l28.82,16.64,28.82-16.64v-33.28l-28.82-16.64h0Z"/>
    </g>
    <g>
      <polygon class="cls-1" points="663.4 1347.58 663.4 1314.88 691.73 1298.52 720.05 1314.88 720.05 1347.58 691.73 1363.93 663.4 1347.58"/>
      <path d="M691.73,1299.1l27.82,16.06v32.13l-27.82,16.06-27.82-16.06v-32.13l27.82-16.06M691.73,1297.95l-28.82,16.64v33.28l28.82,16.64,28.82-16.64v-33.28l-28.82-16.64h0Z"/>
    </g>
  </g>
  <g id="Sardegna">
    <g>
      <polygon class="cls-4" points="144.61 1147.89 144.61 1115.19 172.93 1098.84 201.25 1115.19 201.25 1147.89 172.93 1164.25 144.61 1147.89"/>
      <path d="M172.93,1099.42l27.82,16.06v32.13l-27.82,16.06-27.82-16.06v-32.13l27.82-16.06M172.93,1098.26l-28.82,16.64v33.28l28.82,16.64,28.82-16.64v-33.28l-28.82-16.64h0Z"/>
    </g>
    <g>
      <polygon class="cls-4" points="115.79 1097.97 115.79 1065.27 144.11 1048.92 172.43 1065.27 172.43 1097.97 144.11 1114.33 115.79 1097.97"/>
      <path d="M144.11,1049.5l27.82,16.06v32.13l-27.82,16.06-27.82-16.06v-32.13l27.82-16.06M144.11,1048.34l-28.82,16.64v33.28l28.82,16.64,28.82-16.64v-33.28l-28.82-16.64h0Z"/>
    </g>
    <g>
      <polygon class="cls-4" points="144.61 1048.05 144.61 1015.35 172.93 999 201.25 1015.35 201.25 1048.05 172.93 1064.4 144.61 1048.05"/>
      <path d="M172.93,999.57l27.82,16.06v32.13l-27.82,16.06-27.82-16.06v-32.13l27.82-16.06M172.93,998.42l-28.82,16.64v33.28l28.82,16.64,28.82-16.64v-33.28l-28.82-16.64h0Z"/>
    </g>
    <g>
      <polygon class="cls-4" points="115.79 998.13 115.79 965.43 144.11 949.08 172.43 965.43 172.43 998.13 144.11 1014.48 115.79 998.13"/>
      <path d="M144.11,949.65l27.82,16.06v32.13l-27.82,16.06-27.82-16.06v-32.13l27.82-16.06M144.11,948.5l-28.82,16.64v33.28l28.82,16.64,28.82-16.64v-33.28l-28.82-16.64h0Z"/>
    </g>
    <g>
      <polygon class="cls-4" points="202.25 1147.89 202.25 1115.19 230.58 1098.84 258.9 1115.19 258.9 1147.89 230.58 1164.25 202.25 1147.89"/>
      <path d="M230.58,1099.42l27.82,16.06v32.13l-27.82,16.06-27.82-16.06v-32.13l27.82-16.06M230.58,1098.26l-28.82,16.64v33.28l28.82,16.64,28.82-16.64v-33.28l-28.82-16.64h0Z"/>
    </g>
    <g>
      <polygon class="cls-4" points="173.43 1097.97 173.43 1065.27 201.75 1048.92 230.08 1065.27 230.08 1097.97 201.75 1114.33 173.43 1097.97"/>
      <path d="M201.75,1049.5l27.82,16.06v32.13l-27.82,16.06-27.82-16.06v-32.13l27.82-16.06M201.75,1048.34l-28.82,16.64v33.28l28.82,16.64,28.82-16.64v-33.28l-28.82-16.64h0Z"/>
    </g>
    <g>
      <polygon class="cls-4" points="202.25 1048.05 202.25 1015.35 230.58 999 258.9 1015.35 258.9 1048.05 230.58 1064.4 202.25 1048.05"/>
      <path d="M230.58,999.57l27.82,16.06v32.13l-27.82,16.06-27.82-16.06v-32.13l27.82-16.06M230.58,998.42l-28.82,16.64v33.28l28.82,16.64,28.82-16.64v-33.28l-28.82-16.64h0Z"/>
    </g>
    <g>
      <polygon class="cls-4" points="173.43 998.13 173.43 965.43 201.75 949.08 230.08 965.43 230.08 998.13 201.75 1014.48 173.43 998.13"/>
      <path d="M201.75,949.65l27.82,16.06v32.13l-27.82,16.06-27.82-16.06v-32.13l27.82-16.06M201.75,948.5l-28.82,16.64v33.28l28.82,16.64,28.82-16.64v-33.28l-28.82-16.64h0Z"/>
    </g>
    <polygon class="cls-3" points="201.75 915.22 201.75 948.5 230.58 965.14 259.4 948.5 259.4 915.22 230.58 898.58 201.75 915.22"/>
    <g>
      <polygon class="cls-4" points="231.08 1097.97 231.08 1065.27 259.4 1048.92 287.72 1065.27 287.72 1097.97 259.4 1114.33 231.08 1097.97"/>
      <path d="M259.4,1049.5l27.82,16.06v32.13l-27.82,16.06-27.82-16.06v-32.13l27.82-16.06M259.4,1048.34l-28.82,16.64v33.28l28.82,16.64,28.82-16.64v-33.28l-28.82-16.64h0Z"/>
    </g>
    <g>
      <polygon class="cls-4" points="231.08 998.13 231.08 965.43 259.4 949.08 287.72 965.43 287.72 998.13 259.4 1014.48 231.08 998.13"/>
      <path d="M259.4,949.65l27.82,16.06v32.13l-27.82,16.06-27.82-16.06v-32.13l27.82-16.06M259.4,948.5l-28.82,16.64v33.28l28.82,16.64,28.82-16.64v-33.28l-28.82-16.64h0Z"/>
    </g>
  </g>
  <g id="Marche">
    <g>
      <polygon class="cls-5" points="634.58 399.08 634.58 366.38 662.9 350.02 691.23 366.38 691.23 399.08 662.9 415.43 634.58 399.08"/>
      <path d="M662.9,350.6l27.82,16.06v32.13l-27.82,16.06-27.82-16.06v-32.13l27.82-16.06M662.9,349.45l-28.82,16.64v33.28l28.82,16.64,28.82-16.64v-33.28l-28.82-16.64h0Z"/>
    </g>
    <g>
      <polygon class="cls-5" points="692.23 498.92 692.23 466.22 720.55 449.87 748.87 466.22 748.87 498.92 720.55 515.27 692.23 498.92"/>
      <path d="M720.55,450.44l27.82,16.06v32.13l-27.82,16.06-27.82-16.06v-32.13l27.82-16.06M720.55,449.29l-28.82,16.64v33.28l28.82,16.64,28.82-16.64v-33.28l-28.82-16.64h0Z"/>
    </g>
    <g>
      <polygon class="cls-5" points="663.4 449 663.4 416.3 691.73 399.95 720.05 416.3 720.05 449 691.73 465.35 663.4 449"/>
      <path d="M691.73,400.52l27.82,16.06v32.13l-27.82,16.06-27.82-16.06v-32.13l27.82-16.06M691.73,399.37l-28.82,16.64v33.28l28.82,16.64,28.82-16.64v-33.28l-28.82-16.64h0Z"/>
    </g>
    <g>
      <polygon class="cls-5" points="692.23 399.08 692.23 366.38 720.55 350.02 748.87 366.38 748.87 399.08 720.55 415.43 692.23 399.08"/>
      <path d="M720.55,350.6l27.82,16.06v32.13l-27.82,16.06-27.82-16.06v-32.13l27.82-16.06M720.55,349.45l-28.82,16.64v33.28l28.82,16.64,28.82-16.64v-33.28l-28.82-16.64h0Z"/>
    </g>
    <g>
      <polygon class="cls-5" points="749.87 498.92 749.87 466.22 778.19 449.87 806.51 466.22 806.51 498.92 778.19 515.27 749.87 498.92"/>
      <path d="M778.19,450.44l27.82,16.06v32.13l-27.82,16.06-27.82-16.06v-32.13l27.82-16.06M778.19,449.29l-28.82,16.64v33.28l28.82,16.64,28.82-16.64v-33.28l-28.82-16.64h0Z"/>
    </g>
    <g>
      <polygon class="cls-5" points="721.05 449 721.05 416.3 749.37 399.95 777.69 416.3 777.69 449 749.37 465.35 721.05 449"/>
      <path d="M749.37,400.52l27.82,16.06v32.13l-27.82,16.06-27.82-16.06v-32.13l27.82-16.06M749.37,399.37l-28.82,16.64v33.28l28.82,16.64,28.82-16.64v-33.28l-28.82-16.64h0Z"/>
    </g>
  </g>
  <g id="Toscana">
    <g>
      <polygon class="cls-2" points="317.54 349.16 317.54 316.45 345.86 300.1 374.18 316.45 374.18 349.16 345.86 365.51 317.54 349.16"/>
      <path d="M345.86,300.68l27.82,16.06v32.13l-27.82,16.06-27.82-16.06v-32.13l27.82-16.06M345.86,299.53l-28.82,16.64v33.28l28.82,16.64,28.82-16.64v-33.28l-28.82-16.64h0Z"/>
    </g>
    <g>
      <polygon class="cls-2" points="404.01 399.08 404.01 366.38 432.33 350.02 460.65 366.38 460.65 399.08 432.33 415.43 404.01 399.08"/>
      <path d="M432.33,350.6l27.82,16.06v32.13l-27.82,16.06-27.82-16.06v-32.13l27.82-16.06M432.33,349.45l-28.82,16.64v33.28l28.82,16.64,28.82-16.64v-33.28l-28.82-16.64h0Z"/>
    </g>
    <g>
      <polygon class="cls-2" points="375.18 349.16 375.18 316.45 403.51 300.1 431.83 316.45 431.83 349.16 403.51 365.51 375.18 349.16"/>
      <path d="M403.51,300.68l27.82,16.06v32.13l-27.82,16.06-27.82-16.06v-32.13l27.82-16.06M403.51,299.53l-28.82,16.64v33.28l28.82,16.64,28.82-16.64v-33.28l-28.82-16.64h0Z"/>
    </g>
    <g>
      <polygon class="cls-2" points="461.65 498.92 461.65 466.22 489.97 449.87 518.29 466.22 518.29 498.92 489.97 515.27 461.65 498.92"/>
      <path d="M489.97,450.44l27.82,16.06v32.13l-27.82,16.06-27.82-16.06v-32.13l27.82-16.06M489.97,449.29l-28.82,16.64v33.28l28.82,16.64,28.82-16.64v-33.28l-28.82-16.64h0Z"/>
    </g>
    <g>
      <polygon class="cls-2" points="432.83 449 432.83 416.3 461.15 399.95 489.47 416.3 489.47 449 461.15 465.35 432.83 449"/>
      <path d="M461.15,400.52l27.82,16.06v32.13l-27.82,16.06-27.82-16.06v-32.13l27.82-16.06M461.15,399.37l-28.82,16.64v33.28l28.82,16.64,28.82-16.64v-33.28l-28.82-16.64h0Z"/>
    </g>
    <g>
      <polygon class="cls-2" points="461.65 399.08 461.65 366.38 489.97 350.02 518.29 366.38 518.29 399.08 489.97 415.43 461.65 399.08"/>
      <path d="M489.97,350.6l27.82,16.06v32.13l-27.82,16.06-27.82-16.06v-32.13l27.82-16.06M489.97,349.45l-28.82,16.64v33.28l28.82,16.64,28.82-16.64v-33.28l-28.82-16.64h0Z"/>
    </g>
    <g>
      <polygon class="cls-2" points="432.83 349.16 432.83 316.45 461.15 300.1 489.47 316.45 489.47 349.16 461.15 365.51 432.83 349.16"/>
      <path d="M461.15,300.68l27.82,16.06v32.13l-27.82,16.06-27.82-16.06v-32.13l27.82-16.06M461.15,299.53l-28.82,16.64v33.28l28.82,16.64,28.82-16.64v-33.28l-28.82-16.64h0Z"/>
    </g>
    <g>
      <polygon class="cls-2" points="490.47 548.84 490.47 516.14 518.79 499.79 547.12 516.14 547.12 548.84 518.79 565.19 490.47 548.84"/>
      <path d="M518.79,500.36l27.82,16.06v32.13l-27.82,16.06-27.82-16.06v-32.13l27.82-16.06M518.79,499.21l-28.82,16.64v33.28l28.82,16.64,28.82-16.64v-33.28l-28.82-16.64h0Z"/>
    </g>
    <g>
      <polygon class="cls-2" points="519.29 498.92 519.29 466.22 547.62 449.87 575.94 466.22 575.94 498.92 547.62 515.27 519.29 498.92"/>
      <path d="M547.62,450.44l27.82,16.06v32.13l-27.82,16.06-27.82-16.06v-32.13l27.82-16.06M547.62,449.29l-28.82,16.64v33.28l28.82,16.64,28.82-16.64v-33.28l-28.82-16.64h0Z"/>
    </g>
    <g>
      <polygon class="cls-2" points="490.47 449 490.47 416.3 518.79 399.95 547.12 416.3 547.12 449 518.79 465.35 490.47 449"/>
      <path d="M518.79,400.52l27.82,16.06v32.13l-27.82,16.06-27.82-16.06v-32.13l27.82-16.06M518.79,399.37l-28.82,16.64v33.28l28.82,16.64,28.82-16.64v-33.28l-28.82-16.64h0Z"/>
    </g>
    <g>
      <polygon class="cls-2" points="519.29 399.08 519.29 366.38 547.62 350.02 575.94 366.38 575.94 399.08 547.62 415.43 519.29 399.08"/>
      <path d="M547.62,350.6l27.82,16.06v32.13l-27.82,16.06-27.82-16.06v-32.13l27.82-16.06M547.62,349.45l-28.82,16.64v33.28l28.82,16.64,28.82-16.64v-33.28l-28.82-16.64h0Z"/>
    </g>
    <g>
      <polygon class="cls-2" points="548.12 548.84 548.12 516.14 576.44 499.79 604.76 516.14 604.76 548.84 576.44 565.19 548.12 548.84"/>
      <path d="M576.44,500.36l27.82,16.06v32.13l-27.82,16.06-27.82-16.06v-32.13l27.82-16.06M576.44,499.21l-28.82,16.64v33.28l28.82,16.64,28.82-16.64v-33.28l-28.82-16.64h0Z"/>
    </g>
    <g>
      <polygon class="cls-2" points="576.94 498.92 576.94 466.22 605.26 449.87 633.58 466.22 633.58 498.92 605.26 515.27 576.94 498.92"/>
      <path d="M605.26,450.44l27.82,16.06v32.13l-27.82,16.06-27.82-16.06v-32.13l27.82-16.06M605.26,449.29l-28.82,16.64v33.28l28.82,16.64,28.82-16.64v-33.28l-28.82-16.64h0Z"/>
    </g>
    <g>
      <polygon class="cls-2" points="548.12 449 548.12 416.3 576.44 399.95 604.76 416.3 604.76 449 576.44 465.35 548.12 449"/>
      <path d="M576.44,400.52l27.82,16.06v32.13l-27.82,16.06-27.82-16.06v-32.13l27.82-16.06M576.44,399.37l-28.82,16.64v33.28l28.82,16.64,28.82-16.64v-33.28l-28.82-16.64h0Z"/>
    </g>
    <g>
      <polygon class="cls-2" points="576.94 399.08 576.94 366.38 605.26 350.02 633.58 366.38 633.58 399.08 605.26 415.43 576.94 399.08"/>
      <path d="M605.26,350.6l27.82,16.06v32.13l-27.82,16.06-27.82-16.06v-32.13l27.82-16.06M605.26,349.45l-28.82,16.64v33.28l28.82,16.64,28.82-16.64v-33.28l-28.82-16.64h0Z"/>
    </g>
    <g>
      <polygon class="cls-2" points="605.76 449 605.76 416.3 634.08 399.95 662.4 416.3 662.4 449 634.08 465.35 605.76 449"/>
      <path d="M634.08,400.52l27.82,16.06v32.13l-27.82,16.06-27.82-16.06v-32.13l27.82-16.06M634.08,399.37l-28.82,16.64v33.28l28.82,16.64,28.82-16.64v-33.28l-28.82-16.64h0Z"/>
    </g>
  </g>
  <g id="Emilia-Romagna">
    <g>
      <polygon class="cls-4" points="346.36 299.24 346.36 266.53 374.68 250.18 403.01 266.53 403.01 299.24 374.68 315.59 346.36 299.24"/>
      <path d="M374.68,250.76l27.82,16.06v32.13l-27.82,16.06-27.82-16.06v-32.13l27.82-16.06M374.68,249.61l-28.82,16.64v33.28l28.82,16.64,28.82-16.64v-33.28l-28.82-16.64h0Z"/>
    </g>
    <g>
      <polygon class="cls-4" points="404.01 299.24 404.01 266.53 432.33 250.18 460.65 266.53 460.65 299.24 432.33 315.59 404.01 299.24"/>
      <path d="M432.33,250.76l27.82,16.06v32.13l-27.82,16.06-27.82-16.06v-32.13l27.82-16.06M432.33,249.61l-28.82,16.64v33.28l28.82,16.64,28.82-16.64v-33.28l-28.82-16.64h0Z"/>
    </g>
    <g>
      <polygon class="cls-4" points="461.65 299.24 461.65 266.53 489.97 250.18 518.29 266.53 518.29 299.24 489.97 315.59 461.65 299.24"/>
      <path d="M489.97,250.76l27.82,16.06v32.13l-27.82,16.06-27.82-16.06v-32.13l27.82-16.06M489.97,249.61l-28.82,16.64v33.28l28.82,16.64,28.82-16.64v-33.28l-28.82-16.64h0Z"/>
    </g>
    <g>
      <polygon class="cls-4" points="490.47 349.16 490.47 316.45 518.79 300.1 547.12 316.45 547.12 349.16 518.79 365.51 490.47 349.16"/>
      <path d="M518.79,300.68l27.82,16.06v32.13l-27.82,16.06-27.82-16.06v-32.13l27.82-16.06M518.79,299.53l-28.82,16.64v33.28l28.82,16.64,28.82-16.64v-33.28l-28.82-16.64h0Z"/>
    </g>
    <g>
      <polygon class="cls-4" points="519.29 299.24 519.29 266.53 547.62 250.18 575.94 266.53 575.94 299.24 547.62 315.59 519.29 299.24"/>
      <path d="M547.62,250.76l27.82,16.06v32.13l-27.82,16.06-27.82-16.06v-32.13l27.82-16.06M547.62,249.61l-28.82,16.64v33.28l28.82,16.64,28.82-16.64v-33.28l-28.82-16.64h0Z"/>
    </g>
    <g>
      <polygon class="cls-4" points="548.12 349.16 548.12 316.45 576.44 300.1 604.76 316.45 604.76 349.16 576.44 365.51 548.12 349.16"/>
      <path d="M576.44,300.68l27.82,16.06v32.13l-27.82,16.06-27.82-16.06v-32.13l27.82-16.06M576.44,299.53l-28.82,16.64v33.28l28.82,16.64,28.82-16.64v-33.28l-28.82-16.64h0Z"/>
    </g>
    <g>
      <polygon class="cls-4" points="576.94 299.24 576.94 266.53 605.26 250.18 633.58 266.53 633.58 299.24 605.26 315.59 576.94 299.24"/>
      <path d="M605.26,250.76l27.82,16.06v32.13l-27.82,16.06-27.82-16.06v-32.13l27.82-16.06M605.26,249.61l-28.82,16.64v33.28l28.82,16.64,28.82-16.64v-33.28l-28.82-16.64h0Z"/>
    </g>
    <g>
      <polygon class="cls-4" points="605.76 349.16 605.76 316.45 634.08 300.1 662.4 316.45 662.4 349.16 634.08 365.51 605.76 349.16"/>
      <path d="M634.08,300.68l27.82,16.06v32.13l-27.82,16.06-27.82-16.06v-32.13l27.82-16.06M634.08,299.53l-28.82,16.64v33.28l28.82,16.64,28.82-16.64v-33.28l-28.82-16.64h0Z"/>
    </g>
    <g>
      <polygon class="cls-4" points="634.58 299.24 634.58 266.53 662.9 250.18 691.23 266.53 691.23 299.24 662.9 315.59 634.58 299.24"/>
      <path d="M662.9,250.76l27.82,16.06v32.13l-27.82,16.06-27.82-16.06v-32.13l27.82-16.06M662.9,249.61l-28.82,16.64v33.28l28.82,16.64,28.82-16.64v-33.28l-28.82-16.64h0Z"/>
    </g>
    <g>
      <polygon class="cls-4" points="663.4 349.16 663.4 316.45 691.73 300.1 720.05 316.45 720.05 349.16 691.73 365.51 663.4 349.16"/>
      <path d="M691.73,300.68l27.82,16.06v32.13l-27.82,16.06-27.82-16.06v-32.13l27.82-16.06M691.73,299.53l-28.82,16.64v33.28l28.82,16.64,28.82-16.64v-33.28l-28.82-16.64h0Z"/>
    </g>
  </g>
  <g id="Lombardia">
    <g>
      <polygon class="cls-5" points="231.08 99.55 231.08 66.85 259.4 50.5 287.72 66.85 287.72 99.55 259.4 115.91 231.08 99.55"/>
      <path d="M259.4,51.08l27.82,16.06v32.13l-27.82,16.06-27.82-16.06v-32.13l27.82-16.06M259.4,49.92l-28.82,16.64v33.28l28.82,16.64,28.82-16.64v-33.28l-28.82-16.64h0Z"/>
    </g>
    <g>
      <polygon class="cls-5" points="288.72 199.4 288.72 166.69 317.04 150.34 345.36 166.69 345.36 199.4 317.04 215.75 288.72 199.4"/>
      <path d="M317.04,150.92l27.82,16.06v32.13l-27.82,16.06-27.82-16.06v-32.13l27.82-16.06M317.04,149.76l-28.82,16.64v33.28l28.82,16.64,28.82-16.64v-33.28l-28.82-16.64h0Z"/>
    </g>
    <g>
      <polygon class="cls-5" points="259.9 149.47 259.9 116.77 288.22 100.42 316.54 116.77 316.54 149.47 288.22 165.83 259.9 149.47"/>
      <path d="M288.22,101l27.82,16.06v32.13l-27.82,16.06-27.82-16.06v-32.13l27.82-16.06M288.22,99.84l-28.82,16.64v33.28l28.82,16.64,28.82-16.64v-33.28l-28.82-16.64h0Z"/>
    </g>
    <g>
      <polygon class="cls-5" points="288.72 99.55 288.72 66.85 317.04 50.5 345.36 66.85 345.36 99.55 317.04 115.91 288.72 99.55"/>
      <path d="M317.04,51.08l27.82,16.06v32.13l-27.82,16.06-27.82-16.06v-32.13l27.82-16.06M317.04,49.92l-28.82,16.64v33.28l28.82,16.64,28.82-16.64v-33.28l-28.82-16.64h0Z"/>
    </g>
    <g>
      <polygon class="cls-5" points="259.9 49.63 259.9 16.93 288.22 .58 316.54 16.93 316.54 49.63 288.22 65.98 259.9 49.63"/>
      <path d="M288.22,1.15l27.82,16.06v32.13l-27.82,16.06-27.82-16.06V17.22l27.82-16.06M288.22,0l-28.82,16.64v33.28l28.82,16.64,28.82-16.64V16.64L288.22,0h0Z"/>
    </g>
    <g>
      <polygon class="cls-5" points="317.54 249.32 317.54 216.61 345.86 200.26 374.18 216.61 374.18 249.32 345.86 265.67 317.54 249.32"/>
      <path d="M345.86,200.84l27.82,16.06v32.13l-27.82,16.06-27.82-16.06v-32.13l27.82-16.06M345.86,199.68l-28.82,16.64v33.28l28.82,16.64,28.82-16.64v-33.28l-28.82-16.64h0Z"/>
    </g>
    <g>
      <polygon class="cls-5" points="346.36 199.4 346.36 166.69 374.68 150.34 403.01 166.69 403.01 199.4 374.68 215.75 346.36 199.4"/>
      <path d="M374.68,150.92l27.82,16.06v32.13l-27.82,16.06-27.82-16.06v-32.13l27.82-16.06M374.68,149.76l-28.82,16.64v33.28l28.82,16.64,28.82-16.64v-33.28l-28.82-16.64h0Z"/>
    </g>
    <g>
      <polygon class="cls-5" points="317.54 149.47 317.54 116.77 345.86 100.42 374.18 116.77 374.18 149.47 345.86 165.83 317.54 149.47"/>
      <path d="M345.86,101l27.82,16.06v32.13l-27.82,16.06-27.82-16.06v-32.13l27.82-16.06M345.86,99.84l-28.82,16.64v33.28l28.82,16.64,28.82-16.64v-33.28l-28.82-16.64h0Z"/>
    </g>
    <g>
      <polygon class="cls-5" points="346.36 99.55 346.36 66.85 374.68 50.5 403.01 66.85 403.01 99.55 374.68 115.91 346.36 99.55"/>
      <path d="M374.68,51.08l27.82,16.06v32.13l-27.82,16.06-27.82-16.06v-32.13l27.82-16.06M374.68,49.92l-28.82,16.64v33.28l28.82,16.64,28.82-16.64v-33.28l-28.82-16.64h0Z"/>
    </g>
    <g>
      <polygon class="cls-5" points="375.18 249.32 375.18 216.61 403.51 200.26 431.83 216.61 431.83 249.32 403.51 265.67 375.18 249.32"/>
      <path d="M403.51,200.84l27.82,16.06v32.13l-27.82,16.06-27.82-16.06v-32.13l27.82-16.06M403.51,199.68l-28.82,16.64v33.28l28.82,16.64,28.82-16.64v-33.28l-28.82-16.64h0Z"/>
    </g>
    <g>
      <polygon class="cls-5" points="404.01 199.4 404.01 166.69 432.33 150.34 460.65 166.69 460.65 199.4 432.33 215.75 404.01 199.4"/>
      <path d="M432.33,150.92l27.82,16.06v32.13l-27.82,16.06-27.82-16.06v-32.13l27.82-16.06M432.33,149.76l-28.82,16.64v33.28l28.82,16.64,28.82-16.64v-33.28l-28.82-16.64h0Z"/>
    </g>
    <g>
      <polygon class="cls-5" points="375.18 149.47 375.18 116.77 403.51 100.42 431.83 116.77 431.83 149.47 403.51 165.83 375.18 149.47"/>
      <path d="M403.51,101l27.82,16.06v32.13l-27.82,16.06-27.82-16.06v-32.13l27.82-16.06M403.51,99.84l-28.82,16.64v33.28l28.82,16.64,28.82-16.64v-33.28l-28.82-16.64h0Z"/>
    </g>
    <g>
      <polygon class="cls-5" points="404.01 99.55 404.01 66.85 432.33 50.5 460.65 66.85 460.65 99.55 432.33 115.91 404.01 99.55"/>
      <path d="M432.33,51.08l27.82,16.06v32.13l-27.82,16.06-27.82-16.06v-32.13l27.82-16.06M432.33,49.92l-28.82,16.64v33.28l28.82,16.64,28.82-16.64v-33.28l-28.82-16.64h0Z"/>
    </g>
    <g>
      <polygon class="cls-5" points="375.18 49.63 375.18 16.93 403.51 .58 431.83 16.93 431.83 49.63 403.51 65.98 375.18 49.63"/>
      <path d="M403.51,1.15l27.82,16.06v32.13l-27.82,16.06-27.82-16.06V17.22l27.82-16.06M403.51,0l-28.82,16.64v33.28l28.82,16.64,28.82-16.64V16.64L403.51,0h0Z"/>
    </g>
    <g>
      <polygon class="cls-5" points="432.83 249.32 432.83 216.61 461.15 200.26 489.47 216.61 489.47 249.32 461.15 265.67 432.83 249.32"/>
      <path d="M461.15,200.84l27.82,16.06v32.13l-27.82,16.06-27.82-16.06v-32.13l27.82-16.06M461.15,199.68l-28.82,16.64v33.28l28.82,16.64,28.82-16.64v-33.28l-28.82-16.64h0Z"/>
    </g>
    <g>
      <polygon class="cls-5" points="461.65 199.4 461.65 166.69 489.97 150.34 518.29 166.69 518.29 199.4 489.97 215.75 461.65 199.4"/>
      <path d="M489.97,150.92l27.82,16.06v32.13l-27.82,16.06-27.82-16.06v-32.13l27.82-16.06M489.97,149.76l-28.82,16.64v33.28l28.82,16.64,28.82-16.64v-33.28l-28.82-16.64h0Z"/>
    </g>
    <g>
      <polygon class="cls-5" points="432.83 149.47 432.83 116.77 461.15 100.42 489.47 116.77 489.47 149.47 461.15 165.83 432.83 149.47"/>
      <path d="M461.15,101l27.82,16.06v32.13l-27.82,16.06-27.82-16.06v-32.13l27.82-16.06M461.15,99.84l-28.82,16.64v33.28l28.82,16.64,28.82-16.64v-33.28l-28.82-16.64h0Z"/>
    </g>
    <g>
      <polygon class="cls-5" points="490.47 249.32 490.47 216.61 518.79 200.26 547.12 216.61 547.12 249.32 518.79 265.67 490.47 249.32"/>
      <path d="M518.79,200.84l27.82,16.06v32.13l-27.82,16.06-27.82-16.06v-32.13l27.82-16.06M518.79,199.68l-28.82,16.64v33.28l28.82,16.64,28.82-16.64v-33.28l-28.82-16.64h0Z"/>
    </g>
    <g>
      <polygon class="cls-5" points="490.47 149.47 490.47 116.77 518.79 100.42 547.12 116.77 547.12 149.47 518.79 165.83 490.47 149.47"/>
      <path d="M518.79,101l27.82,16.06v32.13l-27.82,16.06-27.82-16.06v-32.13l27.82-16.06M518.79,99.84l-28.82,16.64v33.28l28.82,16.64,28.82-16.64v-33.28l-28.82-16.64h0Z"/>
    </g>
  </g>
  <g id="Trentino-Alto_Adige" data-name="Trentino-Alto Adige">
    <g>
      <polygon class="cls-4" points="461.65 99.55 461.65 66.85 489.97 50.5 518.29 66.85 518.29 99.55 489.97 115.91 461.65 99.55"/>
      <path d="M489.97,51.08l27.82,16.06v32.13l-27.82,16.06-27.82-16.06v-32.13l27.82-16.06M489.97,49.92l-28.82,16.64v33.28l28.82,16.64,28.82-16.64v-33.28l-28.82-16.64h0Z"/>
    </g>
    <g>
      <polygon class="cls-4" points="519.29 99.55 519.29 66.85 547.62 50.5 575.94 66.85 575.94 99.55 547.62 115.91 519.29 99.55"/>
      <path d="M547.62,51.08l27.82,16.06v32.13l-27.82,16.06-27.82-16.06v-32.13l27.82-16.06M547.62,49.92l-28.82,16.64v33.28l28.82,16.64,28.82-16.64v-33.28l-28.82-16.64h0Z"/>
    </g>
  </g>
  <g id="Friuli_Venezia_Giulia" data-name="Friuli Venezia Giulia">
    <g>
      <polygon class="cls-5" points="634.58 99.55 634.58 66.85 662.9 50.5 691.23 66.85 691.23 99.55 662.9 115.91 634.58 99.55"/>
      <path d="M662.9,51.08l27.82,16.06v32.13l-27.82,16.06-27.82-16.06v-32.13l27.82-16.06M662.9,49.92l-28.82,16.64v33.28l28.82,16.64,28.82-16.64v-33.28l-28.82-16.64h0Z"/>
    </g>
    <g>
      <polygon class="cls-5" points="692.23 99.55 692.23 66.85 720.55 50.5 748.87 66.85 748.87 99.55 720.55 115.91 692.23 99.55"/>
      <path d="M720.55,51.08l27.82,16.06v32.13l-27.82,16.06-27.82-16.06v-32.13l27.82-16.06M720.55,49.92l-28.82,16.64v33.28l28.82,16.64,28.82-16.64v-33.28l-28.82-16.64h0Z"/>
    </g>
    <g>
      <polygon class="cls-5" points="663.4 49.63 663.4 16.93 691.73 .58 720.05 16.93 720.05 49.63 691.73 65.98 663.4 49.63"/>
      <path d="M691.73,1.15l27.82,16.06v32.13l-27.82,16.06-27.82-16.06V17.22l27.82-16.06M691.73,0l-28.82,16.64v33.28l28.82,16.64,28.82-16.64V16.64l-28.82-16.64h0Z"/>
    </g>
    <g>
      <polygon class="cls-5" points="721.05 149.47 721.05 116.77 749.37 100.42 777.69 116.77 777.69 149.47 749.37 165.83 721.05 149.47"/>
      <path d="M749.37,101l27.82,16.06v32.13l-27.82,16.06-27.82-16.06v-32.13l27.82-16.06M749.37,99.84l-28.82,16.64v33.28l28.82,16.64,28.82-16.64v-33.28l-28.82-16.64h0Z"/>
    </g>
    <g>
      <polygon class="cls-5" points="721.05 49.63 721.05 16.93 749.37 .58 777.69 16.93 777.69 49.63 749.37 65.98 721.05 49.63"/>
      <path d="M749.37,1.15l27.82,16.06v32.13l-27.82,16.06-27.82-16.06V17.22l27.82-16.06M749.37,0l-28.82,16.64v33.28l28.82,16.64,28.82-16.64V16.64l-28.82-16.64h0Z"/>
    </g>
  </g>
  <g id="Veneto">
    <g>
      <polygon class="cls-1" points="519.29 199.4 519.29 166.69 547.62 150.34 575.94 166.69 575.94 199.4 547.62 215.75 519.29 199.4"/>
      <path d="M547.62,150.92l27.82,16.06v32.13l-27.82,16.06-27.82-16.06v-32.13l27.82-16.06M547.62,149.76l-28.82,16.64v33.28l28.82,16.64,28.82-16.64v-33.28l-28.82-16.64h0Z"/>
    </g>
    <g>
      <polygon class="cls-1" points="548.12 249.32 548.12 216.61 576.44 200.26 604.76 216.61 604.76 249.32 576.44 265.67 548.12 249.32"/>
      <path d="M576.44,200.84l27.82,16.06v32.13l-27.82,16.06-27.82-16.06v-32.13l27.82-16.06M576.44,199.68l-28.82,16.64v33.28l28.82,16.64,28.82-16.64v-33.28l-28.82-16.64h0Z"/>
    </g>
    <g>
      <polygon class="cls-1" points="576.94 199.4 576.94 166.69 605.26 150.34 633.58 166.69 633.58 199.4 605.26 215.75 576.94 199.4"/>
      <path d="M605.26,150.92l27.82,16.06v32.13l-27.82,16.06-27.82-16.06v-32.13l27.82-16.06M605.26,149.76l-28.82,16.64v33.28l28.82,16.64,28.82-16.64v-33.28l-28.82-16.64h0Z"/>
    </g>
    <g>
      <polygon class="cls-1" points="548.12 149.47 548.12 116.77 576.44 100.42 604.76 116.77 604.76 149.47 576.44 165.83 548.12 149.47"/>
      <path d="M576.44,101l27.82,16.06v32.13l-27.82,16.06-27.82-16.06v-32.13l27.82-16.06M576.44,99.84l-28.82,16.64v33.28l28.82,16.64,28.82-16.64v-33.28l-28.82-16.64h0Z"/>
    </g>
    <g>
      <polygon class="cls-1" points="576.94 99.55 576.94 66.85 605.26 50.5 633.58 66.85 633.58 99.55 605.26 115.91 576.94 99.55"/>
      <path d="M605.26,51.08l27.82,16.06v32.13l-27.82,16.06-27.82-16.06v-32.13l27.82-16.06M605.26,49.92l-28.82,16.64v33.28l28.82,16.64,28.82-16.64v-33.28l-28.82-16.64h0Z"/>
    </g>
    <g>
      <polygon class="cls-1" points="605.76 249.32 605.76 216.61 634.08 200.26 662.4 216.61 662.4 249.32 634.08 265.67 605.76 249.32"/>
      <path d="M634.08,200.84l27.82,16.06v32.13l-27.82,16.06-27.82-16.06v-32.13l27.82-16.06M634.08,199.68l-28.82,16.64v33.28l28.82,16.64,28.82-16.64v-33.28l-28.82-16.64h0Z"/>
    </g>
    <g>
      <polygon class="cls-1" points="605.76 149.47 605.76 116.77 634.08 100.42 662.4 116.77 662.4 149.47 634.08 165.83 605.76 149.47"/>
      <path d="M634.08,101l27.82,16.06v32.13l-27.82,16.06-27.82-16.06v-32.13l27.82-16.06M634.08,99.84l-28.82,16.64v33.28l28.82,16.64,28.82-16.64v-33.28l-28.82-16.64h0Z"/>
    </g>
    <g>
      <polygon class="cls-1" points="605.76 49.63 605.76 16.93 634.08 .58 662.4 16.93 662.4 49.63 634.08 65.98 605.76 49.63"/>
      <path d="M634.08,1.15l27.82,16.06v32.13l-27.82,16.06-27.82-16.06V17.22l27.82-16.06M634.08,0l-28.82,16.64v33.28l28.82,16.64,28.82-16.64V16.64l-28.82-16.64h0Z"/>
    </g>
    <g>
      <polygon class="cls-1" points="663.4 149.47 663.4 116.77 691.73 100.42 720.05 116.77 720.05 149.47 691.73 165.83 663.4 149.47"/>
      <path d="M691.73,101l27.82,16.06v32.13l-27.82,16.06-27.82-16.06v-32.13l27.82-16.06M691.73,99.84l-28.82,16.64v33.28l28.82,16.64,28.82-16.64v-33.28l-28.82-16.64h0Z"/>
    </g>
  </g>
  <g id="Liguria">
    <g>
      <polygon class="cls-1" points=".5 299.24 .5 266.53 28.82 250.18 57.14 266.53 57.14 299.24 28.82 315.59 .5 299.24"/>
      <path d="M28.82,250.76l27.82,16.06v32.13l-27.82,16.06-27.82-16.06v-32.13l27.82-16.06M28.82,249.61L0,266.25v33.28l28.82,16.64,28.82-16.64v-33.28l-28.82-16.64h0Z"/>
    </g>
    <g>
      <polygon class="cls-1" points="58.14 299.24 58.14 266.53 86.47 250.18 114.79 266.53 114.79 299.24 86.47 315.59 58.14 299.24"/>
      <path d="M86.47,250.76l27.82,16.06v32.13l-27.82,16.06-27.82-16.06v-32.13l27.82-16.06M86.47,249.61l-28.82,16.64v33.28l28.82,16.64,28.82-16.64v-33.28l-28.82-16.64h0Z"/>
    </g>
    <g>
      <polygon class="cls-1" points="29.32 249.32 29.32 216.61 57.64 200.26 85.97 216.61 85.97 249.32 57.64 265.67 29.32 249.32"/>
      <path d="M57.64,200.84l27.82,16.06v32.13l-27.82,16.06-27.82-16.06v-32.13l27.82-16.06M57.64,199.68l-28.82,16.64v33.28l28.82,16.64,28.82-16.64v-33.28l-28.82-16.64h0Z"/>
    </g>
    <g>
      <polygon class="cls-1" points="86.97 249.32 86.97 216.61 115.29 200.26 143.61 216.61 143.61 249.32 115.29 265.67 86.97 249.32"/>
      <path d="M115.29,200.84l27.82,16.06v32.13l-27.82,16.06-27.82-16.06v-32.13l27.82-16.06M115.29,199.68l-28.82,16.64v33.28l28.82,16.64,28.82-16.64v-33.28l-28.82-16.64h0Z"/>
    </g>
    <g>
      <polygon class="cls-1" points="144.61 249.32 144.61 216.61 172.93 200.26 201.25 216.61 201.25 249.32 172.93 265.67 144.61 249.32"/>
      <path d="M172.93,200.84l27.82,16.06v32.13l-27.82,16.06-27.82-16.06v-32.13l27.82-16.06M172.93,199.68l-28.82,16.64v33.28l28.82,16.64,28.82-16.64v-33.28l-28.82-16.64h0Z"/>
    </g>
    <g>
      <polygon class="cls-1" points="231.08 299.24 231.08 266.53 259.4 250.18 287.72 266.53 287.72 299.24 259.4 315.59 231.08 299.24"/>
      <path d="M259.4,250.76l27.82,16.06v32.13l-27.82,16.06-27.82-16.06v-32.13l27.82-16.06M259.4,249.61l-28.82,16.64v33.28l28.82,16.64,28.82-16.64v-33.28l-28.82-16.64h0Z"/>
    </g>
    <g>
      <polygon class="cls-1" points="202.25 249.32 202.25 216.61 230.58 200.26 258.9 216.61 258.9 249.32 230.58 265.67 202.25 249.32"/>
      <path d="M230.58,200.84l27.82,16.06v32.13l-27.82,16.06-27.82-16.06v-32.13l27.82-16.06M230.58,199.68l-28.82,16.64v33.28l28.82,16.64,28.82-16.64v-33.28l-28.82-16.64h0Z"/>
    </g>
    <g>
      <polygon class="cls-1" points="288.72 299.24 288.72 266.53 317.04 250.18 345.36 266.53 345.36 299.24 317.04 315.59 288.72 299.24"/>
      <path d="M317.04,250.76l27.82,16.06v32.13l-27.82,16.06-27.82-16.06v-32.13l27.82-16.06M317.04,249.61l-28.82,16.64v33.28l28.82,16.64,28.82-16.64v-33.28l-28.82-16.64h0Z"/>
    </g>
  </g>
  <g id="Piemonte">
    <g>
      <polygon class="cls-4" points="58.14 199.4 58.14 166.69 86.47 150.34 114.79 166.69 114.79 199.4 86.47 215.75 58.14 199.4"/>
      <path d="M86.47,150.92l27.82,16.06v32.13l-27.82,16.06-27.82-16.06v-32.13l27.82-16.06M86.47,149.76l-28.82,16.64v33.28l28.82,16.64,28.82-16.64v-33.28l-28.82-16.64h0Z"/>
    </g>
    <g>
      <polygon class="cls-4" points="115.79 199.4 115.79 166.69 144.11 150.34 172.43 166.69 172.43 199.4 144.11 215.75 115.79 199.4"/>
      <path d="M144.11,150.92l27.82,16.06v32.13l-27.82,16.06-27.82-16.06v-32.13l27.82-16.06M144.11,149.76l-28.82,16.64v33.28l28.82,16.64,28.82-16.64v-33.28l-28.82-16.64h0Z"/>
    </g>
    <g>
      <polygon class="cls-4" points="86.97 149.47 86.97 116.77 115.29 100.42 143.61 116.77 143.61 149.47 115.29 165.83 86.97 149.47"/>
      <path d="M115.29,101l27.82,16.06v32.13l-27.82,16.06-27.82-16.06v-32.13l27.82-16.06M115.29,99.84l-28.82,16.64v33.28l28.82,16.64,28.82-16.64v-33.28l-28.82-16.64h0Z"/>
    </g>
    <g>
      <polygon class="cls-4" points="115.79 99.55 115.79 66.85 144.11 50.5 172.43 66.85 172.43 99.55 144.11 115.91 115.79 99.55"/>
      <path d="M144.11,51.08l27.82,16.06v32.13l-27.82,16.06-27.82-16.06v-32.13l27.82-16.06M144.11,49.92l-28.82,16.64v33.28l28.82,16.64,28.82-16.64v-33.28l-28.82-16.64h0Z"/>
    </g>
    <g>
      <polygon class="cls-4" points="173.43 199.4 173.43 166.69 201.75 150.34 230.08 166.69 230.08 199.4 201.75 215.75 173.43 199.4"/>
      <path d="M201.75,150.92l27.82,16.06v32.13l-27.82,16.06-27.82-16.06v-32.13l27.82-16.06M201.75,149.76l-28.82,16.64v33.28l28.82,16.64,28.82-16.64v-33.28l-28.82-16.64h0Z"/>
    </g>
    <g>
      <polygon class="cls-4" points="144.61 149.47 144.61 116.77 172.93 100.42 201.25 116.77 201.25 149.47 172.93 165.83 144.61 149.47"/>
      <path d="M172.93,101l27.82,16.06v32.13l-27.82,16.06-27.82-16.06v-32.13l27.82-16.06M172.93,99.84l-28.82,16.64v33.28l28.82,16.64,28.82-16.64v-33.28l-28.82-16.64h0Z"/>
    </g>
    <g>
      <polygon class="cls-4" points="144.61 49.63 144.61 16.93 172.93 .58 201.25 16.93 201.25 49.63 172.93 65.98 144.61 49.63"/>
      <path d="M172.93,1.15l27.82,16.06v32.13l-27.82,16.06-27.82-16.06V17.22L172.93,1.15M172.93,0l-28.82,16.64v33.28l28.82,16.64,28.82-16.64V16.64L172.93,0h0Z"/>
    </g>
    <g>
      <polygon class="cls-4" points="231.08 199.4 231.08 166.69 259.4 150.34 287.72 166.69 287.72 199.4 259.4 215.75 231.08 199.4"/>
      <path d="M259.4,150.92l27.82,16.06v32.13l-27.82,16.06-27.82-16.06v-32.13l27.82-16.06M259.4,149.76l-28.82,16.64v33.28l28.82,16.64,28.82-16.64v-33.28l-28.82-16.64h0Z"/>
    </g>
    <g>
      <polygon class="cls-4" points="202.25 149.47 202.25 116.77 230.58 100.42 258.9 116.77 258.9 149.47 230.58 165.83 202.25 149.47"/>
      <path d="M230.58,101l27.82,16.06v32.13l-27.82,16.06-27.82-16.06v-32.13l27.82-16.06M230.58,99.84l-28.82,16.64v33.28l28.82,16.64,28.82-16.64v-33.28l-28.82-16.64h0Z"/>
    </g>
    <g>
      <polygon class="cls-4" points="259.9 249.32 259.9 216.61 288.22 200.26 316.54 216.61 316.54 249.32 288.22 265.67 259.9 249.32"/>
      <path d="M288.22,200.84l27.82,16.06v32.13l-27.82,16.06-27.82-16.06v-32.13l27.82-16.06M288.22,199.68l-28.82,16.64v33.28l28.82,16.64,28.82-16.64v-33.28l-28.82-16.64h0Z"/>
    </g>
  </g>
  <g id="Valle_d_Aosta" data-name="Valle d&amp;apos;Aosta">
    <g>
      <polygon class="cls-2" points="58.14 99.55 58.14 66.85 86.47 50.5 114.79 66.85 114.79 99.55 86.47 115.91 58.14 99.55"/>
      <path d="M86.47,51.08l27.82,16.06v32.13l-27.82,16.06-27.82-16.06v-32.13l27.82-16.06M86.47,49.92l-28.82,16.64v33.28l28.82,16.64,28.82-16.64v-33.28l-28.82-16.64h0Z"/>
    </g>
  </g>
</svg>