<?xml version="1.0" encoding="UTF-8"?>
<svg xmlns="http://www.w3.org/2000/svg" viewBox="0 0 512.42 591.26">
  <defs>
    <style>
      .cls-1 {
        stroke-width: .75px;
      }

      .cls-1, .cls-2 {
        stroke: #fff;
        stroke-miterlimit: 10;
      }
    </style>
  </defs>
  <g id="muri">
    <polygon class="cls-1" points=".75 443.34 255.19 295.26 511.67 443.34 256.21 590.83 .75 443.34"/>
    <polygon class="cls-2" points="255.19 295.26 256.21 .87 511.67 148.36 511.67 443.34 255.19 295.26"/>
    <polygon class="cls-2" points=".75 443.34 .75 148.36 256.21 .87 255.19 295.26 .75 443.34"/>
    <polygon class="cls-2" points="413.96 487.46 317.9 432.64 404.07 382.42 500.59 436.94 413.96 487.46"/>
  </g>
  <g id="sbarre">
    <polygon class="cls-2" points="110.14 284.53 99.18 290.86 99.18 194.49 110.14 188.8 110.14 284.53"/>
    <polygon class="cls-2" points="131.07 272.08 120.12 278.41 120.12 182.04 131.07 176.35 131.07 272.08"/>
    <polygon class="cls-2" points="150.79 261.72 139.83 268.04 139.83 171.67 150.79 165.99 150.79 261.72"/>
    <polygon class="cls-2" points="171.73 248.88 160.77 255.21 160.77 158.83 171.73 153.15 171.73 248.88"/>
  </g>
  <g id="doccia">
    <path class="cls-1" d="M414.57,289.42v5.01s21.58,11.46,49.69.63l.48-5.64"/>
    <ellipse class="cls-1" cx="439.66" cy="289.42" rx="25.09" ry="7.85"/>
    <path class="cls-1" d="M431.64,277.11v8.64s7.22,5.14,15.72,0v-8.64"/>
    <ellipse class="cls-1" cx="439.66" cy="277.11" rx="7.71" ry="2.93"/>
    <path class="cls-1" d="M457.63,235.26s-22.03-4.86-20.34,40.97h4.94s-2.72-36.87,15.4-35.43v-5.54Z"/>
    <path class="cls-1" d="M456.34,355.87c-.12,2.33-1.68,4.15-3.49,4.06s-3.18-2.06-3.06-4.39,6.67-2,6.55.33Z"/>
    <path class="cls-1" d="M449.03,357.37c.57,1.22.28,2.56-.67,3.01s-2.17-.18-2.75-1.4,2.84-2.83,3.42-1.62Z"/>
    <path class="cls-1" d="M458.97,360.91c-.93.97-2.3,1.17-3.05.44s-.61-2.1.33-3.07,3.66,1.65,2.72,2.62Z"/>
    <rect class="cls-2" x="392.88" y="428.83" width="13.25" height="1.61" transform="translate(-170.65 291.4) rotate(-33.45)"/>
    <rect class="cls-2" x="398.86" y="431.81" width="13.25" height="1.61" transform="translate(-171.31 295.19) rotate(-33.45)"/>
    <rect class="cls-2" x="404.83" y="434.55" width="13.25" height="1.61" transform="translate(-171.83 298.93) rotate(-33.45)"/>
  </g>
  <g id="bidet">
    <path class="cls-1" d="M358.63,355.77l.31,7.67c.15,3.67,2.24,6.99,5.49,8.71l6.87,3.64c4.11,2.17,9.12,1.69,12.73-1.22l17.26-11.4.86-10.71"/>
    <path class="cls-1" d="M380.52,339.94l21.63,12.52s-3.13,4.63-8.55,8.58c-9.33,6.8-22.25,6.63-31.31-.54-3.5-2.77-5.57-6.32-.78-9.78,1.82-1.31,19.01-10.78,19.01-10.78Z"/>
    <rect class="cls-2" x="391.24" y="337.69" width=".59" height="5.01" transform="translate(28.41 -30.17) rotate(4.58)"/>
    <rect class="cls-2" x="393.35" y="338.43" width=".59" height="5.01" transform="translate(28.47 -30.34) rotate(4.58)"/>
    <rect class="cls-2" x="395.5" y="339.28" width=".59" height="5.01" transform="translate(28.55 -30.51) rotate(4.58)"/>
  </g>
  <g id="letto">
    <g>
      <path class="cls-1" d="M294.32,366.85l-.48,16.84,2.85,1.54,2.81-1.04.48-11.58h0c-.88-.54-2.31-1.09-3-1.84-1.18-1.3-2.2-2.23-2.66-3.92h0Z"/>
      <line class="cls-1" x1="296.69" y1="385.23" x2="297.27" y2="371.05"/>
    </g>
    <g>
      <path class="cls-1" d="M200.26,309.79l-.48,16.84,2.85,1.54,2.81-1.04.48-11.58h0c-.88-.54-2.31-1.09-3-1.84-1.18-1.3-2.2-2.23-2.66-3.92h0Z"/>
      <line class="cls-1" x1="202.63" y1="328.17" x2="203.22" y2="313.99"/>
    </g>
    <g>
      <path class="cls-1" d="M347.73,338.34l-.48,16.84,2.85,1.54,2.81-1.04.48-11.58h0c-.88-.54-2.31-1.09-3-1.84-1.18-1.3-2.2-2.23-2.66-3.92h0Z"/>
      <line class="cls-1" x1="350.1" y1="356.72" x2="350.68" y2="342.54"/>
    </g>
    <path class="cls-1" d="M200.22,301.9l-.23,5.62c-.11,2.71,1.27,5.25,3.6,6.64l90.23,53.7c3.69,2.2,8.25,2.34,12.06.37l44.68-22.99c3.1-1.59,5.16-4.67,5.46-8.14l.45-5.16c.31-3.54-1.54-6.91-4.68-8.57l-89.81-51.36c-3.56-1.88-9.57-1.71-13.27-.13l-44.88,24.77c-2.11.91-3.52,2.94-3.61,5.24Z"/>
    <path class="cls-1" d="M221.58,333.88c-.37-.2-.6-.6-.56-1.02.12-1.52.48-5.4,1.25-10.23l1.2-8.9c.04-.33.25-.63.54-.79l55.24-30.43c.33-.18.72-.18,1.05.01l73.73,42.54s6.32,2.61,2.03,21.66c0,.04-.02.08-.03.11l-.61,1.81c-.34,1.02-1.82.94-2.05-.11l-.15-.7c-.26-1.2-2.01-1.07-2.1.15h0c-.03.39-.27.73-.62.89l-1.29.59c-.2.09-.41.12-.63.08l-1.69-.29c-.43-.07-.87.12-1.09.5l-1.72,2.84s-.05.08-.09.12l-.22.27c-.48.59-1.41.5-1.77-.18l-.24-.46c-.51-.98-1.99-.63-2.01.48v.69c-.02.34-.19.67-.47.86l-2.15,1.48c-.12.09-.23.2-.31.33l-1.29,2.13c-.12.21-.32.36-.54.45l-.12.04c-.62.23-1.3-.16-1.42-.8l-1.11-5.95-.57,4.77c-.02.15-.07.29-.14.41l-.75,1.27c-.32.54-1.04.69-1.54.32l-.25-.18c-.58-.42-1.41-.16-1.64.52l-.28.83c-.23.69-1.06.94-1.64.51-.51-.37-1.16-.79-1.92-1.17-.39-.2-.79,2.56-.93,3.62-.03.27-.17.5-.37.67l-3.38,2.82c-.14.12-.32.2-.5.23l-4.23.71c-.15.02-.28.08-.41.16l-3.65,2.39c-.1.07-.21.12-.33.14l-4.45,1.08c-.14.03-.26.09-.38.17l-1.58,1.15c-.65.47-1.56.09-1.68-.7l-1.76-11.62.59,11.62c0,.13,0,.25-.05.38l-1.41,4.43c-.21.65-.96.94-1.55.6l-7.49-4.36c-.38-.22-.58-.64-.52-1.07l1.97-13.43-2.97,11.35c-.17.65-.88.98-1.49.69l-6.06-2.87c-.19-.09-.35-.23-.45-.41l-1.21-1.98c-.1-.16-.23-.29-.4-.38-.63-.34-2.24-1.21-2.49-1.33-.2-.09-1.53-1.33-2.48-2.22-.49-.46-1.27-.36-1.63.21-.54.87-1.25,1.92-1.48,1.91-.33-.01-2.99-1.63-3.99-2.25-.24-.15-.41-.39-.48-.67l-.92-4.04c-.08-.36-.35-.66-.7-.77l-2.64-.89-6.5-2.17c-.28-.09-.51-.3-.63-.56-.34-.74-1.06-2.21-1.47-2.23-.54-.02-2.05.32-2.16-.09s-2.57-3.36-3.11-3.51-4.96-1.15-5.37-1.17-3.1-.4-3.77-.56c-.6-.15-1.82-1.41-2.06-1.67-.03-.03-.06-.06-.1-.09l-4.06-3.32c-.19-.16-.32-.38-.37-.62l-.29-1.52c-.19-.97-1.48-1.19-1.97-.33l-.23.4c-.29.5-.92.68-1.42.41l-7.05-3.76Z"/>
    <path class="cls-1" d="M216.57,291.23l17.36,10.7c1.51.93,3.14,1.42,4.66.5l21.26-11.49c1.91-1.16,3.14-3.26,1.68-4.95-3.28-3.8-10.23-10.33-17.95-12.89-2.15-.71-4.49-.52-6.55.42-5.68,2.6-17.81,8.6-21.12,13.8,0,0-1.22,1.97.67,3.92Z"/>
    <path class="cls-1" d="M200.37,300.85l23.1,12.88-1.56,11.34-18.99-11.36s-4.24-2.09-2.54-12.86Z"/>
    <path class="cls-1" d="M237.97,299.48s22.52-11.61,24.11-12.5c0,0,.63,1.59-1.63,3.53l-21.87,11.91-1.13-.05s2.3-1.37.52-2.89"/>
    <path class="cls-1" d="M223.78,313.64l71.16,38.07c1.46.78,3.21.81,4.7.08l53.46-26.28c.4-.2.41-.75.03-.97l-72.44-41.35c-.5-.28-1.1-.29-1.61-.02"/>
    <g id="Livello_14" data-name="Livello 14">
      <path class="cls-1" d="M215.52,288.78s.58-3.26,4.1-1l17.05,10.47s4.24,2.71-.45,4.6l-19.64-11.63s-1-.19-1.06-2.44Z"/>
    </g>
  </g>
  <g id="cristiano">
    <g>
      <path class="cls-1" d="M266.38,304.91c-2.33-.3-16.23-2.17-19.01-4.05-.05-.03-.09-.05-.14-.07-.6-.19-4.52-1.39-7.79-1.66,0,0-5.23-.19-4.34-2.18.04-.09.06-.18.05-.27l-.32-2.16c0-.06-.03-.12-.06-.17-.25-.39-1.26-2.23.85-3.08.21-.09.35-.27.36-.47h0c.02-.4.53-.66.92-.46,1.87.93,6.1,3.1,6.45,3.8,0,0,1.26,1.29,1.22,2.28-.01.27.26.49.57.49,2.96,0,14.06.13,17.9,1.57.41.15.88-.12.87-.51-.04-2.6-.1-9.7.5-11.85.09-.32.49-.5.83-.38l7.99,2.79c.19.07.32.22.35.4l1.14,7.83c.02.15-.03.31-.15.43l-7.63,7.55c-.14.14-.35.21-.56.19Z"/>
      <path class="cls-1" d="M304.2,296.65c-.55,2.91-2.6,7.24-9.57,9.71-.25.09-.49.21-.69.37-1.42,1.11-7.57,5.86-12.6,8.6-1.59.87-1.41,2.9.3,3.4,3.14.91,8.21,2.04,15.91,2.93.24.03.48.02.72-.02,1.96-.33,11.53-1.57,7.52,6.53-.14.29-.21.59-.19.9.05.9.24,2.84.84,3.55.2.24.3.52.36.81.27,1.46.87,5.17.28,7.16-.15.52-.58.96-1.13,1.22h0c-1.23.59-2.72.08-3.09-1.05-.97-2.97-2.85-8.17-4.79-10.43-.12-.14-.23-.28-.3-.44-.37-.8-2.58-3.91-14.56-2.62-.07,0-.14.01-.22.01-1.71.03-23.23.28-24.53-3.21-.04-.12-.06-.24-.06-.36.11-4.02-5.41-3.71,20.54-21.25.18-.12.37-.22.58-.29l21.81-7.49c1.57-.54,3.15.55,2.88,1.98Z"/>
      <path class="cls-1" d="M247.71,290.26c-2.08.63-10.48,2.5-12.57-7.34-.03-.12-.03-.25,0-.37.26-1.26,2.2-8.21,12.94-7.05,0,0,4.07.22,6.59-.47.2-.05.37-.15.51-.29,1.16-1.08,7.57-6.21,21.41-2.41,0,0,8.93,2.79,16.56,5.56,0,0,12.53,4.18,12.21,14.13,0,0,.86,6.45-9.27,8.21-.23.04-.44.13-.61.27-2,1.6-15.06,11.98-23.01,15.57-.81.37-.93,1.32-.22,1.76,2.19,1.34,5.84,4.01,7.53,7.75.05.12.13.23.24.32,1.21,1.06,9.12,8.03,11.42,11.8.24.4.77.59,1.3.47,1.78-.41,5.53-1.12,5.65.17,0,0,1.49,1.9-.55,6.19-.1.21-.13.43-.07.64.43,1.58,2.25,8.6,1.4,12.75-.21,1.02-1.84,1.23-2.27.29-.51-1.1-1.25-2.48-2.26-3.85,0,0-5.74-8.15-6.49-10.9-.05-.2-.18-.38-.36-.51l-26.7-19.68s-.05-.04-.08-.05c-.53-.32-6.11-3.86-2.39-8.67.02-.02.04-.04.06-.07.81-.92,19.24-22,27.89-24.49,0,0-4.48,1.26-9.07.49-.82-.14-1.59.49-1.47,1.21l.63,3.86c.03.16.01.32-.05.47-.32.83-1.66,3.36-6.25,3.27-.03,0-.07,0-.1,0-.8.06-11.18.81-16.28,1.59-.03,0-.06,0-.09.02-.56.12-6.81,1.41-7.38-1.49-.03-.17-.1-.33-.23-.46-.37-.38-1.17-1.25-1.62-2.06-.33-.6.12-1.33.89-1.48s1.61-.23,1.79.14h0c-1.11-.58-.38-2.1.91-1.91.62.09,1.35.25,2.24.5.07.02.14.03.21.04.47.05,2.47.3,3.22,1.19.29.34.78.48,1.26.36,2.67-.7,10.02-2.58,11.92-2.55.18,0,.34.05.5.12.62.29,2.86,1.31,3.58.86,0,0-3.92.75-7.56-5.67-.08-.15-.21-.27-.36-.36-.93-.56-4.39-2.75-5.79-4.74-.28-.39-.83-.56-1.35-.41l-.09.03c-.6.18-.97.72-.84,1.24l.65,2.58c.1.4-.08.85-.49,1.09-.3.18-.76.34-1.46.44-.37.05-.7.23-.89.51-.41.6-1.23,1.63-2.25,2-.31.11-.66.09-.95-.03l-1.19-.52c-.28-.12-.61-.14-.92-.04Z"/>
    </g>
  </g>
  <g id="lampada">
    <path class="cls-1" d="M356.32,183.08v19.94s8.22,8.33,16.5,0v-18.94"/>
    <path class="cls-1" d="M357.57,175.47s7.05,5.67,14.22.39c0,0,2.83,3.55.94,8.11,0,0-9.44,6-16.16-.89,0,0-1.61-4.11,1-7.61Z"/>
    <polyline class="cls-1" points="366.15 172.7 366.31 64.44 362.98 62.51 362.82 172.7"/>
    <path class="cls-1" d="M357.57,175.47s6.31-7.78,14.22.39c0,0-5.69,5.2-14.22-.39Z"/>
  </g>
</svg>