<?xml version="1.0" encoding="UTF-8"?>
<svg id="Livello_2" xmlns="http://www.w3.org/2000/svg" version="1.1" viewBox="0 0 2000 1414">
  <!-- Generator: Adobe Illustrator 29.1.0, SVG Export Plug-In . SVG Version: 2.1.0 Build 142)  -->
  <defs>
    <style>
      .st0 {
        fill: none;
        stroke: #fff;
        stroke-miterlimit: 10;
        stroke-width: .8px;
      }
    </style>
  </defs>
  <g id="muri">
    <path class="st0" d="M1606.8,1057.3l-606.8,350.3-606.8-350.3,474.6-276.2,4.9,2.7,6.7-2.5.3-7.1,17.8-10.3,15.7,9.3,5.3,3.2h0c-1.2,8.8-1.9,15.6-2.1,18.5,0,1,.5,1.9,1.3,2.4h0l16.7,8.9c1.2.6,2.7.2,3.4-1l.5-1c1.2-2,4.2-1.5,4.7.8l.7,3.6c.1.6.4,1.1.9,1.5l9.6,7.9c0,0,.2.1.2.2.6.6,3.5,3.6,4.9,4,1.6.4,8,1.3,9,1.3,1,0,11.5,2.4,12.8,2.8,1.3.4,7.1,7.4,7.4,8.3.3,1,3.8.2,5.1.2,1,0,2.7,3.5,3.5,5.3.3.6.8,1.1,1.5,1.3l15.4,5.2,6.3,2.1c.8.3,1.5,1,1.7,1.8l2.2,9.6c.2.7.6,1.2,1.1,1.6,2.4,1.5,8.7,5.3,9.5,5.3.6,0,2.2-2.5,3.5-4.5.9-1.4,2.7-1.6,3.9-.5,2.3,2.1,5.4,5.1,5.9,5.3.6.3,4.4,2.4,5.9,3.2.4.2.7.5,1,.9l2.9,4.7c.2.4.6.8,1.1,1l14.4,6.8c1.4.7,3.1,0,3.5-1.6l2.7-10.2,1.8,1-2.1,14.1c-.1,1,.3,2,1.2,2.5l9.6,5.6-.6,20.2,6.8,3.7,6.7-2.5,1-24.3h0s0,0,0,0l1.4-4.2c.1-.3.1-.6.1-.9l-.3-5.2c.7,0,1.5,0,2.2-.1l.8,5.3c.3,1.9,2.4,2.8,4,1.7l3.8-2.7c.3-.2.6-.3.9-.4l10.6-2.6c.3,0,.5-.2.8-.3l8.7-5.7c.3-.2.6-.3,1-.4l10-1.7c.4,0,.9-.3,1.2-.5l8-6.7c.5-.4.8-1,.9-1.6.3-2.5,1.3-9.1,2.2-8.6,1.8.9,3.3,1.9,4.6,2.8,1.4,1,3.3.4,3.9-1.2l.7-2c.5-1.6,2.5-2.2,3.9-1.2l.6.4c1.2.9,2.9.5,3.7-.8l1.8-3c.2-.3.3-.6.3-1l.6-4.8,1.8-.9,1.6,8.6c.3,1.5,1.9,2.4,3.4,1.9h.3c.5-.3,1-.7,1.3-1.2l3.1-5.1c.2-.3.5-.6.7-.8l5.1-3.5c.7-.5,1.1-1.2,1.1-2v-1.6c0-2.6,3.6-3.5,4.8-1.1l.6,1.1c.9,1.6,3.1,1.8,4.2.4l.5-.6c0,0,.2-.3.2-.3l4.1-6.7c.5-.9,1.6-1.4,2.6-1.2l1.3.2-.4,13.9,6.8,3.7,6.7-2.5.4-9.3,13.4,7.7c0,.6,0,1.2.2,1.8h-.3s.7,18.2.7,18.2c.4,8.7,5.3,16.6,13,20.7l16.3,8.6c9.8,5.2,21.7,4,30.2-2.9l9.5-6.2,266.9,154.1-228.7-129.2-204.7,119.3,228.2,130.2,205.8-120,26.3,15.2Z"/>
    <polygon class="st0" points="897.5 763.8 913.2 773.2 897.5 763.9 897.5 763.8"/>
    <rect class="st0" x="918.5" y="776.4" width="0" height="0"/>
    <path class="st0" d="M922.2,749.5l-2.9,21.1c-.2,1.2-.4,2.4-.5,3.5l3.4-24.6Z"/>
    <polygon class="st0" points="1083.8 855.4 1081.2 873.2 1079.4 872.2 1083.8 855.4"/>
    <path class="st0" d="M1107.3,882.1c-.7,0-1.5.1-2.2.1l-1.1-22.4,3.4,22.3Z"/>
    <path class="st0" d="M998.9,706.4c-.4,0-.7.2-1,.3l.7-.4h.3Z"/>
    <polygon class="st0" points="1181.9 846.1 1180.1 847 1180.8 840.5 1181.9 846.1"/>
    <path class="st0" d="M1230.1,839.8l-.4,9.3-6.7,2.5-6.8-3.7.4-13.9,2.8.5c.5,0,.9,0,1.3-.1l3,1.7,6.4,3.7Z"/>
    <path class="st0" d="M1246.2,849.1l-2.5.2c-.1-.6-.2-1.2-.2-1.8l2.7,1.6Z"/>
    <polygon class="st0" points="1354.6 1017.8 1328.3 1035.1 1326.2 1032 1352.5 1014.6 1354.6 1017.8"/>
    <polygon class="st0" points="1368.8 1024.9 1342.5 1042.2 1340.4 1039 1366.6 1021.7 1368.8 1024.9"/>
    <polygon class="st0" points="1382.9 1031.4 1356.7 1048.7 1354.6 1045.5 1380.8 1028.2 1382.9 1031.4"/>
    <path class="st0" d="M1230.5,830.6h0c0,0-.4,9.2-.4,9.2l-6.4-3.7-3-1.7c0,0,.1,0,.2,0l2.9-1.3h.2c.8-.5,1.4-1.3,1.5-2.2.2-2.9,4.4-3.2,5-.4h0Z"/>
    <path class="st0" d="M998.6,706.2h.3c1-.1,2.2-.4,3.5-.8h0c4.7-1.2,10.8-2.7,15.8-3.7,0-1.7,0-3.3,0-5,0-.5,0-.9,0-1.4l-19.7,10.9Z"/>
    <path class="st0" d="M1264.1,426.7c-.4,0-.7.1-1.1.2-.5,0-.9.1-1.4.2-4.1.4-7.9-.2-11-1.1-1-.3-1.9-.6-2.8-1-2.6-1.1-4.6-2.3-5.8-3.1-.4-.3-.7-.5-.9-.6,0,0-.2-.1-.2-.2,9.5,6.2,17.5,6.7,23.3,5.6Z"/>
    <path class="st0" d="M1274.5,422c-.5.5-3.3,2.7-7.8,4.1,2.5-.8,5.2-2.1,7.8-4.1Z"/>
    <polygon class="st0" points="1322.6 806.5 1321.7 818.4 1320.3 818.2 1321.2 806.4 1322.6 806.5"/>
    <polygon class="st0" points="1327.6 808.2 1326.7 820.1 1325.3 820 1326.2 808.1 1327.6 808.2"/>
    <polygon class="st0" points="1332.7 810.3 1331.8 822.1 1330.4 822 1331.3 810.1 1332.7 810.3"/>
    <path class="st0" d="M1456.4,860.3c-2.3,1.1-5.2-.4-6.5-3.3-1.4-2.9,6.7-6.7,8.1-3.8h0c1.4,2.9.7,6.1-1.6,7.2Z"/>
    <path class="st0" d="M1475.4,849.6c-.3,5.5-4,9.9-8.3,9.6-4.3-.2-7.6-4.9-7.3-10.4.3-5.5,15.8-4.8,15.6.8Z"/>
    <path class="st0" d="M1481.6,861.5h0c-2.2,2.3-5.5,2.8-7.2,1.1s-1.4-5,.8-7.3c2.2-2.3,8.7,3.9,6.5,6.2Z"/>
    <path class="st0" d="M972.3,707.6c0,.2,0,.3,0,.5,0-.2.1-.5.2-.6,0,0-.2.1-.3.2ZM977.7,704.8c-.6.3-1.3.7-1.9,1,1-.1,1.9-.2,2.5,0-.3-.3-.5-.7-.6-1ZM972.3,707.6c0,.2,0,.3,0,.5,0-.2.1-.5.2-.6,0,0-.2.1-.3.2ZM977.7,704.8c-.6.3-1.3.7-1.9,1,1-.1,1.9-.2,2.5,0-.3-.3-.5-.7-.6-1ZM627,466.2v228.9l26-15v-227.4l-26,13.5ZM676.7,436.7v228.9l26-15v-227.4l-26,13.5ZM723.5,412v228.9l26-15v-227.4l-26,13.5ZM773.3,381.5v228.9l26-15v-227.4l-26,13.5ZM903.4,691.2c0,.9.2,1.6.4,2.2h.1c-.3-.8-.5-1.5-.5-2.2ZM972.3,707.6c0,.2,0,.3,0,.5,0-.2.1-.5.2-.6,0,0-.2.1-.3.2ZM977.7,704.8c-.6.3-1.3.7-1.9,1,1-.1,1.9-.2,2.5,0-.3-.3-.5-.7-.6-1ZM997.6,679.4v.4c0,0,0-1.7,0-1.7-.2.4-.2.9,0,1.3ZM957.1,663.9l6.9-3.8c-2.8,1-5.1,2.3-6.9,3.8ZM977.7,704.8c-.6.3-1.3.7-1.9,1,1-.1,1.9-.2,2.5,0-.3-.3-.5-.7-.6-1ZM972.3,707.6c0,.2,0,.3,0,.5,0-.2.1-.5.2-.6,0,0-.2.1-.3.2ZM977.7,704.8c-.6.3-1.3.7-1.9,1,1-.1,1.9-.2,2.5,0-.3-.3-.5-.7-.6-1ZM972.3,707.6c0,.2,0,.3,0,.5,0-.2.1-.5.2-.6,0,0-.2.1-.3.2ZM972.3,707.6c0,.2,0,.3,0,.5,0-.2.1-.5.2-.6,0,0-.2.1-.3.2ZM977.7,704.8c-.6.3-1.3.7-1.9,1,1-.1,1.9-.2,2.5,0-.3-.3-.5-.7-.6-1Z"/>
    <path class="st0" d="M880.5,753.8l-.9,20.4-.3,7.1-6.7,2.5.2-5.7,1.2-28v-.2c.3.2.6.4.9.6l4.8,2.9.7.4Z"/>
    <polygon class="st0" points="897.5 763.9 879.7 774.2 880.5 753.8 897.5 763.9"/>
    <path class="st0" d="M1580,1041.8l-228.7-129.2-204.7,119.3,228.2,130.2,205.8-120-.5-.3ZM1326.2,1032l26.3-17.4,2.1,3.2-26.2,17.3-2.1-3.2ZM1340.4,1039l26.3-17.4,2.1,3.2-26.3,17.3-2.1-3.2ZM1356.7,1048.7l-2.1-3.2,26.3-17.3,2.1,3.2-26.3,17.4Z"/>
    <polygon class="st0" points="1354.6 1017.8 1328.3 1035.1 1326.2 1032 1352.5 1014.6 1354.6 1017.8"/>
    <polygon class="st0" points="1368.8 1024.9 1342.5 1042.2 1340.4 1039 1366.6 1021.7 1368.8 1024.9"/>
    <polygon class="st0" points="1382.9 1031.4 1356.7 1048.7 1354.6 1045.5 1380.8 1028.2 1382.9 1031.4"/>
  </g>
  <g id="sbarre">
    <polygon class="st0" points="653 452.7 653 680.1 627 695.1 627 466.2 653 452.7"/>
    <polygon class="st0" points="702.7 423.1 702.7 650.5 676.7 665.6 676.7 436.7 702.7 423.1"/>
    <polygon class="st0" points="749.6 398.5 749.6 625.9 723.5 640.9 723.5 412 749.6 398.5"/>
    <polygon class="st0" points="799.3 368 799.3 595.4 773.3 610.5 773.3 381.5 799.3 368"/>
  </g>
  <g id="doccia">
    <path class="st0" d="M1495.3,692.9l-1,12.2c-66.8,25.7-118-1.5-118-1.5v-11.9c0,10.3,26.7,18.6,59.6,18.6s57.6-7.7,59.5-17.5Z"/>
    <path class="st0" d="M1495.4,691.7c0,.4,0,.8-.1,1.2-1.9,9.8-27.8,17.5-59.5,17.5s-59.6-8.3-59.6-18.6,17-15.2,40.5-17.7v9s17.2,12.2,37.3,0v-9c24,2.4,41.3,9.5,41.3,17.7Z"/>
    <path class="st0" d="M1454.1,662.8v20.2c-20.2,12.2-37.3,0-37.3,0v-20.5h.7c0,3.8,8.2,7,18.3,7s17.8-2.9,18.3-6.6Z"/>
    <path class="st0" d="M1454.1,662.5c0,.1,0,.2,0,.4-.5,3.7-8.5,6.6-18.3,6.6s-18.3-3.1-18.3-7,5.2-5.7,12.5-6.6c0,1.5,0,3,.1,4.5h11.7s-.1-1.6-.2-4.5c7.2.9,12.4,3.5,12.4,6.6Z"/>
    <path class="st0" d="M1478.5,563.1v13.2c-37.2-2.9-37.4,61.9-36.8,79.7.1,2.9.2,4.5.2,4.5h-11.7c0-1.5,0-3-.1-4.5-2.4-104,48.5-92.8,48.5-92.8Z"/>
    <path class="st0" d="M1475.4,849.6c-.3,5.5-4,9.9-8.3,9.6-4.3-.2-7.6-4.9-7.3-10.4.3-5.5,15.8-4.8,15.6.8Z"/>
    <path class="st0" d="M1456.4,860.3c-2.3,1.1-5.2-.4-6.5-3.3-1.4-2.9,6.7-6.7,8.1-3.8h0c1.4,2.9.7,6.1-1.6,7.2Z"/>
    <path class="st0" d="M1481.6,861.5h0c-2.2,2.3-5.5,2.8-7.2,1.1s-1.4-5,.8-7.3c2.2-2.3,8.7,3.9,6.5,6.2Z"/>
    <polygon class="st0" points="1354.6 1017.8 1328.3 1035.1 1326.2 1032 1352.5 1014.6 1354.6 1017.8"/>
    <polygon class="st0" points="1368.8 1024.9 1342.5 1042.2 1340.4 1039 1366.6 1021.7 1368.8 1024.9"/>
    <polygon class="st0" points="1382.9 1031.4 1356.7 1048.7 1354.6 1045.5 1380.8 1028.2 1382.9 1031.4"/>
  </g>
  <g id="bidet">
    <path class="st0" d="M1346.7,841.5l-2,25.4-31.5,20.8-9.5,6.2c-8.6,6.9-20.5,8.1-30.2,2.9l-16.3-8.6c-7.7-4.1-12.7-12-13-20.7l-.7-18.2h.3c.7,4,4.1,7.9,8.4,11.2,10.7,8.5,23.6,12.8,36.6,13.1,13.2.3,26.6-3.6,37.7-11.8,12.9-9.4,20.3-20.4,20.3-20.4Z"/>
    <path class="st0" d="M1346.7,841.5s-7.4,11-20.3,20.4c-11.2,8.1-24.5,12.1-37.7,11.8-13-.3-25.9-4.6-36.6-13.1-4.3-3.3-7.6-7.2-8.4-11.3l2.5-.2-2.7-1.6c0-3.3,1.9-6.8,6.7-10.2,4.3-3.1,45.2-25.6,45.2-25.6l51.4,29.7Z"/>
    <path class="st0" d="M1246.2,849.1l-2.5.2c-.1-.6-.2-1.2-.2-1.8l2.7,1.6Z"/>
    <polygon class="st0" points="1322.6 806.5 1321.7 818.4 1320.3 818.2 1321.2 806.4 1322.6 806.5"/>
    <polygon class="st0" points="1327.6 808.2 1326.7 820.1 1325.3 820 1326.2 808.1 1327.6 808.2"/>
    <polygon class="st0" points="1332.7 810.3 1331.8 822.1 1330.4 822 1331.3 810.1 1332.7 810.3"/>
  </g>
  <g id="letto">
    <g>
      <polygon class="st0" points="1097 899.5 1096.2 919.3 1089.4 915.7 1090 895.4 1097 899.5"/>
      <path class="st0" d="M1103.8,892.5l-1,24.3-6.7,2.5.8-19.8,1.2.7c1.4.8,3.2.1,3.7-1.4l2-6.2Z"/>
      <line class="st0" x1="1097.5" y1="885.6" x2="1097" y2="899.5"/>
    </g>
    <g>
      <path class="st0" d="M1230.5,830.6h0c0,0-.4,9.2-.4,9.2l-.4,9.3-6.7,2.5-6.8-3.7.4-13.9,2.8.5c.5,0,.9,0,1.3-.1,0,0,.1,0,.2,0l2.9-1.3h.2c.8-.5,1.4-1.3,1.5-2.2.2-2.9,4.4-3.2,5-.4h0Z"/>
      <polyline class="st0" points="1223.8 833 1223.7 836.1 1223 851.6"/>
    </g>
    <path class="st0" d="M972.3,707.6c0,.2,0,.3,0,.5,0-.2.1-.5.2-.6,0,0-.2.1-.3.2ZM977.7,704.8c-.6.3-1.3.7-1.9,1,1-.1,1.9-.2,2.5,0-.3-.3-.5-.7-.6-1ZM998.6,706.2l-.7.4c.3,0,.6-.2,1-.3,1-.3,2.2-.6,3.5-.9h0c4.7-1.2,10.8-2.7,15.8-3.7,0-1.7,0-3.3,0-5,0-.5,0-.9,0-1.4l-19.7,10.9ZM997.6,679.4v.4c0,0,0-1.7,0-1.7-.2.4-.2.9,0,1.3ZM1180.8,840.5l-.8,6.5,1.8-.9-1-5.6ZM1103.9,859.7l1.1,22.4c.7,0,1.5,0,2.2-.1l-3.4-22.3ZM1079.4,872.2l1.8,1,2.6-17.8-4.4,16.8ZM918.8,774.1c.2-1.1.4-2.3.5-3.5l2.9-21.1-3.4,24.6ZM897.5,763.8h0s15.7,9.4,15.7,9.4l-15.7-9.4Z"/>
    <path class="st0" d="M1018.6,691.2c0,1.3-.1,2.7-.2,4.2l-19.7,10.9-.7.4h0c-.1,0-.2,0-.3,0-.6.1-1.2.1-1.8,0-.5-.1-.9-.4-1.2-.8-.6-.7-1.4-1.2-2.4-1.6l5.5-2.9,11-6c.5-.3,1-.6,1.4-1,.2-.1.3-.3.5-.4.2-.1.3-.3.4-.4.3-.3.6-.6.9-.9.2-.2.4-.4.5-.6,0,0,0,0,0-.1.2-.2.3-.4.4-.5.3-.4.5-.8.6-1.1,0,0,0,0,0-.1,0,0,0-.1,0-.2,0,0,0-.2,0-.3,0,0,0-.1,0-.2,0,0,0-.2,0-.3,0,0,0-.1,0-.2,0-.1,0-.2,0-.3,0-.2,0-.3,0-.4,0-.2,0-.3,0-.5,0-.3,0-.5,0-.7,1.1.8,2.1,1.3,2.6,1.7.4.2.7.5.9.9.3.6.6,1.1,1,1.6Z"/>
    <path class="st0" d="M1014.1,687c0,.2,0,.4,0,.7,0,.2,0,.3,0,.5,0,.1,0,.3,0,.4,0,0,0,.2,0,.3,0,0,0,0,0,.2,0,0,0,.2,0,.3,0,0,0,.1,0,.2,0,0,0,.2,0,.3,0,0,0,.1,0,.2,0,0,0,0,0,.1-.2.4-.4.7-.6,1.1-.1.2-.2.4-.4.5,0,0,0,0,0,.1-.1.2-.3.4-.5.6-.3.3-.5.6-.9.9-.1.1-.3.3-.4.4-.1.1-.3.3-.5.4-.5.4-.9.7-1.4,1l-11,6-5.5,2.9s-.1,0-.2,0c-2-.8-4.3-1.1-5-1.1-.2,0-.3,0-.5,0-1.3-.4-2.5-.6-3.5-.9,5-2.6,10.1-5.2,14.7-7.6,7.3-3.8,13.3-6.9,15.5-8.1.3.2.7.5,1,.7Z"/>
    <path class="st0" d="M1012,649.6c-8.1,2.1-12.7,5.7-14.3,7.1,0,0-.1.1-.2.2-.3.3-.7.6-1.2.7-4.3,1.2-10.5,1.2-13.6,1.2-2.8-1.6-5.7-3-8.6-4.2l8.1-4.4c4.3-1.8,10-2.9,15.6-2.9,5.1,0,10.2.7,14.2,2.4Z"/>
    <path class="st0" d="M922.2,749.5l-3.4,24.6-.3,2.3h0l-5.3-3.2-15.7-9.4h0s-16.9-10-16.9-10l-.7-.4-4.8-2.9c-.3-.2-.6-.4-.9-.6,0,0-.1-.1-.2-.1-.1,0-.2-.1-.3-.2,0,0-.1,0-.2-.1h0s0,0,0,0c-.9-.7-1.7-1.4-2.4-2.3-.1-.1-.2-.3-.3-.4-1.3-1.5-2.3-3.3-3-5.1-.2-.5-.3-.9-.5-1.4-.5-1.7-.7-3.6-.6-5.4v-1.5c0,0,0,0,0,0l.5-11.3h0c.1-1,.3-2,.4-2.9l54.8,30.6h0Z"/>
    <path class="st0" d="M976.2,718l-16.6,9.6-.6.3-35.6,19.6c-.7.4-1.2,1.1-1.3,1.9h0s0,0,0,0l-54.8-30.6c-.1,1-.3,1.9-.4,2.8v-.3s0,0,0,0c.2-5.5,3.6-10.3,8.6-12.4l28.2-15.6c.6,2.1,1.8,2.6,2,2.6t0,0l41.2,25.4c.9.5,1.8,1,2.7,1.4.3,0,.5.2.8.3.5.2.9.3,1.3.4.2,0,.4,0,.6.1,1.9.3,3.8,0,5.7-1l11.6-6.3c2.6.6,4.9,1.2,6.5,1.7Z"/>
    <rect class="st0" x="918.5" y="776.4" width="0" height="0"/>
    <path class="st0" d="M1237.2,827.8c0,0,0,.2,0,.3l-1.4,4.3c-.8,2.4-4.3,2.2-4.9-.3l-.3-1.4h0c0,0,0-.2,0-.2-.6-2.9-4.8-2.5-5,.4,0,.9-.6,1.7-1.5,2.1h-.2c0,0-2.9,1.4-2.9,1.4,0,0-.1,0-.2,0-.4.2-.8.2-1.3.1l-2.8-.5-1.3-.2c-1-.2-2.1.3-2.6,1.2l-4.1,6.7s-.1.2-.2.3l-.5.6c-1.1,1.4-3.3,1.2-4.2-.4l-.6-1.1c-1.2-2.3-4.7-1.5-4.8,1.1v1.6c0,.8-.5,1.6-1.1,2l-5.1,3.5c-.3.2-.5.5-.7.8l-3.1,5.1c-.3.5-.8.9-1.3,1.1h-.3c-1.5.6-3.1-.3-3.4-1.8l-1.6-8.6-1-5.6-.8,6.5-.6,4.8c0,.4-.2.7-.3,1l-1.8,3c-.8,1.3-2.5,1.6-3.7.8l-.6-.4c-1.4-1-3.3-.4-3.9,1.2l-.7,2c-.5,1.6-2.5,2.2-3.9,1.2-1.2-.9-2.8-1.9-4.6-2.8-.9-.5-1.9,6.1-2.2,8.6,0,.6-.4,1.2-.9,1.6l-8,6.7c-.3.3-.8.5-1.2.5l-10,1.7c-.4,0-.7.2-1,.4l-8.7,5.7c-.2.2-.5.3-.8.3l-10.6,2.6c-.3,0-.6.2-.9.4l-3.8,2.7c-1.5,1.1-3.7.2-4-1.7l-.8-5.3-3.4-22.3,1.1,22.4.3,5.2c0,.3,0,.6-.1.9l-1.4,4.2h0c0,0-2,6.3-2,6.3-.5,1.5-2.3,2.2-3.7,1.4l-1.2-.7-7-4.1-9.6-5.6c-.9-.5-1.4-1.5-1.2-2.5l2.1-14.1,2.6-17.8-4.4,16.8-2.7,10.2c-.4,1.5-2.1,2.3-3.5,1.6l-14.4-6.8c-.5-.2-.8-.5-1.1-1l-2.9-4.7c-.2-.4-.5-.7-1-.9-1.5-.8-5.3-2.9-5.9-3.2-.5-.2-3.6-3.2-5.9-5.3-1.2-1.1-3-.9-3.9.5-1.3,2.1-2.9,4.5-3.5,4.5-.8,0-7.1-3.9-9.5-5.3-.6-.4-1-.9-1.1-1.6l-2.2-9.6c-.2-.9-.8-1.6-1.7-1.8l-6.3-2.1-15.4-5.2c-.7-.2-1.2-.7-1.5-1.3-.8-1.8-2.5-5.2-3.5-5.3-1.3,0-4.9.8-5.1-.2-.3-1-6.1-8-7.4-8.3-1.3-.4-11.8-2.7-12.8-2.8-1,0-7.4-1-9-1.3-1.4-.4-4.3-3.3-4.9-4,0,0-.1-.1-.2-.2l-9.6-7.9c-.5-.4-.8-.9-.9-1.5l-.7-3.6c-.5-2.3-3.5-2.8-4.7-.8l-.5,1c-.7,1.2-2.2,1.6-3.4,1l-16.7-8.9h0c-.9-.5-1.4-1.4-1.3-2.4.2-3,.9-9.8,2.1-18.5h0s.3-2.3.3-2.3c.2-1.1.4-2.3.5-3.5l2.9-21.1,162.1,86.1c3.6,5.6,7,10.4,7,10.4,2.4,3.3,4.2,6.5,5.4,9.1,1,2.2,4.9,1.7,5.4-.7.8-4,.6-9.2,0-14.1.4-.1.8-.3,1.2-.5l68.6-33.7h0l58.4-28.7c1-.5,1-1.8,0-2.3l2.1,1.2h0s0,0,0,0c.7.3,14.8,7.2,4.8,51.4Z"/>
    <path class="st0" d="M998.6,706.2l-.7.4c.3,0,.6-.2,1-.3,1-.3,2.2-.6,3.5-.9h0c4.7-1.2,10.8-2.7,15.8-3.7,0-1.7,0-3.3,0-5,0-.5,0-.9,0-1.4l-19.7,10.9Z"/>
    <path class="st0" d="M1261.5,157.3l-.4,256.3c4.1,1,8.6,3.5,13.4,8.4,0,0,6.7,8.4,2.2,19.3,0,0-.1,0-.4.2h.6v45c-19.7,19.8-39.2,0-39.2,0v-47.4h.6s0,0,0,0c0,0-3.8-9.8,2.4-18.1,0,0,4.8-6,12.5-7.6l.4-260.7L1000,6.3l-2.2,640.8c5.1,0,10.2.7,14.2,2.4,8.2-2.2,20.2-2.9,36.4,1.6,0,0,21.2,6.6,39.3,13.2,0,0,29.8,9.9,29,33.6,0,0,.6,4.6-2.8,9.4,0,.2,0,.3,0,.5,0,.1,0,.3,0,.4h0c0,.2,0,.5,0,.7l115.9,66.2.3.2,2.1,1.2h0s0,0,0,0c.7.3,14.8,7.2,4.8,51.4,0,0,0,.2,0,.3l-1.4,4.3c-.8,2.4-4.3,2.2-4.9-.3l-.3-1.4-.4,9.1,13.4,7.7c0-3.3,1.9-6.8,6.7-10.2,4.3-3.1,45.2-25.6,45.2-25.6l51.4,29.7-2,25.4-31.5,20.8,266.9,154.1.5.3,26.3,15.2V356.6l-345.3-199.3ZM1321.7,818.4h-1.4c0-.1,1-12,1-12h1.4c0,0-1,12-1,12ZM1326.7,820.1h-1.4c0,0,1-12,1-12h1.4c0,.1-1,12-1,12ZM1331.8,822.1h-1.4c0,0,1-12,1-12h1.4c0,.1-1,12-1,12ZM1456.4,860.3c-2.3,1.1-5.2-.4-6.5-3.3-1.4-2.9,6.7-6.7,8.1-3.8h0c1.4,2.9.7,6.1-1.6,7.2ZM1467.1,859.2c-4.3-.2-7.6-4.9-7.3-10.4.3-5.5,15.8-4.8,15.6.8-.3,5.5-4,9.9-8.3,9.6ZM1481.6,861.5h0c-2.2,2.3-5.5,2.8-7.2,1.1s-1.4-5,.8-7.3c2.2-2.3,8.7,3.9,6.5,6.2ZM1495.3,692.9l-1,12.2c-66.8,25.7-118-1.5-118-1.5v-11.9c0-8.2,17-15.2,40.5-17.7v-11.6h.7c0-3.1,5.2-5.7,12.5-6.6-2.4-104,48.5-92.8,48.5-92.8v13.2c-37.2-2.9-37.4,61.9-36.8,79.7,7.2.9,12.4,3.5,12.4,6.6s0,.2,0,.4v11.1c24,2.4,41.3,9.5,41.3,17.7s0,.8-.1,1.2Z"/>
    <path class="st0" d="M957.7,719.1c0,.2-.1.5-.2.7,0,.1-.1.3-.2.5,0,.2-.2.3-.3.5-.2.3-.5.6-.9.9-.2.2-.4.3-.6.5,0,0,0,0,0,0-.3.2-.6.4-1,.6-.6.3-1.2.6-1.9.9,0,0,0,0,0,0-.2,0-.4,0-.6-.1-.4,0-.9-.2-1.3-.4-.3,0-.5-.2-.8-.3-.9-.4-1.8-.9-2.7-1.4l-41.2-25.4s0,0,0,0c-.3,0-1.4-.5-2-2.6h.1c-.3-.8-.5-1.5-.5-2.2,0-.3,0-.5,0-.8h0c0-.1,0-.2,0-.2.1-.6,1.7-7.5,9.7-2.3l.3.2,36.2,22.3c-.4,2.3,2.9,3.4,5.8,4,.4.4.9.9,1.2,1.4t0,0c.5.6.8,1.3,1,2,0,.5,0,.9,0,1.4Z"/>
    <path class="st0" d="M969.7,716.4l-11.6,6.3c-1.9,1.1-3.8,1.4-5.7,1,0,0,0,0,0,0,.7-.3,1.4-.6,1.9-.9.4-.2.7-.4,1-.6,0,0,0,0,0,0,.2-.1.4-.3.6-.5.4-.3.6-.6.9-.9.1-.2.2-.3.3-.5,0-.1.2-.3.2-.5,0-.2.2-.5.2-.7,0-.5,0-.9,0-1.4-.2-.7-.5-1.4-1-2t0,0c-.3-.5-.8-1-1.2-1.4,1.1.2,2.2.4,3,.4h0c1,0,1.6.1,1.6.1,3.1.2,6.5.9,9.5,1.5,0,0,0,0,0,0Z"/>
    <path class="st0" d="M972.6,707.4c-.1.2-.2.4-.2.6,0-.1,0-.3,0-.5,0,0,.2,0,.3-.2Z"/>
    <path class="st0" d="M978.3,705.8c-.6-.2-1.5-.1-2.5,0,.6-.3,1.3-.7,1.9-1,0,.4.3.7.6,1Z"/>
    <path class="st0" d="M964,660.1l-6.9,3.8c1.8-1.5,4.1-2.8,6.9-3.8Z"/>
    <path class="st0" d="M997.7,678.1v1.7-.4c-.2-.5-.2-.9,0-1.3Z"/>
    <path class="st0" d="M393.2,356.6v700.7l474.6-276.2-1.9-1,1.1-40c-.5-1.7-.7-3.6-.6-5.4v-1.5c0,0,0,0,0,0l.5-11.3h0c0-.1,0-.5,0-.5h0c.2-5.5,3.6-10.3,8.6-12.5l28.2-15.6c-.2-.6-.3-1.3-.4-2.2,0-.3,0-.5,0-.8h0c0-.1,0-.2,0-.2,0-2,.9-3.4.9-3.4,7.9-12.4,36.7-26.6,50.2-32.8,4.9-2.2,10.5-2.7,15.6-1,1.4.5,2.8,1,4.1,1.5l8.1-4.4c4.3-1.8,10-2.9,15.6-2.9l2.2-640.8L393.2,356.6ZM653,680.1l-26,15v-228.9l26-13.5v227.4ZM702.7,650.5l-26,15v-228.9l26-13.5v227.4ZM749.6,625.9l-26,15v-228.9l26-13.5v227.4ZM799.3,595.4l-26,15v-228.9l26-13.5v227.4Z"/>
    <path class="st0" d="M874.1,749.9v.2l-1.2,28-.2,5.7-4.9-2.7-1.9-1,1.1-40c.1.5.3.9.5,1.4.7,1.9,1.7,3.6,3,5.1.1.1.2.3.3.4.8.8,1.6,1.6,2.4,2.3,0,0,0,0,0,0h0c0,0,.1.1.2.2,0,0,.2.1.3.2,0,0,.1,0,.2.1Z"/>
    <rect class="st0" x="918.5" y="776.4" width="0" height="0"/>
    <path class="st0" d="M1013.2,686.3c-2.3,1.2-8.3,4.3-15.5,8.1-4.6,2.4-9.7,5-14.7,7.6-.6-.1-1.2-.3-1.8-.3-2-.3-3.4,1.2-3.4,2.6s0,.3,0,.4c-.6.3-1.3.7-1.9,1-.4,0-.7.1-1.1.2-1,.2-1.7.7-2.1,1.4h0c-.1.2-.2.4-.2.6,0-.1,0-.3,0-.5-.4-2.2-2.8-4.6-2.8-4.6-.8-1.7-10.9-6.8-15.3-9-.2-.1-.5-.2-.7-.2-.7,0-1.4.5-1.5,1.3,0,.5-.4.9-.9,1.1-5,2-2.6,6.4-2,7.3,0,.1.1.3.1.4l.8,5.1c0,.2,0,.4-.1.6,0,.2-.2.5-.2.7l-36.2-22.3-.3-.2c-8-5.1-9.6,1.7-9.7,2.3,0-2,.9-3.4.9-3.4,7.9-12.4,36.7-26.6,50.2-32.8,4.9-2.2,10.5-2.7,15.6-1,1.4.5,2.8,1,4.1,1.5,2.9,1.2,5.8,2.6,8.6,4.2-1.3,0-2,0-2,0-7-.8-12.4,0-16.7,1.4-2.8,1-5.1,2.3-6.9,3.8-5.3,4.3-6.8,9.9-7.2,11.5,0,.3,0,.6,0,.9,5,23.4,24.9,18.9,29.9,17.4.3,0,.6-.1.9-.1.5,0,.9.1,1.3.3l2.8,1.2c.7.3,1.5.3,2.3,0,2.4-.9,4.4-3.3,5.3-4.8.5-.7,1.2-1.1,2.1-1.2,1.4-.2,2.4-.5,3.2-.9.1,0,.2-.1.3-.2,1-.6,1.4-1.6,1.2-2.6l-1.4-5.8v-1.7c.3-.7,1-1.3,1.9-1.6h.2c1.2-.4,2.5,0,3.2.9,2.3,3.2,6.8,6.7,10.2,8.9Z"/>
    <path class="st0" d="M978.3,705.8c-.6-.2-1.5-.1-2.5,0,.6-.3,1.3-.7,1.9-1,0,.4.3.7.6,1Z"/>
    <path class="st0" d="M1230.2,777.5l-58.4,28.7h0l-68.6,33.7c-.4.2-.8.4-1.2.5-.9-7.2-2.7-14-3.3-16.2-.1-.5,0-1,.2-1.5,4.8-10.2,1.3-14.7,1.3-14.7-.3-3.1-9.2-1.4-13.4-.4-1.3.3-2.5-.2-3.1-1.1-4.3-7.1-16.9-18.8-23.4-24.7,1.7,0,2.9,0,3.3,0s.4,0,.5,0c28.5-3.1,33.7,4.3,34.6,6.2.2.4.4.7.7,1,4.6,5.4,9.1,17.7,11.4,24.8.6,1.9,2.6,3.1,4.8,3.1s1.8-.2,2.6-.6c1.3-.6,2.3-1.7,2.7-2.9,1.4-4.7,0-13.5-.7-17-.1-.7-.4-1.4-.9-1.9-1.4-1.7-1.9-6.3-2-8.4,0-.7.1-1.4.5-2.1,1.5-3,2.2-5.4,2.3-7.5.5-8.1-8.6-9-14.9-8.6-2.3.1-4.2.4-5.2.6-.6,0-1.1.1-1.7,0-18.3-2.1-30.3-4.8-37.8-7-4.1-1.2-4.5-6-.7-8.1,3.2-1.8,6.7-3.8,10-6.1h0c9-5.9,17.5-12.4,19.9-14.4.5-.4,1-.7,1.6-.9,16.6-5.9,21.4-16.2,22.7-23.1h0s0,0,0,0l115.9,66.2.3.2c.9.5.9,1.8,0,2.3Z"/>
    <path class="st0" d="M1002.5,705.5c4.7-1.2,10.8-2.7,15.8-3.7,0-1.7,0-3.3,0-5l-15.9,8.7Z"/>
    <path class="st0" d="M1084.3,835.6l-162.1-86.1h0c0-.8.6-1.5,1.3-1.9l35.6-19.6.6-.3,16.6-9.6c.2,0,.5.1.6.2.7.2,1.3.4,1.6.5,0,0,.1,0,.2,0,.1,0,.2,0,.3.2,6.6,4.5,39.6,8.9,45.2,9.6h0c.5,0,1,0,1.3-.4l4.1-4,9.5-9.4c1.4-.3,2.7-.8,3.7-1.3-4.1,3.7-8.2,7.6-12,11.4-13.2,13.1-24,25.4-24.9,26.5,0,0,0,.1-.1.2-4.1,5.3-3.4,10-1.4,13.5-.5,3,1,5,.9,8.3,0,.3,0,.6.1.9,1.1,2.9,8,4.7,16.7,5.8l52.9,39c.4.3.7.7.9,1.2.9,3.3,4.8,9.8,8.5,15.5Z"/>
    <g id="Livello_14">
      <path class="st0" d="M903.9,693.2h-.1c-.2-.5-.3-1.2-.4-2.1,0,.6.2,1.4.5,2.1Z"/>
    </g>
  </g>
  <g id="cristiano">
    <g>
      <path class="st0" d="M1039.1,714.7l-9.5,9.4-4.1,4c-.3.3-.8.5-1.3.5h0c-5.5-.8-38.6-5.2-45.2-9.7-.1,0-.2-.1-.3-.2,0,0-.1,0-.2,0-.3,0-.9-.3-1.6-.5-.2,0-.4,0-.6-.2-1.6-.5-3.9-1.1-6.5-1.7,0,0,0,0,0,0-3-.7-6.4-1.3-9.5-1.5,0,0-.7,0-1.6-.1h0c-.9,0-1.9-.2-3-.4-3-.6-6.2-1.7-5.8-4,0-.2.1-.4.2-.7,0-.2.1-.4.1-.6l-.8-5.1c0-.1,0-.3-.1-.4-.6-.9-3-5.3,2-7.3.5-.2.8-.6.9-1.1,0-.7.8-1.3,1.5-1.3s.5,0,.7.2c4.4,2.2,14.5,7.4,15.3,9,0,0,2.4,2.4,2.8,4.6,0,.2,0,.3,0,.5,0,0,0,0,0,0,0,.5,0,.9.2,1.4.7,1.3,1.9,2.7,2.8,3.8,0,0,0,0,0,0,.4.4.7.8,1,1.1.3.3.5.7.5,1.1.1.7.4,1.2.7,1.7,0,.1.2.3.3.4.3.3.6.6,1,.8,4.4,2.9,14.4.9,15.5.6,0,0,.1,0,.2,0,5.7-.9,14.3-1.7,21.9-2.4,8.5-.8,15.8-1.3,16.8-1.4h.2c2.1,0,3.9-.1,5.5-.5Z"/>
      <path class="st0" d="M1035.5,703c-1.8,1-7-1.4-8.4-2.1-.4-.2-.8-.3-1.2-.3-1.4,0-4.3.4-7.6,1.1,0-1.7,0-3.3,0-5,0-.5,0-.9,0-1.4,0-1.4,0-2.9.2-4.2.7,1.1,1.4,2.1,2,3,.2.3.5.6.7,1,7,8.7,13.5,8,14.2,7.9Z"/>
      <path class="st0" d="M1022.1,779.9c-8.7-1.1-15.7-2.9-16.7-5.8,0-.3-.1-.6-.1-.9,0-3.3-1.4-5.3-.9-8.3,2.3,4.1,6.4,6.7,7.1,7.1,0,0,.2.1.2.1l10.5,7.7Z"/>
      <path class="st0" d="M1120.8,813.3c-.4,1.2-1.4,2.3-2.7,2.9-.8.4-1.7.6-2.6.6-2.1,0-4.1-1.2-4.8-3.1-2.3-7.1-6.8-19.4-11.4-24.8-.3-.3-.5-.7-.7-1-.9-1.9-6.1-9.3-34.6-6.2-.2,0-.3,0-.5,0-.5,0-1.7,0-3.3,0-1.8-1.6-3.1-2.8-3.7-3.3-.3-.2-.5-.5-.6-.8-4-8.9-12.7-15.2-17.9-18.4-1.7-1-1.4-3.3.5-4.2,6.5-2.9,14.3-7.7,22.1-13,14.9-10,29.4-21.5,32.5-24,.4-.3.9-.5,1.4-.6,10-1.7,15.5-5.4,18.5-9.1.1-.2.3-.3.4-.5,0,0,.1-.2.2-.3,0,0,.2-.2.2-.3,0,.2,0,.3,0,.5,0,.1,0,.3,0,.4h0c0,.2,0,.5,0,.7h0c0,0,0,0,0,0-1.3,6.9-6.2,17.2-22.7,23.1-.6.2-1.2.5-1.6.9-2.5,1.9-10.9,8.5-19.9,14.4h0c-3.3,2.2-6.7,4.3-10,6.1-3.8,2.1-3.3,6.9.7,8.1,7.5,2.2,19.5,4.8,37.8,7,.6,0,1.1,0,1.7,0,1-.2,2.9-.5,5.2-.6,6.4-.4,15.4.6,14.9,8.6,0,2-.8,4.5-2.3,7.5-.3.7-.5,1.4-.5,2.1.1,2.1.6,6.7,2,8.4.5.6.7,1.2.9,1.9.6,3.5,2.1,12.3.7,17Z"/>
      <path class="st0" d="M957.1,663.9l6.9-3.8c-2.8,1-5.1,2.3-6.9,3.8Z"/>
      <path class="st0" d="M1116.8,697.9c.8-23.6-29-33.6-29-33.6-18.1-6.6-39.3-13.2-39.3-13.2-16.2-4.4-28.1-3.8-36.4-1.6-8.1,2.1-12.7,5.7-14.3,7.1,0,0-.1.1-.2.2-.3.3-.7.6-1.2.7-4.3,1.2-10.5,1.2-13.6,1.2-1.3,0-2,0-2,0-7-.8-12.4,0-16.7,1.4l-6.9,3.8c-5.3,4.3-6.8,9.9-7.2,11.5,0,.3,0,.6,0,.9,5,23.4,24.9,19,29.8,17.5h0c.7-.2,1.5-.2,2.2,0l2.8,1.2c.7.3,1.5.3,2.3,0,2.4-.9,4.4-3.3,5.3-4.8.5-.7,1.2-1.1,2.1-1.2,1.4-.2,2.4-.5,3.2-.9.1,0,.2-.1.3-.2,1-.6,1.4-1.6,1.2-2.6l-1.4-5.8v-.4c-.2-.5-.2-.9,0-1.3.3-.7,1-1.3,1.9-1.6h.2c1.2-.4,2.5,0,3.2.9,2.3,3.2,6.8,6.7,10.2,8.9.3.2.7.5,1,.7,1.1.8,2.1,1.3,2.6,1.7.4.2.7.5.9.9.3.6.6,1.1,1,1.6.7,1.1,1.4,2.1,2,3,.2.3.5.6.7,1,7,8.7,13.5,8,14.2,7.9-1.8,1-7-1.4-8.4-2.1-.4-.2-.8-.3-1.2-.3-1.4,0-4.3.4-7.6,1.1-5,1-11.1,2.5-15.8,3.7h0c-1.3.3-2.5.6-3.5.9-.4,0-.7.2-1,.3h0c-.1,0-.2,0-.3,0-.6.1-1.2.1-1.8,0-.5-.1-.9-.4-1.2-.8-.6-.7-1.4-1.2-2.4-1.6,0,0-.1,0-.2,0-2-.8-4.3-1.1-5-1.1-.2,0-.3,0-.5,0-1.3-.4-2.5-.6-3.5-.9-.6-.1-1.2-.3-1.8-.3-2-.3-3.4,1.2-3.4,2.6s0,.3,0,.4c0,.4.3.7.6,1-.6-.2-1.5-.1-2.5,0-.4,0-.7.1-1.1.2-1,.2-1.7.7-2.1,1.4h0c-.1.2-.2.4-.2.6,0,0,0,0,0,0,0,.5,0,.9.2,1.4.7,1.3,1.9,2.7,2.8,3.8,0,0,0,0,0,0,.4.4.7.8,1,1.1.3.3.5.7.5,1.1.1.7.4,1.2.7,1.7,0,.1.2.3.3.4.3.3.6.6,1,.8,4.4,2.9,14.4.9,15.5.6,0,0,.1,0,.2,0,5.7-.9,14.3-1.7,21.9-2.4,8.5-.8,15.8-1.3,16.8-1.4h.2c2.1,0,3.9-.1,5.5-.5,1.4-.3,2.7-.8,3.7-1.3-4.1,3.7-8.2,7.6-12,11.4-13.2,13.1-24,25.4-24.9,26.5,0,0,0,.1-.1.2-4.1,5.3-3.4,10-1.4,13.5,2.3,4.1,6.4,6.7,7.1,7.1,0,0,.2.1.2.1l10.5,7.7,52.9,39c.4.3.7.7.9,1.2.9,3.3,4.8,9.8,8.5,15.5,3.6,5.6,7,10.4,7,10.4,2.4,3.3,4.2,6.5,5.4,9.1,1,2.2,4.9,1.7,5.4-.7.8-4,.6-9.2,0-14.1-.9-7.2-2.7-14-3.3-16.2-.1-.5,0-1,.2-1.5,4.8-10.2,1.3-14.7,1.3-14.7-.3-3.1-9.2-1.4-13.4-.4-1.3.3-2.5-.2-3.1-1.1-4.3-7.1-16.9-18.8-23.4-24.7-1.8-1.6-3.1-2.8-3.7-3.3-.3-.2-.5-.5-.6-.8-4-8.9-12.7-15.2-17.9-18.4-1.7-1-1.4-3.3.5-4.2,6.5-2.9,14.3-7.7,22.1-13,14.9-10,29.4-21.5,32.5-24,.4-.3.9-.5,1.4-.6,10-1.7,15.5-5.4,18.5-9.1.1-.2.3-.3.4-.5,0,0,.1-.2.2-.3,0,0,.2-.2.2-.3,3.4-4.8,2.8-9.4,2.8-9.4ZM1047.6,709.1c.5-.7.7-1.3.9-1.7.1-.4.2-.7.1-1.1l-1.5-9.2c-.3-1.7,1.5-3.2,3.5-2.9,10.3,1.7,20.4-.9,21.5-1.1-6.5,1.9-15.3,8.2-24.4,16Z"/>
      <path class="st0" d="M1048.5,707.4c.1-.4.2-.7.1-1.1l-1.5-9.2c-.3-1.7,1.5-3.2,3.5-2.9,10.3,1.7,20.4-.9,21.5-1.1-6.5,1.9-15.3,8.2-24.4,16,.5-.7.7-1.3.9-1.7Z"/>
    </g>
  </g>
  <g id="lampada">
    <path class="st0" d="M1277,441.5v45c-19.7,19.8-39.2,0-39.2,0v-47.4h.6c14.7,15.1,34.9,4.1,38,2.3h.6Z"/>
    <path class="st0" d="M1276.8,441.2s-.1,0-.4.2c-3,1.8-23.2,12.8-38-2.3h0s-3.8-9.8,2.4-18.1c0,0,0,0,0,0,0,0,0,0,0,0,0,0,0,0,.1.1.2.1.5.4.9.6,1.2.8,3.2,2,5.8,3.1.9.4,1.8.7,2.8,1,3.2,1,7,1.6,11,1.1.5,0,.9,0,1.4-.2.9-.1,1.8-.3,2.7-.6.3,0,.7-.2,1-.3,4.5-1.4,7.3-3.6,7.8-4.1,0,0,0,0,0,0,0,0,6.7,8.4,2.2,19.3Z"/>
    <path class="st0" d="M1274.5,422c-.5.5-3.3,2.7-7.8,4.1,2.5-.8,5.2-2.1,7.8-4.1Z"/>
    <path class="st0" d="M1261.5,157.3l-.4,256.3c-2.9-.7-5.5-.6-7.9-.1l.4-260.7,7.9,4.6Z"/>
    <path class="st0" d="M1274.6,422s0,0,0,0c-2.6,1.9-5.2,3.2-7.8,4.1-.3.1-.7.2-1,.3-.5.1-1,.2-1.5.4-2.6.5-5.7.7-9.1.1-.6,0-1.2-.2-1.8-.3-.2,0-.3,0-.5-.1-.6-.1-1.3-.3-2-.5-.5-.1-1-.3-1.5-.5-.5-.2-1-.4-1.5-.6-1-.4-2.1-.9-3.1-1.4-.7-.4-1.5-.8-2.3-1.3-.4-.2-.7-.4-1.1-.7-.1,0-.3-.1-.4-.2,0,0,0,0,0,0,0,0,0,0,0,0,0,0,4.8-6,12.5-7.6,2.4-.5,5-.5,7.9.1,4.1,1,8.6,3.5,13.4,8.4Z"/>
    <path class="st0" d="M1274.5,422c-.5.5-3.3,2.7-7.8,4.1,2.5-.8,5.2-2.1,7.8-4.1Z"/>
  </g>
</svg>